<svg width="32" height="32" viewBox="0 0 32 32" fill="none" xmlns="http://www.w3.org/2000/svg">
<path d="M5.14284 4.28585C5.14284 4.05853 5.05254 3.84051 4.89179 3.67976C4.73104 3.51902 4.51303 3.42871 4.2857 3.42871C4.05837 3.42871 3.84035 3.51902 3.67961 3.67976C3.51886 3.84051 3.42856 4.05853 3.42855 4.28585V27.7144C3.42856 27.9418 3.51886 28.1598 3.67961 28.3205C3.84035 28.4813 4.05837 28.5716 4.2857 28.5716C4.51303 28.5716 4.73104 28.4813 4.89179 28.3205C5.05254 28.1598 5.14284 27.9418 5.14284 27.7144V4.28585ZM28.5714 6.00471C28.5714 3.92928 26.2388 2.70871 24.5337 3.89271L10.2434 13.8127C9.90353 14.0486 9.62557 14.3629 9.43312 14.7291C9.24068 15.0953 9.13943 15.5026 9.13797 15.9163C9.13651 16.33 9.23489 16.7379 9.42475 17.1055C9.61461 17.473 9.89035 17.7893 10.2286 18.0276L24.5188 28.0961C26.2217 29.2961 28.5714 28.0801 28.5714 25.9944V6.00471ZM25.5108 5.30071C25.6394 5.21137 25.79 5.15894 25.9462 5.14913C26.1025 5.13931 26.2584 5.17247 26.3972 5.24502C26.5359 5.31757 26.6521 5.42673 26.7332 5.56065C26.8143 5.69458 26.8571 5.84815 26.8571 6.00471V25.9944C26.8571 26.1514 26.814 26.3054 26.7324 26.4396C26.6508 26.5738 26.534 26.6829 26.3946 26.7552C26.2552 26.8275 26.0987 26.8601 25.942 26.8495C25.7853 26.8389 25.6346 26.7854 25.5063 26.695L11.216 16.6264C11.1031 16.5471 11.011 16.4416 10.9476 16.319C10.8842 16.1965 10.8513 16.0604 10.8517 15.9224C10.8522 15.7844 10.8859 15.6485 10.9502 15.5263C11.0144 15.4042 11.1071 15.2993 11.2206 15.2207L25.5108 5.30071Z" fill="white" fill-opacity="0.2"/>
</svg>
