<svg width="1280" height="1145" viewBox="0 0 1280 1145" fill="none" xmlns="http://www.w3.org/2000/svg">
<g clip-path="url(#clip0_304_4452)">
<path d="M1229.55 1138.6C1220.85 1104.82 1207.79 1074.15 1206.48 1039.92C1206.48 973.688 1249.13 914.123 1233.03 839.445C1225.63 797.216 1206.48 755.876 1177.76 724.316C1142.08 685.643 1096.38 672.308 1061.13 645.193C1019.35 616.299 1001.51 566.514 974.964 524.285C932.316 457.608 843.102 418.046 767.815 430.937C724.296 438.938 681.648 457.608 637.694 456.719C593.74 457.608 550.656 439.827 507.138 431.826C445.342 421.602 375.711 447.829 328.711 492.28C298.248 521.173 283.016 562.958 261.257 597.63C230.359 654.083 167.691 672.753 119.821 710.092C70.6451 749.209 39.3115 823.443 42.7929 889.675C44.5337 935.46 65.4228 976.8 72.3857 1019.92C82.8301 1091.48 29.7374 1157.72 47.1448 1237.28C57.1541 1295.07 89.7934 1351.52 138.534 1382.64C162.469 1398.2 187.275 1409.76 209.905 1424.87C273.877 1463.1 280.841 1537.78 336.979 1590.23C378.322 1626.68 433.591 1649.79 487.989 1648.9H489.73C538.906 1646.24 588.518 1620.9 635.083 1620.45C658.583 1619.57 681.648 1622.68 705.583 1628.9C729.083 1634.68 753.454 1643.13 778.695 1646.24C837.444 1653.79 898.371 1629.79 943.631 1591.56C979.316 1561.78 995.853 1515.99 1016.31 1482.66C1075.06 1383.08 1180.81 1403.09 1224.33 1271.96C1239.99 1228.84 1241.73 1181.72 1229.11 1138.6H1229.55Z" fill="#1E1E1E"/>
</g>
<defs>
<clipPath id="clip0_304_4452">
<rect width="1280" height="1145" fill="white"/>
</clipPath>
</defs>
</svg>
