<svg width="34" height="28" viewBox="0 0 34 28" fill="none" xmlns="http://www.w3.org/2000/svg">
<path d="M8.4 6.3C9.51391 6.3 10.5822 6.7425 11.3698 7.53015C12.1575 8.3178 12.6 9.38609 12.6 10.5V16.8C12.6 17.9139 12.1575 18.9822 11.3698 19.7698C10.5822 20.5575 9.51391 21 8.4 21C7.28609 21 6.2178 20.5575 5.43015 19.7698C4.6425 18.9822 4.2 17.9139 4.2 16.8V10.5C4.2 9.38609 4.6425 8.3178 5.43015 7.53015C6.2178 6.7425 7.28609 6.3 8.4 6.3ZM8.4 8.4C7.84305 8.4 7.3089 8.62125 6.91508 9.01508C6.52125 9.4089 6.3 9.94305 6.3 10.5V16.8C6.3 17.357 6.52125 17.8911 6.91508 18.2849C7.3089 18.6788 7.84305 18.9 8.4 18.9C8.95695 18.9 9.4911 18.6788 9.88492 18.2849C10.2788 17.8911 10.5 17.357 10.5 16.8V10.5C10.5 9.94305 10.2788 9.4089 9.88492 9.01508C9.4911 8.62125 8.95695 8.4 8.4 8.4ZM29.4 0C30.5139 0 31.5822 0.442499 32.3699 1.23015C33.1575 2.0178 33.6 3.08609 33.6 4.2V23.1C33.6 24.2139 33.1575 25.2822 32.3699 26.0698C31.5822 26.8575 30.5139 27.3 29.4 27.3H4.2C3.1601 27.3002 2.1571 26.9147 1.38512 26.2179C0.613134 25.5212 0.127069 24.5629 0.021 23.5284L0 23.1V4.2C0 3.08609 0.442499 2.0178 1.23015 1.23015C2.0178 0.442499 3.08609 0 4.2 0H29.4ZM4.2 2.1C3.64305 2.1 3.1089 2.32125 2.71508 2.71508C2.32125 3.1089 2.1 3.64305 2.1 4.2V23.1C2.1 23.657 2.32125 24.1911 2.71508 24.5849C3.1089 24.9788 3.64305 25.2 4.2 25.2H15.75V2.1H4.2ZM17.85 25.2H25.2V18.0936C24.627 18.4434 24.0048 18.7053 23.3541 18.8706C23.0837 18.938 22.7976 18.8952 22.5587 18.7517C22.3199 18.6081 22.1478 18.3756 22.0805 18.1052C22.0131 17.8347 22.0558 17.5487 22.1994 17.3098C22.3429 17.0709 22.5755 16.8989 22.8459 16.8315C23.8419 16.5799 24.7257 16.0036 25.3575 15.1935L25.3764 15.1683C25.5014 14.9809 25.6833 14.8386 25.8954 14.7625C26.1074 14.6864 26.3383 14.6806 26.5539 14.7458C26.7696 14.811 26.9585 14.9438 27.0929 15.1246C27.2272 15.3055 27.2998 15.5247 27.3 15.75V25.2H29.4C29.957 25.2 30.4911 24.9788 30.8849 24.5849C31.2788 24.1911 31.5 23.657 31.5 23.1V4.2C31.5 3.64305 31.2788 3.1089 30.8849 2.71508C30.4911 2.32125 29.957 2.1 29.4 2.1V6.3C29.4 7.41391 28.9575 8.4822 28.1698 9.26985C27.3822 10.0575 26.3139 10.5 25.2 10.5C24.0861 10.5 23.0178 10.0575 22.2302 9.26985C21.4425 8.4822 21 7.41391 21 6.3V2.1H17.85V25.2ZM23.1 6.3C23.1 6.85696 23.3213 7.3911 23.7151 7.78492C24.1089 8.17875 24.643 8.4 25.2 8.4C25.757 8.4 26.2911 8.17875 26.6849 7.78492C27.0788 7.3911 27.3 6.85696 27.3 6.3V2.1H23.1V6.3Z" fill="#EA7509"/>
</svg>
