<svg width="65" height="65" viewBox="0 0 65 65" fill="none" xmlns="http://www.w3.org/2000/svg">
<path fill-rule="evenodd" clip-rule="evenodd" d="M10.8829 20.6836C12.0052 23.1276 10.9338 26.0188 8.48985 27.1411C6.04584 28.2635 3.1547 27.192 2.03235 24.7481C0.909981 22.3041 1.98138 19.4129 4.42539 18.2906C6.86936 17.1682 9.76052 18.2396 10.8829 20.6836Z" fill="#78DEFD" stroke="#E8F1F4" stroke-linecap="round" stroke-linejoin="round"/>
<path fill-rule="evenodd" clip-rule="evenodd" d="M45.0886 7.6543C46.7721 11.3203 45.165 15.657 41.499 17.3405C37.833 19.0241 33.4963 17.417 31.8127 13.751C30.1292 10.085 31.7363 5.74828 35.4023 4.06474C39.0683 2.38119 43.405 3.98828 45.0886 7.6543Z" fill="#78DEFD" stroke="#E8F1F4" stroke-linecap="round" stroke-linejoin="round"/>
<path fill-rule="evenodd" clip-rule="evenodd" d="M61.5267 37.6153C63.2102 41.2813 61.6031 45.618 57.9371 47.3015C54.2711 48.9851 49.9344 47.378 48.2509 43.712C46.5673 40.046 48.1744 35.7093 51.8404 34.0257C55.5064 32.3422 59.8431 33.9493 61.5267 37.6153Z" fill="#78DEFD" stroke="#E8F1F4" stroke-linecap="round" stroke-linejoin="round"/>
<path fill-rule="evenodd" clip-rule="evenodd" d="M35.6968 28.043C37.9416 32.9311 35.7988 38.7133 30.9107 40.958C26.0227 43.2028 20.2405 41.06 17.9957 36.1719C15.751 31.2839 17.8938 25.5017 22.7818 23.2569C27.6699 21.0122 33.4521 23.155 35.6968 28.043Z" fill="#78DEFD" stroke="#E8F1F4" stroke-linecap="round" stroke-linejoin="round"/>
<path fill-rule="evenodd" clip-rule="evenodd" d="M24.0925 49.4478C25.2148 51.8917 24.1434 54.7829 21.6994 55.9053C19.2554 57.0276 16.3643 55.9562 15.2419 53.5122C14.1196 51.0683 15.191 48.1771 17.635 47.0547C20.079 45.9324 22.9701 47.0038 24.0925 49.4478Z" fill="#78DEFD" stroke="#E8F1F4" stroke-linecap="round" stroke-linejoin="round"/>
<path d="M11.3008 24.5105L17.7583 26.9036L11.3008 24.5105Z" fill="#78DEFD"/>
<path d="M11.3008 24.5105L17.7583 26.9036" stroke="#E8F1F4" stroke-linecap="round" stroke-linejoin="round"/>
<path d="M22.0602 45.0224L23.2567 41.7937L22.0602 45.0224Z" fill="#78DEFD"/>
<path d="M22.0602 45.0224L23.2567 41.7937" stroke="#E8F1F4" stroke-linecap="round" stroke-linejoin="round"/>
<path d="M47.8781 38.5243L36.5323 35.6968L47.8781 38.5243Z" fill="#78DEFD"/>
<path d="M47.8781 38.5243L36.5323 35.6968" stroke="#E8F1F4" stroke-linecap="round" stroke-linejoin="round"/>
<path d="M34.9514 17.6683L32.5584 24.1257L34.9514 17.6683Z" fill="#78DEFD"/>
<path d="M34.9514 17.6683L32.5584 24.1257" stroke="#E8F1F4" stroke-linecap="round" stroke-linejoin="round"/>
</svg>
