<svg width="1084" height="995" viewBox="0 0 1084 995" fill="none" xmlns="http://www.w3.org/2000/svg">
<rect x="266.553" y="60.9629" width="866" height="933.26" rx="10" fill="#2C5E49"/>
<path d="M307.368 183.871C305.114 175.124 301.733 167.181 301.395 158.319C301.395 141.168 312.439 125.745 308.269 106.407C306.353 95.4726 301.395 84.768 293.958 76.5957C284.717 66.5818 272.885 63.1287 263.757 56.1075C252.939 48.6258 248.319 35.7343 241.445 24.7996C230.402 7.5342 207.301 -2.70996 187.806 0.62801C176.537 2.69985 165.494 7.53417 154.112 7.30397C142.731 7.53417 131.575 2.93007 120.306 0.858226C104.304 -1.78913 86.2742 5.00193 74.104 16.5122C66.2159 23.9938 62.2718 34.8135 56.6374 43.7915C48.6367 58.4095 32.4094 63.2439 20.0139 72.9125C7.28028 83.0415 -0.833322 102.264 0.0681703 119.414C0.518916 131.269 5.92795 141.974 7.73094 153.139C10.4354 171.671 -3.31242 188.821 1.19505 209.424C3.78685 224.387 12.2385 239.006 24.8595 247.063C31.0572 251.091 37.4806 254.084 43.3403 257.997C59.9052 267.896 61.7085 287.234 76.2451 300.816C86.9503 310.254 101.262 316.239 115.348 316.009H115.798C128.532 315.319 141.379 308.758 153.436 308.643C159.521 308.412 165.494 309.218 171.692 310.83C177.777 312.326 184.087 314.513 190.623 315.319C205.836 317.275 221.612 311.06 233.332 301.161C242.572 293.449 246.854 281.594 252.151 272.961C267.363 247.178 294.747 252.357 306.015 218.402C310.072 207.237 310.523 195.036 307.255 183.871H307.368Z" fill="#2C5E49"/>
<path d="M265.019 177.355C263.333 170.811 260.804 164.87 260.551 158.24C260.551 145.41 268.812 133.872 265.693 119.406C264.26 111.226 260.551 103.218 254.987 97.1045C248.075 89.6133 239.223 87.0301 232.395 81.7777C224.302 76.1808 220.846 66.5369 215.704 58.3569C207.442 45.4411 190.161 37.7776 175.577 40.2747C167.147 41.8246 158.886 45.441 150.372 45.2688C141.858 45.441 133.512 41.9968 125.082 40.4469C113.112 38.4665 99.6236 43.5467 90.5194 52.1573C84.6185 57.7541 81.6679 65.8481 77.453 72.5644C71.4678 83.4997 59.3286 87.1162 50.0558 94.3491C40.53 101.926 34.4604 116.306 35.1348 129.136C35.472 138.005 39.5184 146.013 40.8672 154.365C42.8903 168.228 32.6059 181.058 35.9778 196.47C37.9167 207.664 44.2392 218.6 53.6806 224.627C58.3171 227.641 63.1222 229.88 67.5057 232.807C79.8976 240.212 81.2466 254.678 92.1211 264.838C100.129 271.899 110.836 276.377 121.373 276.204H121.71C131.236 275.688 140.846 270.78 149.866 270.694C154.418 270.521 158.886 271.124 163.522 272.33C168.075 273.449 172.795 275.085 177.685 275.688C189.065 277.152 200.867 272.502 209.634 265.097C216.547 259.328 219.75 250.459 223.712 244.001C235.092 224.713 255.577 228.588 264.007 203.187C267.042 194.834 267.379 185.707 264.934 177.355H265.019Z" fill="white"/>
<path d="M256.679 175.941C255.116 169.875 252.772 164.367 252.537 158.222C252.537 146.329 260.195 135.633 257.304 122.224C255.976 114.641 252.537 107.218 247.38 101.551C240.972 94.6073 232.767 92.2128 226.438 87.344C218.936 82.1559 215.732 73.2163 210.966 65.6337C203.308 53.6612 187.288 46.5574 173.77 48.8721C165.955 50.3088 158.298 53.6612 150.405 53.5015C142.513 53.6612 134.777 50.4685 126.962 49.0318C115.866 47.196 103.363 51.9052 94.924 59.8869C89.454 65.075 86.719 72.5778 82.8119 78.8035C77.2638 88.9403 66.0113 92.2926 57.4156 98.9973C48.5855 106.021 42.9592 119.351 43.5844 131.243C43.897 139.465 47.6478 146.888 48.8981 154.63C50.7735 167.48 41.2401 179.373 44.3658 193.66C46.1631 204.037 52.0238 214.173 60.7757 219.76C65.0736 222.554 69.5277 224.629 73.5911 227.343C85.078 234.207 86.3283 247.617 96.4087 257.035C103.832 263.58 113.756 267.731 123.524 267.571H123.837C132.667 267.092 141.575 262.542 149.936 262.463C154.156 262.303 158.298 262.862 162.595 263.979C166.815 265.017 171.191 266.533 175.723 267.092C186.273 268.449 197.212 264.139 205.339 257.275C211.747 251.927 214.716 243.706 218.389 237.719C228.938 219.84 247.927 223.432 255.741 199.886C258.554 192.144 258.867 183.683 256.601 175.941H256.679ZM181.115 103.228C183.225 103.228 185.335 103.706 187.288 104.505L186.429 108.416C186.116 109.773 185.726 110.97 185.1 111.928C184.475 112.885 183.928 113.364 183.381 113.364H173.692C173.145 113.364 172.598 113.843 171.972 114.801C171.347 115.759 170.878 116.956 170.644 118.313L166.19 138.108C166.034 138.986 165.877 139.864 165.877 140.582C165.877 142.258 166.268 143.056 166.971 143.056H180.568C181.35 143.056 181.662 143.854 181.662 145.531C181.662 147.207 181.584 147.127 181.35 148.005L179.083 157.902C178.771 159.259 178.302 160.456 177.755 161.414C177.13 162.372 176.583 162.851 176.114 162.851C175.333 162.851 175.02 162.053 175.02 160.377C175.02 158.7 175.098 158.78 175.333 157.902L176.427 152.954C176.583 152.076 176.739 151.198 176.739 150.479C176.739 148.803 176.348 148.005 175.645 148.005H165.955C165.409 148.005 164.861 148.484 164.236 149.442C163.611 150.399 163.142 151.597 162.908 152.954L161.033 161.255C158.61 155.348 157.204 148.404 157.204 140.901C157.204 120.069 167.909 103.148 181.193 103.148L181.115 103.228ZM135.792 133.159C136.339 133.159 136.886 132.68 137.512 131.722C138.137 130.764 138.527 129.567 138.918 128.21L140.715 120.308C143.216 126.215 144.623 133.319 144.623 140.981C144.623 161.813 133.917 178.735 120.633 178.735C107.349 178.735 116.257 178.256 114.225 177.378L115.241 172.828C115.554 171.471 116.022 170.274 116.648 169.316C117.273 168.358 117.82 167.879 118.367 167.879H128.056C128.603 167.879 129.15 167.4 129.776 166.443C130.401 165.485 130.791 164.288 131.182 162.931L135.636 143.136C135.871 142.258 135.949 141.38 135.949 140.662C135.949 138.986 135.558 138.187 134.855 138.187H121.258C120.555 138.187 120.164 137.389 120.164 135.713C120.164 134.037 120.242 134.117 120.477 133.239L122.665 123.341C122.977 121.985 123.446 120.787 123.993 119.83C124.618 118.872 125.165 118.393 125.712 118.393C126.259 118.393 126.806 119.191 126.806 120.867C126.806 122.543 126.728 122.463 126.494 123.341L125.4 128.29C125.165 129.168 125.087 130.046 125.087 130.764C125.087 132.441 125.478 133.239 126.181 133.239H135.871L135.792 133.159ZM120.555 103.228C122.665 103.228 124.774 103.706 126.728 104.505L125.868 108.416C125.556 109.773 125.165 110.97 124.54 111.928C123.915 112.885 123.368 113.364 122.821 113.364H113.131C112.584 113.364 112.037 113.843 111.412 114.801C110.787 115.759 110.318 116.956 110.084 118.313L105.629 138.108C105.473 138.986 105.317 139.864 105.317 140.582C105.317 142.258 105.708 143.056 106.411 143.056H120.008C120.789 143.056 121.102 143.854 121.102 145.531C121.102 147.207 121.024 147.127 120.789 148.005L118.523 157.902C118.21 159.259 117.742 160.456 117.195 161.414C116.569 162.372 116.022 162.851 115.554 162.851C114.772 162.851 114.46 162.053 114.46 160.377C114.46 158.7 114.538 158.78 114.772 157.902L115.866 152.954C116.022 152.076 116.179 151.198 116.179 150.479C116.179 148.803 115.788 148.005 115.085 148.005H105.395C104.848 148.005 104.301 148.484 103.676 149.442C103.051 150.399 102.582 151.597 102.348 152.954L100.472 161.255C98.0497 155.348 96.6431 148.404 96.6431 140.901C96.6431 120.069 107.349 103.148 120.633 103.148L120.555 103.228ZM107.817 207.628C103.754 204.675 99.9251 201.243 97.0338 197.092C113.756 205.633 132.276 209.704 150.796 209.783C169.394 209.783 187.757 204.994 204.636 197.092C181.662 224.869 136.261 228.301 107.817 207.628ZM181.115 178.655C178.927 178.655 176.739 178.176 174.707 177.298L175.723 172.748C176.036 171.391 176.505 170.194 177.13 169.236C177.755 168.278 178.302 167.8 178.849 167.8H188.539C189.086 167.8 189.633 167.321 190.258 166.363C190.883 165.405 191.274 164.208 191.664 162.851L196.118 143.056C196.353 142.178 196.431 141.3 196.431 140.582C196.431 138.906 196.04 138.108 195.337 138.108H181.74C181.037 138.108 180.646 137.309 180.646 135.633C180.646 133.957 180.724 134.037 180.959 133.159L183.147 123.262C183.459 121.905 183.928 120.708 184.475 119.75C185.1 118.792 185.647 118.313 186.194 118.313C186.741 118.313 187.288 119.111 187.288 120.787C187.288 122.463 187.21 122.384 186.976 123.262L185.882 128.21C185.647 129.088 185.569 129.966 185.569 130.685C185.569 132.361 185.96 133.159 186.663 133.159H196.353C196.9 133.159 197.447 132.68 198.072 131.722C198.697 130.764 199.088 129.567 199.479 128.21L201.276 120.308C203.776 126.215 205.183 133.319 205.183 140.981C205.183 161.813 194.478 178.735 181.193 178.735L181.115 178.655Z" fill="#2C5E49"/>
<g style="mix-blend-mode:hard-light" opacity="0.6">
<path d="M256.679 175.941C255.116 169.875 252.772 164.367 252.537 158.222C252.537 146.329 260.195 135.633 257.304 122.224C255.976 114.641 252.537 107.218 247.38 101.551C240.972 94.6073 232.767 92.2128 226.438 87.344C218.936 82.1559 215.732 73.2163 210.966 65.6337C203.308 53.6612 187.288 46.5574 173.77 48.8721C165.955 50.3088 158.298 53.6612 150.405 53.5015C142.513 53.6612 134.777 50.4685 126.962 49.0318C115.866 47.196 103.363 51.9052 94.924 59.8869C89.454 65.075 86.719 72.5778 82.8119 78.8035C77.2638 88.9403 66.0113 92.2926 57.4156 98.9973C48.5855 106.021 42.9592 119.351 43.5844 131.243C43.897 139.465 47.6478 146.888 48.8981 154.63C50.7735 167.48 41.2401 179.373 44.3658 193.66C46.1631 204.037 52.0238 214.173 60.7757 219.76C65.0736 222.554 69.5277 224.629 73.5911 227.343C85.078 234.207 86.3283 247.617 96.4087 257.035C103.832 263.58 113.756 267.731 123.524 267.571H123.837C132.667 267.092 141.575 262.542 149.936 262.463C154.156 262.303 158.298 262.862 162.595 263.979C166.815 265.017 171.191 266.533 175.723 267.092C186.273 268.449 197.212 264.139 205.339 257.275C211.747 251.927 214.716 243.706 218.389 237.719C228.938 219.84 247.927 223.432 255.741 199.886C258.554 192.144 258.867 183.683 256.601 175.941H256.679ZM181.115 103.228C183.225 103.228 185.335 103.706 187.288 104.505L186.429 108.416C186.116 109.773 185.726 110.97 185.1 111.928C184.475 112.885 183.928 113.364 183.381 113.364H173.692C173.145 113.364 172.598 113.843 171.972 114.801C171.347 115.759 170.878 116.956 170.644 118.313L166.19 138.108C166.034 138.986 165.877 139.864 165.877 140.582C165.877 142.258 166.268 143.056 166.971 143.056H180.568C181.35 143.056 181.662 143.854 181.662 145.531C181.662 147.207 181.584 147.127 181.35 148.005L179.083 157.902C178.771 159.259 178.302 160.456 177.755 161.414C177.13 162.372 176.583 162.851 176.114 162.851C175.333 162.851 175.02 162.053 175.02 160.377C175.02 158.7 175.098 158.78 175.333 157.902L176.427 152.954C176.583 152.076 176.739 151.198 176.739 150.479C176.739 148.803 176.348 148.005 175.645 148.005H165.955C165.409 148.005 164.861 148.484 164.236 149.442C163.611 150.399 163.142 151.597 162.908 152.954L161.033 161.255C158.61 155.348 157.204 148.404 157.204 140.901C157.204 120.069 167.909 103.148 181.193 103.148L181.115 103.228ZM135.792 133.159C136.339 133.159 136.886 132.68 137.512 131.722C138.137 130.764 138.527 129.567 138.918 128.21L140.715 120.308C143.216 126.215 144.623 133.319 144.623 140.981C144.623 161.813 133.917 178.735 120.633 178.735C107.349 178.735 116.257 178.256 114.225 177.378L115.241 172.828C115.554 171.471 116.022 170.274 116.648 169.316C117.273 168.358 117.82 167.879 118.367 167.879H128.056C128.603 167.879 129.15 167.4 129.776 166.443C130.401 165.485 130.791 164.288 131.182 162.931L135.636 143.136C135.871 142.258 135.949 141.38 135.949 140.662C135.949 138.986 135.558 138.187 134.855 138.187H121.258C120.555 138.187 120.164 137.389 120.164 135.713C120.164 134.037 120.242 134.117 120.477 133.239L122.665 123.341C122.977 121.985 123.446 120.787 123.993 119.83C124.618 118.872 125.165 118.393 125.712 118.393C126.259 118.393 126.806 119.191 126.806 120.867C126.806 122.543 126.728 122.463 126.494 123.341L125.4 128.29C125.165 129.168 125.087 130.046 125.087 130.764C125.087 132.441 125.478 133.239 126.181 133.239H135.871L135.792 133.159ZM120.555 103.228C122.665 103.228 124.774 103.706 126.728 104.505L125.868 108.416C125.556 109.773 125.165 110.97 124.54 111.928C123.915 112.885 123.368 113.364 122.821 113.364H113.131C112.584 113.364 112.037 113.843 111.412 114.801C110.787 115.759 110.318 116.956 110.084 118.313L105.629 138.108C105.473 138.986 105.317 139.864 105.317 140.582C105.317 142.258 105.708 143.056 106.411 143.056H120.008C120.789 143.056 121.102 143.854 121.102 145.531C121.102 147.207 121.024 147.127 120.789 148.005L118.523 157.902C118.21 159.259 117.742 160.456 117.195 161.414C116.569 162.372 116.022 162.851 115.554 162.851C114.772 162.851 114.46 162.053 114.46 160.377C114.46 158.7 114.538 158.78 114.772 157.902L115.866 152.954C116.022 152.076 116.179 151.198 116.179 150.479C116.179 148.803 115.788 148.005 115.085 148.005H105.395C104.848 148.005 104.301 148.484 103.676 149.442C103.051 150.399 102.582 151.597 102.348 152.954L100.472 161.255C98.0497 155.348 96.6431 148.404 96.6431 140.901C96.6431 120.069 107.349 103.148 120.633 103.148L120.555 103.228ZM107.817 207.628C103.754 204.675 99.9251 201.243 97.0338 197.092C113.756 205.633 132.276 209.704 150.796 209.783C169.394 209.783 187.757 204.994 204.636 197.092C181.662 224.869 136.261 228.301 107.817 207.628ZM181.115 178.655C178.927 178.655 176.739 178.176 174.707 177.298L175.723 172.748C176.036 171.391 176.505 170.194 177.13 169.236C177.755 168.278 178.302 167.8 178.849 167.8H188.539C189.086 167.8 189.633 167.321 190.258 166.363C190.883 165.405 191.274 164.208 191.664 162.851L196.118 143.056C196.353 142.178 196.431 141.3 196.431 140.582C196.431 138.906 196.04 138.108 195.337 138.108H181.74C181.037 138.108 180.646 137.309 180.646 135.633C180.646 133.957 180.724 134.037 180.959 133.159L183.147 123.262C183.459 121.905 183.928 120.708 184.475 119.75C185.1 118.792 185.647 118.313 186.194 118.313C186.741 118.313 187.288 119.111 187.288 120.787C187.288 122.463 187.21 122.384 186.976 123.262L185.882 128.21C185.647 129.088 185.569 129.966 185.569 130.685C185.569 132.361 185.96 133.159 186.663 133.159H196.353C196.9 133.159 197.447 132.68 198.072 131.722C198.697 130.764 199.088 129.567 199.479 128.21L201.276 120.308C203.776 126.215 205.183 133.319 205.183 140.981C205.183 161.813 194.478 178.735 181.193 178.735L181.115 178.655Z" fill="#2C5E49"/>
</g>
</svg>
