<svg width="267" height="272" viewBox="0 0 267 272" fill="none" xmlns="http://www.w3.org/2000/svg">
<g filter="url(#filter0_d_193_4673)">
<path d="M252.335 157.95C250.649 151.406 248.12 145.465 247.867 138.835C247.867 126.005 256.128 114.467 253.009 100.001C251.576 91.821 247.867 83.8131 242.303 77.6996C235.391 70.2084 226.539 67.6252 219.711 62.3728C211.618 56.776 208.162 47.1321 203.02 38.9521C194.759 26.0362 177.477 18.3728 162.893 20.8699C154.464 22.4198 146.202 26.0362 137.688 25.864C129.174 26.0362 120.828 22.592 112.398 21.0421C100.428 19.0616 86.9398 24.1419 77.8355 32.7524C71.9346 38.3493 68.9841 46.4433 64.7692 53.1595C58.784 64.0949 46.6448 67.7114 37.3719 74.9443C27.8462 82.5215 21.7766 96.9012 22.451 109.731C22.7882 118.6 26.8346 126.608 28.1833 134.96C30.2065 148.823 19.922 161.653 23.294 177.066C25.2328 188.259 31.5553 199.195 40.9968 205.222C45.6332 208.236 50.4383 210.475 54.8219 213.402C67.2138 220.807 68.5627 235.273 79.4372 245.434C87.4456 252.494 98.1517 256.972 108.689 256.8H109.026C118.552 256.283 128.162 251.375 137.182 251.289C141.734 251.117 146.202 251.719 150.839 252.925C155.391 254.044 160.112 255.68 165.001 256.283C176.381 257.747 188.183 253.097 196.95 245.692C203.863 239.923 207.066 231.054 211.028 224.596C222.409 205.308 242.893 209.183 251.323 183.782C254.358 175.43 254.695 166.302 252.251 157.95H252.335Z" fill="white"/>
<path d="M243.995 156.536C242.432 150.47 240.088 144.963 239.853 138.817C239.853 126.924 247.511 116.229 244.62 102.819C243.292 95.2366 239.853 87.8136 234.696 82.1466C228.288 75.2025 220.083 72.808 213.754 67.9392C206.252 62.7511 203.048 53.8116 198.281 46.2289C190.624 34.2564 174.604 27.1527 161.086 29.4674C153.271 30.9041 145.613 34.2564 137.721 34.0967C129.829 34.2564 122.093 31.0637 114.278 29.627C103.182 27.7912 90.6793 32.5004 82.2399 40.4821C76.7699 45.6702 74.0349 53.173 70.1278 59.3988C64.5797 69.5355 53.3272 72.8878 44.7315 79.5925C35.9014 86.6164 30.2752 99.9458 30.9003 111.839C31.2129 120.06 34.9637 127.483 36.214 135.225C38.0894 148.076 28.556 159.968 31.6817 174.256C33.479 184.632 39.3397 194.769 48.0916 200.356C52.3895 203.149 56.8436 205.225 60.907 207.938C72.394 214.803 73.6442 228.212 83.7246 237.63C91.1481 244.175 101.072 248.326 110.84 248.166H111.153C119.983 247.687 128.891 243.138 137.252 243.058C141.472 242.898 145.613 243.457 149.911 244.574C154.131 245.612 158.507 247.129 163.039 247.687C173.588 249.044 184.528 244.734 192.655 237.87C199.063 232.522 202.032 224.301 205.705 218.315C216.254 200.436 235.243 204.027 243.057 180.481C245.87 172.739 246.183 164.278 243.917 156.536H243.995ZM168.431 83.8228C170.541 83.8228 172.651 84.3017 174.604 85.0998L173.745 89.0109C173.432 90.3678 173.041 91.565 172.416 92.5228C171.791 93.4806 171.244 93.9595 170.697 93.9595H161.008C160.461 93.9595 159.914 94.4385 159.288 95.3963C158.663 96.3541 158.194 97.5513 157.96 98.9082L153.506 118.703C153.35 119.581 153.193 120.459 153.193 121.177C153.193 122.853 153.584 123.651 154.287 123.651H167.884C168.665 123.651 168.978 124.45 168.978 126.126C168.978 127.802 168.9 127.722 168.665 128.6L166.399 138.497C166.087 139.854 165.618 141.052 165.071 142.009C164.446 142.967 163.899 143.446 163.43 143.446C162.649 143.446 162.336 142.648 162.336 140.972C162.336 139.296 162.414 139.375 162.649 138.497L163.743 133.549C163.899 132.671 164.055 131.793 164.055 131.074C164.055 129.398 163.664 128.6 162.961 128.6H153.271C152.724 128.6 152.177 129.079 151.552 130.037C150.927 130.995 150.458 132.192 150.224 133.549L148.348 141.85C145.926 135.943 144.519 128.999 144.519 121.496C144.519 100.664 155.225 83.743 168.509 83.743L168.431 83.8228ZM123.108 113.754C123.655 113.754 124.202 113.275 124.828 112.317C125.453 111.36 125.843 110.162 126.234 108.806L128.031 100.904C130.532 106.81 131.939 113.914 131.939 121.576C131.939 142.409 121.233 159.33 107.949 159.33C94.6646 159.33 103.573 158.851 101.541 157.973L102.557 153.423C102.87 152.066 103.338 150.869 103.964 149.911C104.589 148.954 105.136 148.475 105.683 148.475H115.372C115.919 148.475 116.466 147.996 117.091 147.038C117.717 146.08 118.107 144.883 118.498 143.526L122.952 123.731C123.187 122.853 123.265 121.975 123.265 121.257C123.265 119.581 122.874 118.783 122.171 118.783H108.574C107.871 118.783 107.48 117.984 107.48 116.308C107.48 114.632 107.558 114.712 107.792 113.834L109.98 103.937C110.293 102.58 110.762 101.383 111.309 100.425C111.934 99.4669 112.481 98.988 113.028 98.988C113.575 98.988 114.122 99.7862 114.122 101.462C114.122 103.139 114.044 103.059 113.809 103.937L112.715 108.885C112.481 109.763 112.403 110.641 112.403 111.36C112.403 113.036 112.794 113.834 113.497 113.834H123.187L123.108 113.754ZM107.871 83.8228C109.98 83.8228 112.09 84.3017 114.044 85.0998L113.184 89.0109C112.872 90.3678 112.481 91.565 111.856 92.5228C111.231 93.4806 110.684 93.9595 110.137 93.9595H100.447C99.9001 93.9595 99.3531 94.4385 98.728 95.3963C98.1028 96.3541 97.634 97.5513 97.3995 98.9082L92.9454 118.703C92.7891 119.581 92.6328 120.459 92.6328 121.177C92.6328 122.853 93.0236 123.651 93.7268 123.651H107.324C108.105 123.651 108.418 124.45 108.418 126.126C108.418 127.802 108.339 127.722 108.105 128.6L105.839 138.497C105.526 139.854 105.058 141.052 104.511 142.009C103.885 142.967 103.338 143.446 102.87 143.446C102.088 143.446 101.776 142.648 101.776 140.972C101.776 139.296 101.854 139.375 102.088 138.497L103.182 133.549C103.338 132.671 103.495 131.793 103.495 131.074C103.495 129.398 103.104 128.6 102.401 128.6H92.711C92.164 128.6 91.617 129.079 90.9919 130.037C90.3667 130.995 89.8979 132.192 89.6634 133.549L87.788 141.85C85.3656 135.943 83.959 128.999 83.959 121.496C83.959 100.664 94.6646 83.743 107.949 83.743L107.871 83.8228ZM95.1334 188.224C91.07 185.27 87.241 181.838 84.3497 177.688C101.072 186.228 119.592 190.299 138.112 190.379C156.71 190.379 175.073 185.59 191.952 177.688C168.978 205.464 123.577 208.896 95.1334 188.224ZM168.431 159.25C166.243 159.25 164.055 158.771 162.023 157.893L163.039 153.343C163.352 151.987 163.821 150.789 164.446 149.831C165.071 148.874 165.618 148.395 166.165 148.395H175.855C176.402 148.395 176.949 147.916 177.574 146.958C178.199 146 178.59 144.803 178.98 143.446L183.434 123.651C183.669 122.774 183.747 121.896 183.747 121.177C183.747 119.501 183.356 118.703 182.653 118.703H169.056C168.353 118.703 167.962 117.905 167.962 116.229C167.962 114.552 168.04 114.632 168.275 113.754L170.463 103.857C170.775 102.5 171.244 101.303 171.791 100.345C172.416 99.3871 172.963 98.9082 173.51 98.9082C174.057 98.9082 174.604 99.7064 174.604 101.383C174.604 103.059 174.526 102.979 174.292 103.857L173.198 108.806C172.963 109.684 172.885 110.561 172.885 111.28C172.885 112.956 173.276 113.754 173.979 113.754H183.669C184.216 113.754 184.763 113.275 185.388 112.317C186.013 111.36 186.404 110.162 186.795 108.806L188.592 100.904C191.092 106.81 192.499 113.914 192.499 121.576C192.499 142.409 181.793 159.33 168.509 159.33L168.431 159.25Z" fill="#2C5E49"/>
<g style="mix-blend-mode:hard-light" opacity="0.6">
<path d="M243.995 156.536C242.432 150.47 240.088 144.963 239.853 138.817C239.853 126.924 247.511 116.229 244.62 102.819C243.292 95.2366 239.853 87.8136 234.696 82.1466C228.288 75.2025 220.083 72.808 213.754 67.9392C206.252 62.7511 203.048 53.8116 198.281 46.2289C190.624 34.2564 174.604 27.1527 161.086 29.4674C153.271 30.9041 145.613 34.2564 137.721 34.0967C129.829 34.2564 122.093 31.0637 114.278 29.627C103.182 27.7912 90.6793 32.5004 82.2399 40.4821C76.7699 45.6702 74.0349 53.173 70.1278 59.3988C64.5797 69.5355 53.3272 72.8878 44.7315 79.5925C35.9014 86.6164 30.2752 99.9458 30.9003 111.839C31.2129 120.06 34.9637 127.483 36.214 135.225C38.0894 148.076 28.556 159.968 31.6817 174.256C33.479 184.632 39.3397 194.769 48.0916 200.356C52.3895 203.149 56.8436 205.225 60.907 207.938C72.394 214.803 73.6442 228.212 83.7246 237.63C91.1481 244.175 101.072 248.326 110.84 248.166H111.153C119.983 247.687 128.891 243.138 137.252 243.058C141.472 242.898 145.613 243.457 149.911 244.574C154.131 245.612 158.507 247.129 163.039 247.687C173.588 249.044 184.528 244.734 192.655 237.87C199.063 232.522 202.032 224.301 205.705 218.315C216.254 200.436 235.243 204.027 243.057 180.481C245.87 172.739 246.183 164.278 243.917 156.536H243.995ZM168.431 83.8228C170.541 83.8228 172.651 84.3017 174.604 85.0998L173.745 89.0109C173.432 90.3678 173.041 91.565 172.416 92.5228C171.791 93.4806 171.244 93.9595 170.697 93.9595H161.008C160.461 93.9595 159.914 94.4385 159.288 95.3963C158.663 96.3541 158.194 97.5513 157.96 98.9082L153.506 118.703C153.35 119.581 153.193 120.459 153.193 121.177C153.193 122.853 153.584 123.651 154.287 123.651H167.884C168.665 123.651 168.978 124.45 168.978 126.126C168.978 127.802 168.9 127.722 168.665 128.6L166.399 138.497C166.087 139.854 165.618 141.052 165.071 142.009C164.446 142.967 163.899 143.446 163.43 143.446C162.649 143.446 162.336 142.648 162.336 140.972C162.336 139.296 162.414 139.375 162.649 138.497L163.743 133.549C163.899 132.671 164.055 131.793 164.055 131.074C164.055 129.398 163.664 128.6 162.961 128.6H153.271C152.724 128.6 152.177 129.079 151.552 130.037C150.927 130.995 150.458 132.192 150.224 133.549L148.348 141.85C145.926 135.943 144.519 128.999 144.519 121.496C144.519 100.664 155.225 83.743 168.509 83.743L168.431 83.8228ZM123.108 113.754C123.655 113.754 124.202 113.275 124.828 112.317C125.453 111.36 125.843 110.162 126.234 108.806L128.031 100.904C130.532 106.81 131.939 113.914 131.939 121.576C131.939 142.409 121.233 159.33 107.949 159.33C94.6646 159.33 103.573 158.851 101.541 157.973L102.557 153.423C102.87 152.066 103.338 150.869 103.964 149.911C104.589 148.954 105.136 148.475 105.683 148.475H115.372C115.919 148.475 116.466 147.996 117.091 147.038C117.717 146.08 118.107 144.883 118.498 143.526L122.952 123.731C123.187 122.853 123.265 121.975 123.265 121.257C123.265 119.581 122.874 118.783 122.171 118.783H108.574C107.871 118.783 107.48 117.984 107.48 116.308C107.48 114.632 107.558 114.712 107.792 113.834L109.98 103.937C110.293 102.58 110.762 101.383 111.309 100.425C111.934 99.4669 112.481 98.988 113.028 98.988C113.575 98.988 114.122 99.7862 114.122 101.462C114.122 103.139 114.044 103.059 113.809 103.937L112.715 108.885C112.481 109.763 112.403 110.641 112.403 111.36C112.403 113.036 112.794 113.834 113.497 113.834H123.187L123.108 113.754ZM107.871 83.8228C109.98 83.8228 112.09 84.3017 114.044 85.0998L113.184 89.0109C112.872 90.3678 112.481 91.565 111.856 92.5228C111.231 93.4806 110.684 93.9595 110.137 93.9595H100.447C99.9001 93.9595 99.3531 94.4385 98.728 95.3963C98.1028 96.3541 97.634 97.5513 97.3995 98.9082L92.9454 118.703C92.7891 119.581 92.6328 120.459 92.6328 121.177C92.6328 122.853 93.0236 123.651 93.7268 123.651H107.324C108.105 123.651 108.418 124.45 108.418 126.126C108.418 127.802 108.339 127.722 108.105 128.6L105.839 138.497C105.526 139.854 105.058 141.052 104.511 142.009C103.885 142.967 103.338 143.446 102.87 143.446C102.088 143.446 101.776 142.648 101.776 140.972C101.776 139.296 101.854 139.375 102.088 138.497L103.182 133.549C103.338 132.671 103.495 131.793 103.495 131.074C103.495 129.398 103.104 128.6 102.401 128.6H92.711C92.164 128.6 91.617 129.079 90.9919 130.037C90.3667 130.995 89.8979 132.192 89.6634 133.549L87.788 141.85C85.3656 135.943 83.959 128.999 83.959 121.496C83.959 100.664 94.6646 83.743 107.949 83.743L107.871 83.8228ZM95.1334 188.224C91.07 185.27 87.241 181.838 84.3497 177.688C101.072 186.228 119.592 190.299 138.112 190.379C156.71 190.379 175.073 185.59 191.952 177.688C168.978 205.464 123.577 208.896 95.1334 188.224ZM168.431 159.25C166.243 159.25 164.055 158.771 162.023 157.893L163.039 153.343C163.352 151.987 163.821 150.789 164.446 149.831C165.071 148.874 165.618 148.395 166.165 148.395H175.855C176.402 148.395 176.949 147.916 177.574 146.958C178.199 146 178.59 144.803 178.98 143.446L183.434 123.651C183.669 122.774 183.747 121.896 183.747 121.177C183.747 119.501 183.356 118.703 182.653 118.703H169.056C168.353 118.703 167.962 117.905 167.962 116.229C167.962 114.552 168.04 114.632 168.275 113.754L170.463 103.857C170.775 102.5 171.244 101.303 171.791 100.345C172.416 99.3871 172.963 98.9082 173.51 98.9082C174.057 98.9082 174.604 99.7064 174.604 101.383C174.604 103.059 174.526 102.979 174.292 103.857L173.198 108.806C172.963 109.684 172.885 110.561 172.885 111.28C172.885 112.956 173.276 113.754 173.979 113.754H183.669C184.216 113.754 184.763 113.275 185.388 112.317C186.013 111.36 186.404 110.162 186.795 108.806L188.592 100.904C191.092 106.81 192.499 113.914 192.499 121.576C192.499 142.409 181.793 159.33 168.509 159.33L168.431 159.25Z" fill="#2C5E49"/>
</g>
</g>
<defs>
<filter id="filter0_d_193_4673" x="-9.72748e-05" y="2.47955e-05" width="266.269" height="271.204" filterUnits="userSpaceOnUse" color-interpolation-filters="sRGB">
<feFlood flood-opacity="0" result="BackgroundImageFix"/>
<feColorMatrix in="SourceAlpha" type="matrix" values="0 0 0 0 0 0 0 0 0 0 0 0 0 0 0 0 0 0 127 0" result="hardAlpha"/>
<feOffset dx="-5" dy="-3"/>
<feGaussianBlur stdDeviation="8.7"/>
<feComposite in2="hardAlpha" operator="out"/>
<feColorMatrix type="matrix" values="0 0 0 0 0.00989192 0 0 0 0 0.159856 0 0 0 0 0.0498823 0 0 0 1 0"/>
<feBlend mode="normal" in2="BackgroundImageFix" result="effect1_dropShadow_193_4673"/>
<feBlend mode="normal" in="SourceGraphic" in2="effect1_dropShadow_193_4673" result="shape"/>
</filter>
</defs>
</svg>
