<svg width="348" height="198" viewBox="0 0 348 198" fill="none" xmlns="http://www.w3.org/2000/svg">
<path d="M238.185 141.791L237.698 141.791L237.698 138.622C237.698 137.371 237.674 136.124 237.626 134.885L238.112 134.867C238.015 132.348 237.819 129.853 237.53 127.388L237.048 127.443C236.756 124.956 236.369 122.497 235.89 120.072L236.365 119.979C235.877 117.511 235.295 115.077 234.62 112.682L234.152 112.812C233.475 110.407 232.706 108.041 231.849 105.717L232.304 105.549C231.434 103.193 230.474 100.882 229.429 98.6182L228.988 98.8203C227.942 96.5554 226.81 94.3383 225.596 92.1738L226.019 91.9365C224.792 89.7513 223.482 87.6196 222.093 85.5449L221.689 85.8145C220.303 83.7438 218.838 81.7297 217.298 79.7783L217.679 79.4785C216.128 77.5141 214.501 75.6127 212.804 73.7773L212.448 74.1055C210.758 72.2783 208.997 70.518 207.17 68.8281L207.499 68.4727C205.664 66.7753 203.762 65.1484 201.798 63.5977L201.497 63.9775C199.546 62.4372 197.532 60.9722 195.462 59.5859L195.731 59.1836C193.657 57.7946 191.525 56.4842 189.34 55.2578L189.102 55.6807C186.937 54.4659 184.72 53.3331 182.455 52.2871L182.658 51.8477C180.394 50.8022 178.083 49.8419 175.728 48.9727L175.56 49.4277C173.236 48.5701 170.868 47.8002 168.463 47.123L168.595 46.6572C166.199 45.9828 163.765 45.4004 161.297 44.9121L161.203 45.3857C158.778 44.906 156.32 44.519 153.832 44.2275L153.889 43.7461C151.423 43.4572 148.929 43.2615 146.409 43.1641L146.391 43.6494C145.151 43.6015 143.905 43.5771 142.653 43.5771L138.819 43.5771L138.819 43.0908L131.152 43.0908L131.152 43.5771L123.485 43.5771L123.485 43.0908L115.817 43.0908L115.817 43.5771L108.15 43.5771L108.15 43.0908L100.482 43.0908L100.482 43.5771L92.8154 43.5771L92.8154 43.0908L85.1484 43.0908L85.1484 43.5771L77.4805 43.5771L77.4805 43.0908L69.8135 43.0908L69.8135 43.5771L62.1455 43.5771L62.1455 43.0908L54.4785 43.0908L54.4785 43.5771L46.8115 43.5771L46.8115 43.0908L39.1436 43.0908L39.1436 43.5771L31.4766 43.5771L31.4766 43.0908L23.8086 43.0908L23.8086 43.5771L20.4619 43.5771L20.4619 47.5019L19.9756 47.5019L19.9756 56.3242L20.4619 56.3242L20.4619 60.7353C20.4619 62.0883 20.4873 63.4352 20.5391 64.7754L20.0547 64.7939C20.16 67.5167 20.3714 70.2122 20.6836 72.8769L21.165 72.8203C21.4801 75.5094 21.8984 78.1667 22.417 80.7881L21.9424 80.8828C22.47 83.5497 23.0994 86.1798 23.8281 88.7685L24.2949 88.6377C25.0269 91.2379 25.859 93.7964 26.7861 96.3086L26.3311 96.4766C27.2705 99.0221 28.3077 101.52 29.4375 103.967L29.877 103.763C31.0078 106.212 32.2326 108.609 33.5459 110.949L33.124 111.187C34.4495 113.548 35.865 115.852 37.3662 118.095L37.7676 117.824C39.2662 120.063 40.8504 122.239 42.5156 124.349L42.1357 124.649C43.8116 126.772 45.5699 128.827 47.4043 130.811L47.7588 130.481C49.5856 132.457 51.4895 134.361 53.4648 136.187L53.1357 136.544C55.119 138.378 57.1741 140.136 59.2969 141.812L59.5977 141.43C61.7072 143.095 63.8835 144.68 66.1221 146.179L65.8525 146.581C68.0949 148.082 70.3988 149.499 72.7607 150.824L72.9971 150.4C75.3371 151.714 77.7339 152.938 80.1826 154.068L79.9805 154.509C82.4271 155.639 84.9252 156.676 87.4707 157.615L87.6377 157.16C90.15 158.087 92.7083 158.919 95.3086 159.651L95.1777 160.118C97.7668 160.847 100.397 161.476 103.064 162.004L103.157 161.529C105.779 162.048 108.437 162.466 111.126 162.781L111.07 163.264C113.735 163.576 116.43 163.786 119.152 163.892L119.171 163.406C120.176 163.445 121.185 163.47 122.197 163.479L123.211 163.484L127.317 163.484L127.317 163.971L135.529 163.971L135.529 163.484L143.742 163.484L143.742 163.971L151.954 163.971L151.954 163.484L160.167 163.484L160.167 163.971L168.379 163.971L168.379 163.484L176.592 163.484L176.592 163.971L184.804 163.971L184.804 163.484L193.017 163.484L193.017 163.971L201.229 163.971L201.229 163.484L209.441 163.484L209.441 163.971L217.653 163.971L217.653 163.484L225.866 163.484L225.866 163.971L234.078 163.971L234.078 163.484L237.698 163.484L237.698 160.802L238.185 160.802L238.185 154.465L237.698 154.465L237.698 148.128L238.185 148.128L238.185 141.791Z" stroke="#FBCBE2" stroke-width="0.972147" stroke-dasharray="7.78 7.78"/>
<path d="M0 197.227L-1.0831e-06 172.448C-3.33748e-06 120.874 41.8092 79.0647 93.3834 79.0647L175.255 79.0647L175.255 96.3123C175.255 152.046 130.074 197.227 74.3409 197.227L0 197.227Z" fill="#2C5E49"/>
<path d="M347.062 62.7614C346.293 59.7756 345.139 57.0647 345.024 54.0395C345.024 48.1856 348.793 42.921 347.37 36.3206C346.716 32.5883 345.024 28.9345 342.485 26.145C339.331 22.727 335.292 21.5483 332.177 19.1518C328.484 16.5981 326.907 12.1978 324.561 8.46543C320.792 2.57224 312.906 -0.924406 306.252 0.214944C302.406 0.922126 298.636 2.57223 294.752 2.49365C290.867 2.57223 287.059 1.0007 283.212 0.293522C277.751 -0.6101 271.596 1.7079 267.442 5.63669C264.75 8.1904 263.404 11.8835 261.48 14.948C258.75 19.9375 253.211 21.5876 248.98 24.8878C244.633 28.3451 241.864 34.9063 242.172 40.7602C242.325 44.8068 244.172 48.4606 244.787 52.2716C245.71 58.5969 241.018 64.4509 242.556 71.4834C243.441 76.5908 246.326 81.5804 250.634 84.3306C252.749 85.7056 254.942 86.7271 256.942 88.0629C262.596 91.4417 263.211 98.0421 268.173 102.678C271.827 105.9 276.712 107.943 281.52 107.864H281.674C286.02 107.628 290.405 105.389 294.521 105.35C296.598 105.271 298.636 105.546 300.752 106.096C302.829 106.607 304.983 107.353 307.214 107.628C312.406 108.296 317.791 106.175 321.792 102.796C324.946 100.164 326.407 96.117 328.215 93.1704C333.408 84.3699 342.754 86.1378 346.601 74.5479C347.985 70.7369 348.139 66.5724 347.024 62.7614H347.062Z" fill="white"/>
<path d="M343.255 62.1167C342.542 59.3489 341.473 56.836 341.366 54.0318C341.366 48.6054 344.86 43.7253 343.541 37.607C342.935 34.1472 341.366 30.7603 339.013 28.1745C336.089 25.0061 332.345 23.9135 329.457 21.692C326.034 19.3248 324.572 15.2459 322.398 11.7861C318.903 6.32334 311.594 3.08208 305.426 4.13822C301.861 4.79375 298.366 6.32334 294.765 6.2505C291.164 6.32334 287.634 4.86659 284.069 4.21106C279.006 3.37343 273.301 5.52213 269.451 9.16399C266.955 11.5312 265.707 14.9546 263.924 17.7952C261.393 22.4204 256.258 23.95 252.336 27.0091C248.307 30.214 245.74 36.2959 246.025 41.7223C246.168 45.4734 247.88 48.8603 248.45 52.3929C249.306 58.2563 244.956 63.6827 246.382 70.2017C247.202 74.9361 249.876 79.5612 253.869 82.1105C255.83 83.3852 257.863 84.3321 259.717 85.5703C264.958 88.7023 265.529 94.8207 270.128 99.1181C273.515 102.104 278.043 103.998 282.5 103.925H282.643C286.672 103.707 290.736 101.631 294.551 101.595C296.477 101.522 298.366 101.777 300.327 102.286C302.253 102.76 304.249 103.452 306.317 103.707C311.131 104.326 316.122 102.359 319.83 99.2273C322.754 96.7873 324.109 93.0361 325.785 90.3047C330.598 82.147 339.262 83.7858 342.828 73.0423C344.111 69.5097 344.254 65.6493 343.22 62.1167H343.255ZM308.778 28.9393C309.74 28.9393 310.703 29.1578 311.594 29.522L311.202 31.3065C311.059 31.9256 310.881 32.4719 310.596 32.909C310.311 33.346 310.061 33.5645 309.811 33.5645H305.39C305.141 33.5645 304.891 33.783 304.606 34.22C304.321 34.657 304.107 35.2033 304 35.8224L301.967 44.8543C301.896 45.2549 301.825 45.6555 301.825 45.9832C301.825 46.748 302.003 47.1122 302.324 47.1122H308.528C308.884 47.1122 309.027 47.4764 309.027 48.2412C309.027 49.006 308.991 48.9696 308.884 49.3702L307.85 53.8861C307.708 54.5052 307.494 55.0515 307.244 55.4885C306.959 55.9255 306.71 56.1441 306.496 56.1441C306.139 56.1441 305.996 55.7799 305.996 55.0151C305.996 54.2503 306.032 54.2867 306.139 53.8861L306.638 51.6281C306.71 51.2275 306.781 50.8269 306.781 50.4992C306.781 49.7344 306.603 49.3702 306.282 49.3702H301.861C301.611 49.3702 301.361 49.5887 301.076 50.0257C300.791 50.4627 300.577 51.009 300.47 51.6281L299.614 55.4157C298.509 52.7207 297.867 49.5523 297.867 46.1289C297.867 36.6237 302.752 28.9029 308.813 28.9029L308.778 28.9393ZM288.098 42.5963C288.347 42.5963 288.597 42.3778 288.882 41.9408C289.167 41.5038 289.346 40.9575 289.524 40.3384L290.344 36.7329C291.485 39.4279 292.127 42.6692 292.127 46.1653C292.127 55.6706 287.242 63.3914 281.181 63.3914C275.12 63.3914 279.184 63.1728 278.257 62.7722L278.721 60.6964C278.863 60.0773 279.077 59.531 279.362 59.094C279.648 58.6569 279.897 58.4384 280.147 58.4384H284.568C284.818 58.4384 285.067 58.2199 285.352 57.7829C285.638 57.3459 285.816 56.7996 285.994 56.1805L288.027 47.1486C288.134 46.748 288.169 46.3474 288.169 46.0197C288.169 45.2549 287.991 44.8907 287.67 44.8907H281.466C281.145 44.8907 280.967 44.5265 280.967 43.7617C280.967 42.9969 281.003 43.0333 281.11 42.6327L282.108 38.1168C282.251 37.4977 282.464 36.9514 282.714 36.5144C282.999 36.0774 283.249 35.8589 283.498 35.8589C283.748 35.8589 283.998 36.223 283.998 36.9878C283.998 37.7526 283.962 37.7162 283.855 38.1168L283.356 40.3748C283.249 40.7754 283.213 41.176 283.213 41.5038C283.213 42.2685 283.391 42.6327 283.712 42.6327H288.134L288.098 42.5963ZM281.145 28.9393C282.108 28.9393 283.071 29.1578 283.962 29.522L283.57 31.3065C283.427 31.9256 283.249 32.4719 282.964 32.909C282.678 33.346 282.429 33.5645 282.179 33.5645H277.758C277.508 33.5645 277.259 33.783 276.974 34.22C276.688 34.657 276.474 35.2033 276.368 35.8224L274.335 44.8543C274.264 45.2549 274.193 45.6555 274.193 45.9832C274.193 46.748 274.371 47.1122 274.692 47.1122H280.896C281.252 47.1122 281.395 47.4764 281.395 48.2412C281.395 49.006 281.359 48.9696 281.252 49.3702L280.218 53.8861C280.076 54.5052 279.862 55.0515 279.612 55.4885C279.327 55.9255 279.077 56.1441 278.863 56.1441C278.507 56.1441 278.364 55.7799 278.364 55.0151C278.364 54.2503 278.4 54.2867 278.507 53.8861L279.006 51.6281C279.077 51.2275 279.149 50.8269 279.149 50.4992C279.149 49.7344 278.97 49.3702 278.649 49.3702H274.228C273.979 49.3702 273.729 49.5887 273.444 50.0257C273.159 50.4627 272.945 51.009 272.838 51.6281L271.982 55.4157C270.877 52.7207 270.235 49.5523 270.235 46.1289C270.235 36.6237 275.12 28.9029 281.181 28.9029L281.145 28.9393ZM275.334 76.5749C273.479 75.2274 271.732 73.6614 270.413 71.7676C278.043 75.6644 286.493 77.5218 294.944 77.5582C303.429 77.5582 311.808 75.3731 319.51 71.7676C309.027 84.4413 288.312 86.0073 275.334 76.5749ZM308.778 63.3549C307.779 63.3549 306.781 63.1364 305.854 62.7358L306.317 60.66C306.46 60.0408 306.674 59.4946 306.959 59.0575C307.244 58.6205 307.494 58.402 307.744 58.402H312.165C312.414 58.402 312.664 58.1835 312.949 57.7465C313.234 57.3094 313.413 56.7632 313.591 56.1441L315.623 47.1122C315.73 46.7116 315.766 46.311 315.766 45.9832C315.766 45.2185 315.588 44.8543 315.267 44.8543H309.063C308.742 44.8543 308.564 44.4901 308.564 43.7253C308.564 42.9605 308.599 42.9969 308.706 42.5963L309.705 38.0804C309.847 37.4613 310.061 36.915 310.311 36.478C310.596 36.041 310.845 35.8224 311.095 35.8224C311.345 35.8224 311.594 36.1866 311.594 36.9514C311.594 37.7162 311.559 37.6798 311.452 38.0804L310.952 40.3384C310.845 40.739 310.81 41.1396 310.81 41.4673C310.81 42.2321 310.988 42.5963 311.309 42.5963H315.73C315.98 42.5963 316.229 42.3778 316.515 41.9408C316.8 41.5038 316.978 40.9575 317.156 40.3384L317.976 36.7329C319.117 39.4279 319.759 42.6692 319.759 46.1653C319.759 55.6706 314.874 63.3914 308.813 63.3914L308.778 63.3549Z" fill="#2C5E49"/>
<g style="mix-blend-mode:hard-light" opacity="0.6">
<path d="M343.255 62.1171C342.542 59.3493 341.473 56.8364 341.366 54.0322C341.366 48.6058 344.86 43.7257 343.541 37.6074C342.935 34.1476 341.366 30.7607 339.013 28.1749C336.089 25.0065 332.345 23.914 329.457 21.6924C326.034 19.3252 324.572 15.2463 322.398 11.7865C318.903 6.32375 311.594 3.08249 305.426 4.13863C301.861 4.79417 298.366 6.32375 294.765 6.25091C291.164 6.32375 287.634 4.867 284.069 4.21147C279.006 3.37384 273.301 5.52254 269.451 9.16441C266.955 11.5316 265.707 14.955 263.924 17.7956C261.393 22.4208 256.258 23.9504 252.336 27.0095C248.307 30.2144 245.74 36.2963 246.025 41.7227C246.168 45.4738 247.88 48.8607 248.45 52.3933C249.306 58.2567 244.956 63.6831 246.382 70.2021C247.202 74.9365 249.876 79.5616 253.869 82.111C255.83 83.3856 257.863 84.3325 259.717 85.5707C264.958 88.7027 265.529 94.8211 270.128 99.1185C273.515 102.105 278.043 103.999 282.5 103.926H282.643C286.672 103.707 290.736 101.631 294.551 101.595C296.477 101.522 298.366 101.777 300.327 102.287C302.253 102.76 304.249 103.452 306.317 103.707C311.131 104.326 316.122 102.36 319.83 99.2277C322.754 96.7877 324.109 93.0366 325.785 90.3052C330.598 82.1474 339.262 83.7862 342.828 73.0427C344.111 69.5101 344.254 65.6497 343.22 62.1171H343.255ZM308.778 28.9397C309.74 28.9397 310.703 29.1582 311.594 29.5224L311.202 31.3069C311.059 31.9261 310.881 32.4723 310.596 32.9094C310.311 33.3464 310.061 33.5649 309.811 33.5649H305.39C305.141 33.5649 304.891 33.7834 304.606 34.2204C304.321 34.6575 304.107 35.2037 304 35.8229L301.967 44.8547C301.896 45.2553 301.825 45.6559 301.825 45.9837C301.825 46.7485 302.003 47.1126 302.324 47.1126H308.528C308.884 47.1126 309.027 47.4768 309.027 48.2416C309.027 49.0064 308.991 48.97 308.884 49.3706L307.85 53.8865C307.708 54.5056 307.494 55.0519 307.244 55.4889C306.959 55.9259 306.71 56.1445 306.496 56.1445C306.139 56.1445 305.996 55.7803 305.996 55.0155C305.996 54.2507 306.032 54.2871 306.139 53.8865L306.638 51.6286C306.71 51.2279 306.781 50.8273 306.781 50.4996C306.781 49.7348 306.603 49.3706 306.282 49.3706H301.861C301.611 49.3706 301.361 49.5891 301.076 50.0261C300.791 50.4632 300.577 51.0094 300.47 51.6286L299.614 55.4161C298.509 52.7211 297.867 49.5527 297.867 46.1293C297.867 36.6241 302.752 28.9033 308.813 28.9033L308.778 28.9397ZM288.098 42.5967C288.347 42.5967 288.597 42.3782 288.882 41.9412C289.167 41.5042 289.346 40.9579 289.524 40.3388L290.344 36.7333C291.485 39.4283 292.127 42.6696 292.127 46.1658C292.127 55.671 287.242 63.3918 281.181 63.3918C275.12 63.3918 279.184 63.1733 278.257 62.7727L278.721 60.6968C278.863 60.0777 279.077 59.5314 279.362 59.0944C279.648 58.6574 279.897 58.4388 280.147 58.4388H284.568C284.818 58.4388 285.067 58.2203 285.352 57.7833C285.638 57.3463 285.816 56.8 285.994 56.1809L288.027 47.1491C288.134 46.7485 288.169 46.3478 288.169 46.0201C288.169 45.2553 287.991 44.8911 287.67 44.8911H281.466C281.145 44.8911 280.967 44.5269 280.967 43.7621C280.967 42.9973 281.003 43.0337 281.11 42.6331L282.108 38.1172C282.251 37.4981 282.464 36.9518 282.714 36.5148C282.999 36.0778 283.249 35.8593 283.498 35.8593C283.748 35.8593 283.998 36.2235 283.998 36.9883C283.998 37.753 283.962 37.7166 283.855 38.1172L283.356 40.3752C283.249 40.7758 283.213 41.1764 283.213 41.5042C283.213 42.269 283.391 42.6331 283.712 42.6331H288.134L288.098 42.5967ZM281.145 28.9397C282.108 28.9397 283.071 29.1582 283.962 29.5224L283.57 31.3069C283.427 31.9261 283.249 32.4723 282.964 32.9094C282.678 33.3464 282.429 33.5649 282.179 33.5649H277.758C277.508 33.5649 277.259 33.7834 276.974 34.2204C276.688 34.6575 276.474 35.2037 276.368 35.8229L274.335 44.8547C274.264 45.2553 274.193 45.6559 274.193 45.9837C274.193 46.7485 274.371 47.1126 274.692 47.1126H280.896C281.252 47.1126 281.395 47.4768 281.395 48.2416C281.395 49.0064 281.359 48.97 281.252 49.3706L280.218 53.8865C280.076 54.5056 279.862 55.0519 279.612 55.4889C279.327 55.9259 279.077 56.1445 278.863 56.1445C278.507 56.1445 278.364 55.7803 278.364 55.0155C278.364 54.2507 278.4 54.2871 278.507 53.8865L279.006 51.6286C279.077 51.2279 279.149 50.8273 279.149 50.4996C279.149 49.7348 278.97 49.3706 278.649 49.3706H274.228C273.979 49.3706 273.729 49.5891 273.444 50.0261C273.159 50.4632 272.945 51.0094 272.838 51.6286L271.982 55.4161C270.877 52.7211 270.235 49.5527 270.235 46.1293C270.235 36.6241 275.12 28.9033 281.181 28.9033L281.145 28.9397ZM275.334 76.5753C273.479 75.2278 271.732 73.6618 270.413 71.7681C278.043 75.6649 286.493 77.5222 294.944 77.5586C303.429 77.5586 311.808 75.3735 319.51 71.7681C309.027 84.4417 288.312 86.0078 275.334 76.5753ZM308.778 63.3554C307.779 63.3554 306.781 63.1368 305.854 62.7362L306.317 60.6604C306.46 60.0413 306.674 59.495 306.959 59.058C307.244 58.6209 307.494 58.4024 307.744 58.4024H312.165C312.414 58.4024 312.664 58.1839 312.949 57.7469C313.234 57.3099 313.413 56.7636 313.591 56.1445L315.623 47.1126C315.73 46.712 315.766 46.3114 315.766 45.9837C315.766 45.2189 315.588 44.8547 315.267 44.8547H309.063C308.742 44.8547 308.564 44.4905 308.564 43.7257C308.564 42.9609 308.599 42.9973 308.706 42.5967L309.705 38.0808C309.847 37.4617 310.061 36.9154 310.311 36.4784C310.596 36.0414 310.845 35.8229 311.095 35.8229C311.345 35.8229 311.594 36.187 311.594 36.9518C311.594 37.7166 311.559 37.6802 311.452 38.0808L310.952 40.3388C310.845 40.7394 310.81 41.14 310.81 41.4677C310.81 42.2325 310.988 42.5967 311.309 42.5967H315.73C315.98 42.5967 316.229 42.3782 316.515 41.9412C316.8 41.5042 316.978 40.9579 317.156 40.3388L317.976 36.7333C319.117 39.4283 319.759 42.6696 319.759 46.1658C319.759 55.671 314.874 63.3918 308.813 63.3918L308.778 63.3554Z" fill="#2C5E49"/>
</g>
</svg>
