<svg width="32" height="32" viewBox="0 0 32 32" fill="none" xmlns="http://www.w3.org/2000/svg">
<path d="M22.16 8.28C22.022 8.17072 21.8637 8.08986 21.6942 8.04208C21.5248 7.9943 21.3476 7.98056 21.1728 8.00163C20.998 8.0227 20.8291 8.07818 20.6759 8.16486C20.5226 8.25154 20.3881 8.36771 20.28 8.50667L10.9467 20.5067L6.37334 14.9333C6.26606 14.7905 6.13119 14.6707 5.97674 14.5811C5.82228 14.4914 5.65138 14.4337 5.47418 14.4113C5.29699 14.389 5.11711 14.4024 4.94522 14.4509C4.77333 14.4994 4.61294 14.582 4.47356 14.6937C4.33419 14.8053 4.21867 14.9439 4.13386 15.1011C4.04906 15.2583 3.9967 15.4309 3.97989 15.6087C3.96308 15.7865 3.98216 15.9659 4.03601 16.1362C4.08985 16.3064 4.17736 16.4642 4.29334 16.6L9.85333 23.5067C9.97883 23.6614 10.1374 23.786 10.3174 23.8713C10.4973 23.9567 10.6941 24.0007 10.8933 24C11.1048 24.0094 11.3154 23.9684 11.5079 23.8803C11.7003 23.7922 11.869 23.6596 12 23.4933L22.44 10.16C22.5464 10.0187 22.6237 9.85763 22.6673 9.68618C22.7108 9.51473 22.7199 9.33632 22.6938 9.16135C22.6677 8.98638 22.6071 8.81834 22.5155 8.66702C22.4238 8.51571 22.303 8.38415 22.16 8.28ZM28.8267 8.28C28.6886 8.17072 28.5303 8.08986 28.3609 8.04208C28.1915 7.9943 28.0142 7.98056 27.8394 8.00163C27.6647 8.0227 27.4958 8.07818 27.3425 8.16486C27.1893 8.25154 27.0548 8.36771 26.9467 8.50667L17.6133 20.5067L16.8 19.5067L15.12 21.6667L16.5867 23.4933C16.7122 23.648 16.8707 23.7726 17.0507 23.858C17.2307 23.9434 17.4275 23.9873 17.6267 23.9867C17.8269 23.9857 18.0244 23.9397 18.2045 23.852C18.3845 23.7643 18.5425 23.6371 18.6667 23.48L29.1067 10.1467C29.211 10.0058 29.2866 9.8457 29.329 9.67558C29.3714 9.50546 29.3798 9.32864 29.3538 9.15526C29.3278 8.98187 29.2679 8.81532 29.1774 8.66513C29.087 8.51494 28.9678 8.38407 28.8267 8.28Z" fill="white"/>
<path d="M11.6133 17.4133L13.3333 15.2533L13.0667 14.9333C12.9614 14.7875 12.8277 14.6645 12.6737 14.5716C12.5196 14.4788 12.3484 14.4181 12.1702 14.3932C11.9921 14.3683 11.8108 14.3797 11.6372 14.4267C11.4635 14.4737 11.3012 14.5553 11.16 14.6667C11.023 14.7767 10.9092 14.9127 10.8249 15.0669C10.7407 15.2211 10.6878 15.3904 10.6692 15.5651C10.6506 15.7398 10.6667 15.9165 10.7166 16.0849C10.7665 16.2534 10.8492 16.4103 10.96 16.5467L11.6133 17.4133Z" fill="white"/>
</svg>
