<svg width="32" height="32" viewBox="0 0 32 32" fill="none" xmlns="http://www.w3.org/2000/svg">
<path d="M24.0003 20H8.00033L2.66699 25.3333V3.99996C2.66699 3.64634 2.80747 3.3072 3.05752 3.05715C3.30756 2.8071 3.6467 2.66663 4.00033 2.66663H24.0003C24.3539 2.66663 24.6931 2.8071 24.9431 3.05715C25.1932 3.3072 25.3337 3.64634 25.3337 3.99996V18.6666C25.3337 19.0202 25.1932 19.3594 24.9431 19.6094C24.6931 19.8595 24.3539 20 24.0003 20ZM30.667 12V30.6666L25.3337 25.3333H10.667C10.3134 25.3333 9.97423 25.1928 9.72418 24.9428C9.47413 24.6927 9.33366 24.3536 9.33366 24V22.6666H28.0003V10.6666H29.3337C29.6873 10.6666 30.0264 10.8071 30.2765 11.0572C30.5265 11.3072 30.667 11.6463 30.667 12ZM10.9203 5.33329C9.76032 5.33329 8.82699 5.59996 8.10699 6.11996C7.41366 6.66663 7.06699 7.42663 7.08033 8.47996L7.09366 8.51996H9.66699C9.68033 8.11996 9.80033 7.81329 10.0403 7.59996C10.2872 7.39522 10.5997 7.28634 10.9203 7.29329C11.3337 7.29329 11.6803 7.42663 11.9203 7.66663C12.1603 7.91996 12.267 8.26663 12.267 8.66663C12.267 9.09329 12.1737 9.45329 11.9603 9.75996C11.7737 10.0666 11.4937 10.3333 11.147 10.5466C10.467 11 10.0003 11.4 9.74699 11.76C9.48033 12.1066 9.33366 12.6666 9.33366 13.3333H12.0003C12.0003 12.92 12.0537 12.5866 12.1737 12.3466C12.2937 12.1066 12.5203 11.8666 12.8537 11.6533C13.4537 11.3333 13.947 10.9466 14.3337 10.4133C14.7203 9.87996 14.9203 9.33329 14.9203 8.66663C14.9203 7.65329 14.5603 6.83996 13.8403 6.23996C13.1337 5.63996 12.1603 5.33329 10.9203 5.33329ZM9.33366 14.6666V17.3333H12.0003V14.6666H9.33366ZM17.3337 17.3333H20.0003V14.6666H17.3337V17.3333ZM17.3337 5.33329V13.3333H20.0003V5.33329H17.3337Z" fill="#2C5E49"/>
</svg>
