<svg width="180" height="183" viewBox="0 0 180 183" fill="none" xmlns="http://www.w3.org/2000/svg">
<path d="M177.845 106.39C176.541 101.328 174.585 96.7326 174.39 91.6045C174.39 81.6813 180.779 72.7569 178.367 61.5683C177.258 55.2414 174.39 49.0476 170.086 44.3191C164.74 38.525 157.893 36.527 152.612 32.4644C146.353 28.1355 143.679 20.6764 139.702 14.3494C133.312 4.3596 119.946 -1.56775 108.666 0.363615C102.146 1.5624 95.756 4.35957 89.1706 4.22637C82.5853 4.35956 76.1302 1.69559 69.6101 0.49681C60.3515 -1.03497 49.919 2.89439 42.8773 9.55429C38.3132 13.8832 36.0311 20.1436 32.771 25.3383C28.1417 33.7964 18.7525 36.5936 11.5804 42.1879C4.21257 48.0486 -0.481998 59.1707 0.039611 69.094C0.300415 75.9537 3.43012 82.1474 4.47334 88.6075C6.03818 99.33 -1.91644 109.253 0.691621 121.175C2.19126 129.832 7.08144 138.291 14.384 142.952C17.9701 145.283 21.6867 147.015 25.0771 149.279C34.6618 155.007 35.7051 166.196 44.1161 174.054C50.3102 179.515 58.591 182.979 66.7411 182.845L67.0019 182.845C74.3697 182.446 81.8028 178.65 88.7794 178.583C92.3003 178.45 95.756 178.916 99.3421 179.848C102.863 180.714 106.514 181.98 110.296 182.446C119.098 183.578 128.227 179.982 135.008 174.254C140.354 169.792 142.832 162.932 145.896 157.937C154.698 143.019 170.543 146.016 177.063 126.369C179.41 119.909 179.671 112.85 177.78 106.39L177.845 106.39Z" fill="white"/>
<path d="M171.394 105.294C170.186 100.602 168.372 96.3427 168.191 91.5891C168.191 82.3906 174.114 74.1181 171.878 63.7466C170.851 57.8817 168.191 52.1404 164.202 47.7572C159.246 42.3862 152.9 40.5341 148.004 36.7683C142.202 32.7555 139.724 25.8412 136.037 19.9763C130.114 10.716 117.724 5.22161 107.268 7.01193C101.224 8.12316 95.3006 10.716 89.1962 10.5926C83.0917 10.716 77.1082 8.24663 71.0642 7.1354C62.4817 5.71549 52.8113 9.35786 46.2838 15.5314C42.053 19.5442 39.9376 25.3473 36.9156 30.1626C32.6244 38.003 23.921 40.5959 17.2726 45.7816C10.4429 51.2143 6.09121 61.5241 6.57473 70.7226C6.81649 77.0813 9.71761 82.8227 10.6846 88.811C12.1352 98.7504 4.76153 107.949 7.17912 119C8.56924 127.025 13.1022 134.865 19.8715 139.187C23.1957 141.348 26.6408 142.953 29.7837 145.052C38.6683 150.361 39.6354 160.733 47.4321 168.017C53.1739 173.08 60.8498 176.29 68.4048 176.166L68.6465 176.166C75.4763 175.796 82.3664 172.277 88.8335 172.215C92.0972 172.092 95.3006 172.524 98.6248 173.388C101.889 174.191 105.273 175.364 108.779 175.796C116.938 176.845 125.4 173.512 131.685 168.202C136.641 164.066 138.938 157.708 141.779 153.077C149.938 139.249 164.625 142.027 170.669 123.815C172.845 117.827 173.087 111.283 171.334 105.294L171.394 105.294ZM112.949 49.0536C114.581 49.0536 116.213 49.424 117.724 50.0414L117.059 53.0664C116.817 54.1159 116.515 55.0419 116.031 55.7827C115.548 56.5235 115.125 56.894 114.702 56.894L107.207 56.894C106.784 56.894 106.361 57.2644 105.878 58.0052C105.394 58.746 105.031 59.672 104.85 60.7215L101.405 76.0319C101.284 76.711 101.163 77.39 101.163 77.9457C101.163 79.2421 101.465 79.8594 102.009 79.8594L112.526 79.8594C113.13 79.8594 113.372 80.4768 113.372 81.7732C113.372 83.0697 113.312 83.0079 113.13 83.687L111.378 91.3422C111.136 92.3917 110.773 93.3177 110.35 94.0585C109.867 94.7994 109.444 95.1698 109.081 95.1698C108.476 95.1698 108.235 94.5524 108.235 93.256C108.235 91.9595 108.295 92.0213 108.476 91.3422L109.323 87.5146C109.444 86.8355 109.564 86.1564 109.564 85.6008C109.564 84.3044 109.262 83.687 108.718 83.687L101.224 83.687C100.801 83.687 100.378 84.0574 99.894 84.7983C99.4105 85.5391 99.0479 86.4651 98.8665 87.5146L97.416 93.9351C95.5423 89.3667 94.4544 83.9957 94.4544 78.1926C94.4544 62.0797 102.735 48.9919 113.009 48.9919L112.949 49.0536ZM77.8939 72.2043C78.3169 72.2043 78.74 71.8339 79.2235 71.093C79.7071 70.3522 80.0093 69.4262 80.3115 68.3767L81.7016 62.2649C83.6357 66.8333 84.7236 72.3278 84.7236 78.2543C84.7236 94.3672 76.4433 107.455 66.1685 107.455C55.8937 107.455 62.7839 107.085 61.2124 106.406L61.9982 102.887C62.2399 101.837 62.6026 100.911 63.0861 100.17C63.5696 99.4295 63.9927 99.0591 64.4158 99.0591L71.9103 99.0591C72.3334 99.0591 72.7565 98.6887 73.24 97.9478C73.7235 97.207 74.0257 96.281 74.3279 95.2315L77.773 79.9212C77.9543 79.2421 78.0147 78.563 78.0147 78.0074C78.0147 76.7109 77.7126 76.0936 77.1686 76.0936L66.652 76.0936C66.1081 76.0936 65.8059 75.4762 65.8059 74.1798C65.8059 72.8834 65.8663 72.9451 66.0476 72.266L67.74 64.6109C67.9817 63.5614 68.3444 62.6353 68.7674 61.8945C69.251 61.1537 69.674 60.7833 70.0971 60.7833C70.5202 60.7833 70.9433 61.4006 70.9433 62.6971C70.9433 63.9935 70.8828 63.9318 70.7015 64.6109L69.8554 68.4384C69.674 69.1175 69.6136 69.7966 69.6136 70.3522C69.6136 71.6487 69.9158 72.266 70.4598 72.266L77.9543 72.266L77.8939 72.2043ZM66.1081 49.0536C67.74 49.0536 69.3718 49.424 70.8828 50.0413L70.218 53.0664C69.9762 54.1159 69.674 55.0419 69.1905 55.7827C68.707 56.5235 68.2839 56.894 67.8608 56.894L60.3663 56.894C59.9432 56.894 59.5201 57.2644 59.0366 58.0052C58.5531 58.746 58.1905 59.672 58.0091 60.7215L54.564 76.0319C54.4432 76.7109 54.3223 77.39 54.3223 77.9457C54.3223 79.2421 54.6245 79.8594 55.1684 79.8594L65.685 79.8594C66.2894 79.8594 66.5312 80.4768 66.5312 81.7732C66.5312 83.0697 66.4707 83.0079 66.2894 83.687L64.5366 91.3422C64.2949 92.3917 63.9322 93.3177 63.5092 94.0585C63.0256 94.7994 62.6026 95.1698 62.2399 95.1698C61.6355 95.1698 61.3938 94.5524 61.3938 93.256C61.3938 91.9595 61.4542 92.0213 61.6355 91.3422L62.4817 87.5146C62.6026 86.8355 62.7234 86.1564 62.7234 85.6008C62.7234 84.3044 62.4212 83.687 61.8773 83.687L54.3827 83.687C53.9597 83.687 53.5366 84.0574 53.053 84.7983C52.5695 85.5391 52.2069 86.4651 52.0256 87.5146L50.575 93.9351C48.7014 89.3667 47.6134 83.9957 47.6134 78.1926C47.6135 62.0797 55.8937 48.9918 66.1685 48.9918L66.1081 49.0536ZM56.2564 129.803C53.1135 127.519 50.1519 124.864 47.9156 121.654C60.8498 128.26 75.1741 131.408 89.4983 131.47C103.883 131.47 118.086 127.766 131.141 121.654C113.372 143.138 78.2565 145.793 56.2564 129.803ZM112.949 107.393C111.257 107.393 109.564 107.023 107.993 106.344L108.779 102.825C109.02 101.775 109.383 100.849 109.867 100.109C110.35 99.3678 110.773 98.9974 111.196 98.9974L118.691 98.9974C119.114 98.9974 119.537 98.6269 120.021 97.8861C120.504 97.1453 120.806 96.2193 121.108 95.1698L124.554 79.8594C124.735 79.1804 124.795 78.5013 124.795 77.9457C124.795 76.6492 124.493 76.0319 123.949 76.0319L113.433 76.0319C112.889 76.0319 112.586 75.4145 112.586 74.1181C112.586 72.8216 112.647 72.8834 112.828 72.2043L114.52 64.5491C114.762 63.4996 115.125 62.5736 115.548 61.8328C116.031 61.092 116.455 60.7215 116.878 60.7215C117.301 60.7215 117.724 61.3389 117.724 62.6353C117.724 63.9318 117.663 63.87 117.482 64.5491L116.636 68.3767C116.455 69.0558 116.394 69.7349 116.394 70.2905C116.394 71.5869 116.696 72.2043 117.24 72.2043L124.735 72.2043C125.158 72.2043 125.581 71.8339 126.065 71.0931C126.548 70.3522 126.85 69.4262 127.152 68.3767L128.543 62.2649C130.477 66.8333 131.565 72.3278 131.565 78.2543C131.565 94.3672 123.284 107.455 113.009 107.455L112.949 107.393Z" fill="#2C5E49"/>
<g style="mix-blend-mode:hard-light" opacity="0.6">
<path d="M171.394 105.295C170.186 100.603 168.372 96.343 168.191 91.5894C168.191 82.3909 174.114 74.1184 171.878 63.7469C170.85 57.882 168.191 52.1406 164.202 47.7574C159.246 42.3865 152.9 40.5344 148.004 36.7686C142.202 32.7558 139.724 25.8414 136.037 19.9766C130.114 10.7163 117.724 5.22189 107.268 7.01221C101.224 8.12344 95.3005 10.7163 89.1961 10.5928C83.0916 10.7163 77.1081 8.24691 71.0641 7.13567C62.4816 5.71576 52.8112 9.35814 46.2837 15.5317C42.0529 19.5444 39.9375 25.3475 36.9155 30.1629C32.6243 38.0033 23.9209 40.5961 17.2725 45.7819C10.4428 51.2146 6.09112 61.5244 6.57464 70.7229C6.8164 77.0816 9.71752 82.823 10.6846 88.8113C12.1351 98.7507 4.76143 107.949 7.17903 119C8.56915 127.025 13.1021 134.866 19.8714 139.187C23.1956 141.348 26.6407 142.953 29.7836 145.052C38.6682 150.361 39.6353 160.733 47.432 168.018C53.1738 173.08 60.8497 176.29 68.4047 176.167L68.6464 176.167C75.4762 175.796 82.3663 172.277 88.8334 172.216C92.0972 172.092 95.3005 172.524 98.6247 173.389C101.888 174.191 105.273 175.364 108.779 175.796C116.938 176.846 125.4 173.512 131.685 168.203C136.641 164.067 138.938 157.708 141.779 153.078C149.938 139.249 164.625 142.027 170.669 123.815C172.845 117.827 173.087 111.283 171.334 105.295L171.394 105.295ZM112.949 49.0539C114.581 49.0539 116.213 49.4243 117.724 50.0416L117.059 53.0667C116.817 54.1162 116.515 55.0422 116.031 55.783C115.548 56.5238 115.125 56.8942 114.702 56.8942L107.207 56.8942C106.784 56.8942 106.361 57.2646 105.877 58.0055C105.394 58.7463 105.031 59.6723 104.85 60.7218L101.405 76.0321C101.284 76.7112 101.163 77.3903 101.163 77.9459C101.163 79.2424 101.465 79.8597 102.009 79.8597L112.526 79.8597C113.13 79.8597 113.372 80.4771 113.372 81.7735C113.372 83.07 113.312 83.0082 113.13 83.6873L111.378 91.3425C111.136 92.392 110.773 93.318 110.35 94.0588C109.867 94.7996 109.443 95.17 109.081 95.17C108.476 95.17 108.235 94.5527 108.235 93.2563C108.235 91.9598 108.295 92.0216 108.476 91.3425L109.323 87.5149C109.443 86.8358 109.564 86.1567 109.564 85.6011C109.564 84.3047 109.262 83.6873 108.718 83.6873L101.224 83.6873C100.801 83.6873 100.377 84.0577 99.8939 84.7985C99.4104 85.5394 99.0478 86.4654 98.8664 87.5149L97.4159 93.9353C95.5422 89.3669 94.4543 83.996 94.4543 78.1929C94.4543 62.08 102.735 48.9921 113.009 48.9921L112.949 49.0539ZM77.8938 72.2046C78.3169 72.2046 78.7399 71.8341 79.2235 71.0933C79.707 70.3525 80.0092 69.4265 80.3114 68.377L81.7015 62.2652C83.6356 66.8336 84.7235 72.328 84.7235 78.2546C84.7235 94.3675 76.4432 107.455 66.1684 107.455C55.8936 107.455 62.7838 107.085 61.2123 106.406L61.9981 102.887C62.2398 101.837 62.6025 100.911 63.086 100.171C63.5695 99.4298 63.9926 99.0594 64.4157 99.0594L71.9102 99.0594C72.3333 99.0594 72.7564 98.6889 73.2399 97.9481C73.7234 97.2073 74.0256 96.2813 74.3278 95.2318L77.7729 79.9215C77.9542 79.2424 78.0147 78.5633 78.0147 78.0077C78.0147 76.7112 77.7125 76.0939 77.1685 76.0939L66.6519 76.0939C66.108 76.0939 65.8058 75.4765 65.8058 74.1801C65.8058 72.8836 65.8662 72.9454 66.0475 72.2663L67.7399 64.6111C67.9816 63.5616 68.3443 62.6356 68.7673 61.8948C69.2509 61.154 69.674 60.7835 70.097 60.7835C70.5201 60.7835 70.9432 61.4009 70.9432 62.6973C70.9432 63.9938 70.8827 63.932 70.7014 64.6111L69.8553 68.4387C69.6739 69.1178 69.6135 69.7969 69.6135 70.3525C69.6135 71.6489 69.9157 72.2663 70.4597 72.2663L77.9542 72.2663L77.8938 72.2046ZM66.108 49.0539C67.7399 49.0539 69.3717 49.4243 70.8827 50.0416L70.2179 53.0666C69.9761 54.1161 69.674 55.0422 69.1904 55.783C68.7069 56.5238 68.2838 56.8942 67.8607 56.8942L60.3662 56.8942C59.9431 56.8942 59.52 57.2646 59.0365 58.0055C58.553 58.7463 58.1904 59.6723 58.009 60.7218L54.564 76.0321C54.4431 76.7112 54.3222 77.3903 54.3222 77.9459C54.3222 79.2424 54.6244 79.8597 55.1684 79.8597L65.6849 79.8597C66.2893 79.8597 66.5311 80.4771 66.5311 81.7735C66.5311 83.0699 66.4706 83.0082 66.2893 83.6873L64.5365 91.3425C64.2948 92.392 63.9321 93.318 63.5091 94.0588C63.0255 94.7996 62.6025 95.17 62.2398 95.17C61.6354 95.17 61.3937 94.5527 61.3937 93.2562C61.3937 91.9598 61.4541 92.0215 61.6354 91.3425L62.4816 87.5149C62.6025 86.8358 62.7233 86.1567 62.7233 85.6011C62.7233 84.3046 62.4211 83.6873 61.8772 83.6873L54.3826 83.6873C53.9596 83.6873 53.5365 84.0577 53.053 84.7985C52.5694 85.5393 52.2068 86.4654 52.0255 87.5149L50.5749 93.9353C48.7013 89.3669 47.6134 83.996 47.6134 78.1929C47.6134 62.08 55.8936 48.9921 66.1684 48.9921L66.108 49.0539ZM56.2563 129.803C53.1134 127.519 50.1518 124.865 47.9156 121.654C60.8497 128.26 75.174 131.409 89.4982 131.47C103.883 131.47 118.086 127.766 131.141 121.654C113.372 143.138 78.2564 145.793 56.2563 129.803ZM112.949 107.394C111.257 107.394 109.564 107.023 107.993 106.344L108.779 102.825C109.02 101.776 109.383 100.85 109.867 100.109C110.35 99.368 110.773 98.9976 111.196 98.9976L118.691 98.9976C119.114 98.9976 119.537 98.6272 120.02 97.8864C120.504 97.1456 120.806 96.2195 121.108 95.17L124.553 79.8597C124.735 79.1806 124.795 78.5016 124.795 77.9459C124.795 76.6495 124.493 76.0321 123.949 76.0321L113.432 76.0321C112.889 76.0321 112.586 75.4148 112.586 74.1183C112.586 72.8219 112.647 72.8836 112.828 72.2046L114.52 64.5494C114.762 63.4999 115.125 62.5739 115.548 61.833C116.031 61.0922 116.454 60.7218 116.878 60.7218C117.301 60.7218 117.724 61.3392 117.724 62.6356C117.724 63.932 117.663 63.8703 117.482 64.5494L116.636 68.377C116.454 69.0561 116.394 69.7352 116.394 70.2908C116.394 71.5872 116.696 72.2046 117.24 72.2046L124.735 72.2046C125.158 72.2046 125.581 71.8342 126.064 71.0933C126.548 70.3525 126.85 69.4265 127.152 68.377L128.542 62.2652C130.477 66.8336 131.564 72.328 131.564 78.2546C131.564 94.3675 123.284 107.455 113.009 107.455L112.949 107.394Z" fill="#2C5E49"/>
</g>
</svg>
