<svg width="30" height="30" viewBox="0 0 30 30" fill="none" xmlns="http://www.w3.org/2000/svg">
<path d="M14.7 2.10007C17.2334 2.09999 19.7081 2.86362 21.8009 4.29129C23.8938 5.71896 25.5076 7.74436 26.4319 10.1032C27.3562 12.462 27.5479 15.0446 26.9821 17.5141C26.4163 19.9835 25.1193 22.2251 23.2602 23.9461C21.4011 25.6672 19.0664 26.7879 16.5607 27.162C14.0551 27.536 11.4948 27.1461 9.21417 26.043C6.9335 24.9399 5.03832 23.1749 3.77597 20.9784C2.51362 18.7818 1.94273 16.2558 2.1378 13.7299C2.14828 13.5923 2.13155 13.4539 2.08857 13.3228C2.04559 13.1916 1.9772 13.0702 1.8873 12.9655C1.79741 12.8608 1.68777 12.7748 1.56464 12.7125C1.44151 12.6501 1.30731 12.6126 1.1697 12.6022C1.03209 12.5917 0.893759 12.6084 0.762612 12.6514C0.631464 12.6944 0.510066 12.7628 0.40535 12.8527C0.300633 12.9426 0.214648 13.0522 0.152305 13.1753C0.0899609 13.2985 0.0524794 13.4327 0.042 13.5703C0.014 13.9455 0 14.3221 0 14.7001C9.98571e-06 18.1074 1.1837 21.409 3.34868 24.0401C5.51365 26.6713 8.52542 28.4686 11.869 29.1248C15.2126 29.781 18.6803 29.2554 21.6791 27.6376C24.678 26.0199 27.0217 23.4107 28.3096 20.2561C29.5974 17.1015 29.7494 13.5975 28.7395 10.3432C27.7296 7.08893 25.6206 4.28656 22.7731 2.41527C19.9256 0.543982 16.5164 -0.279987 13.1286 0.0842587C9.74074 0.448504 6.58465 1.97834 4.2 4.41217V1.05007C4.2 0.771591 4.08938 0.504519 3.89246 0.307606C3.69555 0.110693 3.42848 6.80114e-05 3.15 6.80114e-05C2.87152 6.80114e-05 2.60445 0.110693 2.40754 0.307606C2.21062 0.504519 2.1 0.771591 2.1 1.05007V7.35007C2.1 7.62855 2.21062 7.89562 2.40754 8.09253C2.60445 8.28944 2.87152 8.40007 3.15 8.40007H9.45C9.72848 8.40007 9.99555 8.28944 10.1925 8.09253C10.3894 7.89562 10.5 7.62855 10.5 7.35007C10.5 7.07159 10.3894 6.80452 10.1925 6.60761C9.99555 6.41069 9.72848 6.30007 9.45 6.30007H5.3088C6.48892 4.97667 7.93593 3.91819 9.55458 3.19428C11.1732 2.47037 12.9268 2.09746 14.7 2.10007ZM14.7 7.35007C14.7 7.07159 14.5894 6.80452 14.3925 6.60761C14.1955 6.41069 13.9285 6.30007 13.65 6.30007C13.3715 6.30007 13.1044 6.41069 12.9075 6.60761C12.7106 6.80452 12.6 7.07159 12.6 7.35007V15.7501C12.6 16.0285 12.7106 16.2956 12.9075 16.4925C13.1044 16.6894 13.3715 16.8001 13.65 16.8001H19.95C20.2285 16.8001 20.4955 16.6894 20.6925 16.4925C20.8894 16.2956 21 16.0285 21 15.7501C21 15.4716 20.8894 15.2045 20.6925 15.0076C20.4955 14.8107 20.2285 14.7001 19.95 14.7001H14.7V7.35007Z" fill="#2C5E49"/>
</svg>
