<svg width="971" height="33" viewBox="0 0 971 33" fill="none" xmlns="http://www.w3.org/2000/svg">
<path d="M80.6306 3.19027C78.4368 1.70211 85.7603 2.67763 80.8972 0.455177C81.9112 0.305019 82.9316 0.150156 83.9457 0C84.2028 0.823076 84.4662 1.64415 84.7236 2.46722C83.3618 2.7096 81.9993 2.95193 80.6306 3.1943C80.6306 3.19296 80.6306 3.19161 80.6306 3.19027ZM78.7711 13.4982C80.0191 11.1506 83.9844 10.5247 79.7007 8.35835C79.3604 9.16403 79.0115 9.96954 78.671 10.7752C77.184 10.1503 75.6874 9.52562 74.2003 8.90416C73.6654 9.21132 73.1312 9.51882 72.5964 9.82257C71.9154 8.42251 71.2402 7.01867 70.5591 5.6152C71.1639 5.82012 71.7768 6.0286 72.3815 6.23352C74.7725 5.09659 76.8995 4.78565 80.1453 4.57393C79.8603 4.24265 79.5746 3.91429 79.2897 3.58301C80.9368 4.14648 82.5832 4.71136 84.2234 5.27482C82.7989 5.82794 81.2062 6.44306 79.886 6.95858C81.9987 9.15379 85.725 7.93204 87.6646 7.47418C90.3058 6.84922 89.7089 7.89302 91.6686 7.45605C91.9814 7.38775 92.017 6.56959 92.6354 6.55577C95.7564 6.49088 101.818 6.92454 98.2731 8.83367C93.1363 8.58777 88.7556 10.1208 83.7161 9.56074C85.0491 11.7682 82.3942 12.5194 78.7711 13.4982ZM173.136 6.46916C171.58 7.54129 168.409 7.10862 166.262 6.36443C166.259 6.36443 166.257 6.36443 166.254 6.36443C165.782 6.2005 164.711 4.77569 166.254 4.83375C168.77 4.93324 169.986 7.17608 171.306 5.65347C171.897 5.93692 172.518 6.18913 173.136 6.46916ZM178.604 6.33623C180.147 6.88606 179.447 8.57606 177.515 8.11868C177.515 8.12002 177.515 8.12136 177.515 8.12271C176.708 7.93145 178.291 6.59565 175.399 7.95151C174.809 6.89667 174.227 5.93701 173.644 4.91632C174.352 4.89925 174.998 4.87157 175.74 4.85791C175.24 6.59175 177.061 5.7907 178.604 6.33623ZM100.881 7.879C101.124 6.31919 100.107 6.32904 98.3768 5.24663C100.01 5.29785 101.644 5.3525 103.27 5.40372C102.471 6.22986 101.68 7.05287 100.881 7.879ZM62.5101 7.63732C62.5077 7.63732 62.5052 7.63732 62.5027 7.63732C61.9676 7.8832 61.4309 8.12998 60.9026 8.37245C60.5828 7.81576 60.2667 7.26149 59.9469 6.70481C58.0563 7.22734 56.1555 7.74982 54.2649 8.27577C54.4945 6.57529 57.8884 6.85198 59.758 5.66354C62.5381 6.17585 63.8776 7.16291 64.0585 8.60407C63.5442 8.28316 63.0314 7.95821 62.5101 7.63732ZM517.201 14.4166C517.834 13.9455 518.458 13.4739 519.09 13.0028C518.25 12.7877 517.416 12.6236 516.568 12.3744C514.351 14.4233 514.142 12.6109 511.238 12.7369C502.334 13.1262 504.696 16.3085 496.655 11.6473C503.111 11.869 500.63 9.67884 504.522 7.99179C505.328 9.27593 501.471 12.1721 504.085 12.7732C508.589 11.4141 512.919 10.1484 517.916 9.27072C517.77 9.04876 517.625 8.82602 517.479 8.60407C516.687 8.74409 515.901 8.88498 515.108 9.025C515.963 8.43075 516.799 7.84163 517.668 7.24055C516.57 8.58941 519.369 7.83572 518.994 9.38552C518.827 10.0754 517.59 11.0325 516.861 11.6916C518.744 12.0501 520.675 12.3786 522.58 12.7268C521.593 13.2765 520.607 13.8267 519.627 14.3764C518.822 14.3934 518.022 14.4056 517.216 14.4227C517.211 14.4207 517.206 14.4187 517.201 14.4166ZM922.561 7.24457C920.17 8.84975 915.825 9.11534 913.538 7.32917C916.548 7.30184 919.552 7.2719 922.561 7.24457ZM64.2399 9.79236C63.9693 9.51948 63.7068 9.24955 63.4362 8.97667C64.6314 8.47132 65.8339 7.96945 67.0291 7.46411C67.2585 8.25269 67.4929 9.04143 67.7292 9.8266C66.5688 9.81635 65.4003 9.8026 64.2399 9.79236ZM140.714 8.91423C139.84 8.96195 139.763 8.93609 138.674 8.8236C138.675 8.82427 138.676 8.82494 138.677 8.82561C138.245 8.7836 134.634 8.323 135.036 7.71587C136.829 7.70562 138.742 7.71587 140.577 7.71587C140.633 8.11524 140.645 8.51145 140.714 8.91423ZM119.605 8.55976C119.603 8.55841 119.6 8.55707 119.598 8.55573C118.945 8.46349 118.326 8.27576 117.653 8.24153C120.078 7.28598 120.461 9.00036 122.664 8.51545C124.868 8.02709 126.229 7.08119 128.098 9.42983C127.403 9.78159 126.655 10.2848 125.939 10.6947C122.811 9.75558 121.969 10.6393 119.46 11.5647C119.509 10.5608 119.556 9.56368 119.605 8.55976ZM477.56 9.66548C476.962 10.8265 476.296 9.68726 476.227 9.67353C476.228 9.67219 476.229 9.67085 476.23 9.6695C470.936 10.7448 476.919 9.0268 471.922 8.84575C472.666 8.55555 473.397 8.24914 474.134 7.95554C475.273 8.51548 476.448 9.14995 477.56 9.66548ZM305.531 9.55672C305.483 9.21861 305.424 8.87974 305.376 8.54163C308.379 8.62018 309.144 7.28916 311.639 8.50135C309.603 8.85646 307.568 9.20905 305.531 9.56074C305.531 9.5594 305.531 9.55806 305.531 9.55672ZM155.849 11.3734C152.52 12.0189 150.057 12.3033 146.86 11.2787C146.857 11.2774 146.855 11.2761 146.852 11.2747C146.668 11.2116 147.559 10.5043 147.319 10.3261C146.659 10.4319 145.978 10.5945 145.311 10.7208C145.221 10.1544 145.135 9.58806 145.045 9.025C146.921 9.1855 148.799 9.34587 150.682 9.50636C150.404 9.1751 150.119 8.84671 149.841 8.51545C151.44 8.34472 153.032 8.17461 154.631 8.00388C154.075 8.93249 153.52 9.86132 152.971 10.7933C153.93 10.9879 154.891 11.1754 155.849 11.3734ZM355.522 13.2565C354.993 12.8877 355.971 12.2691 355.151 11.9514C354.331 11.6378 352.819 12.3262 353.173 11.2848C354.278 11.1449 355.437 10.9844 356.563 10.8377C352.941 8.9598 349.328 10.659 349.273 8.34022C352.748 8.94129 355.606 8.66205 358.97 8.01999C358.831 9.86063 355.466 11.4521 357.585 13.18C356.904 13.2039 356.189 13.2388 355.529 13.2525C355.527 13.2539 355.524 13.2552 355.522 13.2565ZM15.598 32.8735C13.5405 32.7335 8.82623 33.4847 6.22662 32.4123C5.5871 32.148 3.45618 28.7246 3.46704 28.2734C3.52954 26.7536 6.13184 26.5468 3.34485 25.5564C4.28241 25.5461 5.1922 25.4891 6.12286 25.4617C5.95599 24.4406 5.79016 23.4222 5.63025 22.4044C4.49738 22.5581 3.36285 22.7126 2.22992 22.8697C2.17432 22.5315 2.11877 22.1927 2.06323 21.8546C6.13635 21.8477 3.73199 20.5428 5.84509 19.3269C3.89923 18.7123 1.9389 18.1007 0 17.4861C1.11896 17.5612 2.43927 17.6168 3.42633 17.7056C3.55835 15.9742 1.20361 16.387 0.80011 16.0662C-1.47272 14.2528 10.0987 15.168 11.0457 12.6483C9.19708 12.3683 7.25745 12.0951 5.36719 11.8185C5.90942 11.5077 6.45856 11.1968 7.00073 10.886C11.2891 12.6239 16.0978 13.2395 21.0948 14.322C21.5463 14.2503 21.9985 14.1767 22.4431 14.1085C22.311 13.3267 22.1862 12.5479 22.0542 11.7661C22.7354 11.6739 23.4249 11.5824 24.1063 11.4902C22.0977 14.065 24.8792 14.03 28.2363 15.6009C26.4502 16.5058 24.2469 15.9572 24.3988 17.6432C30.5291 16.346 37.7078 18.1792 43.6712 16.7147C45.1514 16.3527 45.1468 14.1778 48.6272 14.3784C48.5092 14.6174 48.4888 15.049 48.4124 15.3633C54.4319 14.3216 58.0842 13.6989 64.34 14.761C63.9786 13.9793 63.6233 13.1944 63.2621 12.4127C61.9344 12.802 60.6046 13.1975 59.2839 13.5869C58.3806 12.296 59.7156 11.7263 55.7538 11.74C52.5079 11.7502 54.4401 12.3202 53.5574 12.7027C52.362 13.2249 51.313 12.1976 50.0273 12.7812C49.0334 13.2286 50.1088 14.2937 47.5161 14.0239C48.5586 12.6441 49.6223 11.2194 50.6719 9.82257C51.3043 10.1334 51.9323 10.4489 52.5646 10.7631C51.9252 11.132 51.2966 11.496 50.657 11.8648C52.9089 11.2023 55.0368 10.5775 57.3652 9.89105C56.6075 11.8856 59.0143 11.1378 60.321 10.9021C62.3567 10.5337 60.6127 11.9063 61.9471 11.6775C63.2817 11.4452 64.7208 9.91163 67.1328 10.2395C65.8403 11.1273 67.5987 11.9234 67.2588 12.743C66.9182 13.5624 64.367 13.7439 66.8181 14.6382C71.5306 13.9586 66.4168 10.8377 69.5997 10.3321C73.4225 9.72427 74.332 14.8115 73.1927 15.905C72.2961 16.7657 69.2106 16.5926 68.307 17.4498C73.8329 18.9968 73.881 15.9428 74.8262 15.3451C78.2599 13.1698 75.9532 18.9759 80.0193 16.8758C79.9429 17.9616 79.8809 18.9381 79.8045 19.9795C80.506 19.7814 80.9719 19.5182 81.8196 19.3612C79.3199 17.2456 81.3658 17.3363 82.4158 17.333C84.0702 17.3262 81.5151 16.2943 81.9529 16.0279C83.1345 15.315 85.0034 15.6387 83.8568 14.7067C84.3711 15.1404 84.9286 15.5754 85.4569 16.0057C87.3898 15.4653 91.9319 10.9335 87.6091 11.8487C88.0122 10.165 89.4105 10.9743 90.502 11.2304C91.5928 11.4863 91.5724 10.414 92.5318 10.6121C96.3472 11.4045 93.8514 13.2387 93.2466 14.6765C98.2856 13.6861 93.3524 13.0309 100.614 12.3683C101.316 11.1969 97.9607 9.94695 100.755 9.27072C101.269 11.3058 103.327 12.7677 107.337 13.4439C107.726 12.976 108.114 12.5039 108.504 12.036C110.693 13.9144 109.574 15.8677 113.627 13.5385C111.451 17.8245 112.947 15.0826 116.575 16.8275C117.312 17.1792 115.609 18.0685 116.638 18.5193C117.104 18.7226 118.236 18.0514 119.375 18.5696C119.931 18.8258 122.531 20.4784 124.331 19.6935C123.011 17.617 126.431 15.8505 123.498 14.1327C128.92 14.5562 132.714 13.5592 126.639 16.3904C128.015 17.0188 129.393 17.6445 130.769 18.2695C131.728 17.7743 132.696 17.283 133.662 16.7912C133.808 18.4978 133.661 18.9766 137.44 18.6764C135.8 19.0792 134.168 19.4887 132.521 19.8949C132.465 20.2395 132.236 20.5977 132.291 20.9321C134.308 20.2767 139.987 19.9945 141.363 19.5404C142.739 19.0862 140.081 18.9619 140.477 18.5213C143.779 14.8883 143.517 17.5678 145.885 16.9443C147.276 16.5754 143.956 16.1749 144.7 16.0178C147.458 15.442 148.737 17.3728 151.182 17.3975C150.314 16.3015 149.452 15.1885 148.604 14.0823C151.169 14.1404 154.028 14.1501 156.412 13.7983C157.348 13.661 156.641 12.8459 156.794 12.7913C157.552 12.5112 160.638 12.0676 160.965 12.0642C163.424 12.0577 163.494 13.1867 165.884 13.2485C164.946 13.3441 164.064 13.4302 163.146 13.5224C162.729 15.3527 162.304 17.183 161.887 19.0168C164.229 19.1499 166.572 19.2804 168.921 19.4135C167.205 18.8023 165.482 18.194 163.765 17.5827C166.448 16.104 169.131 14.6219 171.814 13.1397C173.211 14.0481 174.603 14.9563 176 15.8648C179.794 15.6251 179.03 11.9376 180.83 15.1679C181.948 14.8948 183.067 14.6219 184.186 14.3522C184.026 14.8131 183.867 15.2749 183.708 15.7359C185.056 15.4524 186.404 15.1708 187.753 14.8839C186.335 13.2516 184.945 11.5339 183.541 9.94946C186.195 9.59475 186.246 10.9795 186.641 11.3251C187.691 12.2403 189.774 11.0058 190.609 11.8527C190.89 12.1435 188.29 13.0551 189.186 14.1065C189.361 14.3103 192.843 18.175 195.064 17.2827C195.023 16.5825 194.851 15.7241 194.761 14.9625C197.749 14.5372 199.272 18.1918 198.876 19.2161C200.468 18.499 202.794 18.4391 203.121 17.3189C203.934 17.2916 204.741 17.2657 205.554 17.2383C204.707 19.9665 208.099 19.4676 208.321 17.1215C206.924 17.0635 205.525 17.0023 204.128 16.9443C205.185 14.0687 200.939 12.333 209.773 14.9967C211.463 16.4926 206.771 14.7929 208.147 15.9131C210.538 16.5651 212.783 16.0196 215.055 17.0611C217.883 18.3622 214.404 19.6137 220.993 17.9574C206.459 13.8079 222.986 15.1542 229.812 13.8668C231.689 17.9651 237.454 19.2632 245.392 18.044C244.565 16.9033 242.067 17.491 240.628 17.1155C239.19 16.7399 240.746 16.0632 238.954 15.5304C237.161 14.9978 233.354 14.2737 231.539 13.468C233.076 12.8225 240.663 11.2962 235.646 13.1297C239.391 14.2599 241.15 15.4213 245.792 15.6331C247.182 13.8539 247.079 12.7459 251.604 12.6946C248.928 15.1671 254.069 16.8854 252.937 19.4397C249.728 18.8448 251.522 16.3622 249.666 15.1739C249.476 15.0552 246.487 15.6775 245.792 15.6331C248.809 17.8633 249.852 18.6934 247.996 21.347C250.13 21.1148 251.457 21.4479 251.652 20.1809C252.096 20.7306 252.544 21.2807 252.982 21.8304C253.676 21.8167 254.301 21.7658 255.037 21.776C254.023 19.8647 255.989 21.0413 257.386 20.1748C258.783 19.3074 256.908 17.7986 260.745 17.7781C259.466 17.3307 258.297 16.9468 257.06 16.5233C259.534 16.0316 262.016 15.5368 264.49 15.045C262.752 13.8772 258.987 12.1425 259.09 10.606C260.229 11.1861 264.133 10.1666 264.561 10.1247C266.215 9.96758 265.313 10.9366 265.438 10.9605C268.037 11.4314 270.178 11.1015 271.165 12.5698C273.118 11.9073 274.591 12.285 276.662 12.2475C277.802 12.227 277.58 11.1486 278.247 11.3533C282.682 12.7193 278.457 14.1129 287.011 11.46C285.975 10.7087 284.954 9.9402 283.918 9.1821C284.884 8.89864 285.845 8.61362 286.811 8.33015C287.457 8.46676 288.098 8.60441 288.745 8.74102C288.731 10.3699 288.714 12.0022 288.7 13.6312C289.409 13.72 290.121 13.8062 290.83 13.895C289.613 14.0555 288.394 14.2158 287.178 14.3764C287.066 14.663 286.963 14.9497 286.852 15.2364C288.659 15.6803 290.46 16.1283 292.267 16.5757C292.302 16.0091 292.336 15.4385 292.371 14.8718C296.444 15.6607 296.541 16.1404 300.412 14.5798C303.394 14.5969 305.823 12.2277 307.546 11.2304C308.165 11.5479 308.784 11.8695 309.41 12.1871C309.806 11.7158 310.206 11.2465 310.602 10.7752C311.388 11.4309 312.184 12.0867 312.969 12.7389C313.407 11.2507 313.634 10.7861 310.569 10.2637C311.619 8.41266 317.014 9.2292 319.211 9.85077C320.877 10.3224 319.028 11.8664 319.237 12.0542C319.932 12.6922 322.679 12.1417 323.255 12.2475C325.695 12.688 327.404 12.6109 329.608 12.9524C330.037 13.0208 331.236 13.9992 331.338 14.0299C332.13 14.1973 334.086 14.6729 334.308 14.6865C345.782 15.4169 333.522 11.1718 344.191 11.6191C343.871 11.0593 343.578 10.5032 343.265 9.94342C344.071 9.90928 344.885 9.87684 345.691 9.84271C346.713 10.3106 345.477 11.1615 347.506 10.4751C347.374 11.165 347.241 11.8551 347.102 12.5416C347.985 12.1693 348.836 11.8 349.74 11.4278C351.158 13.8218 356.334 14.3655 355.966 17.1759C355.841 18.1322 352.171 19.1134 354.11 20.1346C355.686 20.3356 354.62 19.1935 355.262 19.1336C359.906 18.7169 359.636 20.3178 361.533 19.8909C361.832 19.2048 362.146 18.5053 362.452 17.8123C363.168 18.0137 363.885 18.2152 364.608 18.4166C364.775 17.9555 364.948 17.494 365.115 17.0329C364.441 17.0022 363.682 16.971 363.063 16.9403C363.926 15.1545 371.848 14.3524 368.827 15.8748C367.597 16.4929 365.343 16.2303 366.767 18.34C368.887 18.0361 371.292 17.7256 373.523 17.4216C373.593 17.8758 373.658 18.3309 373.727 18.7851C376.734 18.4911 373.999 16.675 374.005 15.7016C374.693 15.6743 375.388 15.6504 376.076 15.6231C376.367 16.0632 376.644 16.5239 376.95 16.9503C376.978 16.2499 377.363 14.6219 379.413 15.2263C380.731 15.6197 378.655 17.3867 381.169 17.1417C380.981 16.049 380.073 14.7182 382.873 14.3663C383.151 15.5067 383.535 16.5514 383.75 17.7499C387.232 16.6543 388.817 18.4154 392.903 17.1417C395.496 16.3356 399.047 13.4745 400.723 17.8828C402.619 17.9989 402.017 16.9011 402.578 16.6543C405.227 15.4862 407.196 17.5766 407.69 17.6996C410.837 18.4877 412.249 17.7641 414.813 18.7509C414.674 17.9347 414.598 17.162 414.487 16.3663C412.138 17.5889 410.948 17.5315 407.653 17.2686C408.758 17.1047 409.863 16.937 410.968 16.7731C410.787 16.1107 410.608 15.4482 410.435 14.7892C400.245 17.3985 402.622 13.276 411.164 12.3744C411.901 13.6002 412.665 14.8228 413.394 16.0521C418.329 14.1942 420.652 15.807 426.233 16.193C426.896 16.2372 429.313 15.531 430.352 15.4962C430.334 15.4915 430.317 15.4868 430.3 15.4821C430.946 14.3245 430.071 13.7917 429.966 12.7571C430.529 12.6273 431.092 12.4981 431.655 12.3683C432.913 13.157 432.471 13.8049 434.945 13.6171C434.611 12.8316 434.282 12.046 433.948 11.2606C436.659 11.2333 438.433 12.0867 440.956 11.7178C440.532 12.0149 440.113 12.3129 439.69 12.61C445.181 13.3682 440.811 17.986 444.96 15.6875C445.224 16.0904 445.482 16.4971 445.746 16.9C444.036 16.999 442.326 17.095 440.623 17.194C440.588 17.7641 440.551 18.3318 440.523 18.902C442.351 18.7312 444.188 18.5551 446.016 18.3843C444.682 18.7668 443.339 19.1498 442.005 19.5324C444.125 19.8055 446.245 20.0789 448.365 20.3521C446.114 18.2556 449.032 17.9992 448.483 15.9232C452.237 17.6513 455.185 19.9293 461.003 18.4709C462.156 18.1804 461.53 16.7296 464.803 18.4951C464.011 16.1867 468.112 15.1035 467.585 12.9081C466.445 13.0139 465.264 13.0805 464.159 13.2102C465.417 13.9718 465.625 16.0668 463.714 16.6885C461.275 17.4808 457.716 16.0289 457.862 18.3541C456.889 18.2449 455.984 18.1804 455.039 18.0883C455.428 17.5115 455.809 16.931 456.191 16.3542C453.503 17.2585 451.813 16.9644 450.52 15.5103C453.724 15.1756 456.921 14.8445 460.125 14.5133C459.653 14.4144 459.175 14.3148 458.703 14.2193C461.129 12.7336 458.626 11.3265 463.151 11.0089C463.123 11.6883 463.101 12.3682 463.073 13.0511C464.721 11.2342 469.231 11.244 467.792 9.1539C469.155 9.79591 469.433 10.202 470.204 9.07536C473.797 10.6634 476.105 12.6717 474.827 15.0692C476.161 14.6834 477.496 14.297 478.823 13.9111C478.052 13.2555 477.28 12.603 476.508 11.9474C478.83 11.9884 481.168 12.0287 483.483 12.0662C483.705 14.0058 479.014 12.6547 480.368 14.3884C480.639 14.7365 481.888 13.991 482.216 14.187C485.678 16.3077 480.244 14.7756 481.264 16.4005C486.422 16.9025 482.295 19.6253 489.398 17.337C489.586 17.897 489.788 18.4683 489.961 19.0248C492.427 19.0584 492.227 17.7936 494.347 17.5545C495.675 17.4059 497.341 19.6269 498.807 18.1145C499.068 17.8356 496.602 15.1209 501.785 15.2404C505.807 15.333 504.133 17.2514 506.308 17.9312C508.483 18.6108 513.46 15.9507 514.927 18.9664C513.787 18.567 512.336 18.3515 511.071 18.0238C510.557 18.6112 510.056 19.1921 509.549 19.7761C512.44 19.0179 515.429 19.9115 517.375 18.5112C521.233 20.6526 525.548 18.6654 524.38 16.2474C523.11 16.596 524.491 17.6504 522.728 16.9785C522.547 16.415 522.357 15.8543 522.176 15.2907C525.179 15.3591 527.264 15.3432 525.895 17.0611C526.36 17.1021 526.822 17.143 527.287 17.184C527.371 15.9408 527.445 14.693 527.528 13.4499C528.084 13.3099 528.643 13.171 529.199 13.031C529.817 13.304 530.437 13.5803 531.062 13.8567C530.221 15.8239 528.788 15.8889 533.529 16.9886C533.543 16.309 533.563 15.632 533.577 14.9524C537.546 15.8164 537.651 17.4628 542.634 17.4015C538.811 19.7611 536.719 15.5783 536.733 20.3118C535.774 20.001 534.807 19.686 533.847 19.3753C533.701 20.0617 533.557 20.7492 533.418 21.4356C538.568 21.0736 547.123 16.559 550.571 19.5525C550.988 19.1872 551.407 18.8696 551.831 18.477C555.209 20.2837 556.668 16.2276 560.095 18.5636C560.448 18.8088 559.708 22.6195 564.169 22.483C564.058 21.9877 564 21.1541 563.91 20.5293C564.876 20.8332 565.836 21.1511 566.795 21.4618C566.969 21.0044 567.151 20.5471 567.325 20.0862C565.678 19.9086 564.035 19.7281 562.387 19.5505C563.756 19.3934 565.134 19.2362 566.503 19.0792C564.717 18.3315 563.911 18.3236 564.988 17.1256C566.538 17.0538 568.09 16.9777 569.64 16.906C569.8 16.5991 569.958 16.2885 570.118 15.9816C569.367 15.0664 568.609 14.1713 567.858 13.2424C571.897 13.9903 575.408 14.031 578.508 15.8305C579.036 16.1344 577.168 17.3268 580.767 16.2515C580.823 16.8829 580.919 17.3957 580.982 17.9795C585.389 16.2104 586.836 16.7385 591.431 18.0158C588.456 16.8238 591.111 17.5991 591.868 16.9604C592.387 16.5204 590.361 16.5854 590.59 16.1246C590.82 15.667 593.453 13.8192 591.201 13.5969C585.682 17.3844 584.179 12.8561 577.089 14.6765C578.18 14.1881 579.279 13.6986 580.371 13.2102C579.857 12.8792 579.397 12.5789 578.841 12.2274C582.795 12.9683 580.872 12.487 582.497 11.9031C584.123 11.3191 587.079 10.823 589.06 10.6624C589.684 10.612 589.026 11.4615 590.435 11.5406C591.394 11.5952 594.015 10.3359 594.62 11.8205C595.016 12.787 590.805 15.4481 596.628 15.4418C597.724 16.3893 594.932 16.095 594.872 16.2092C594.365 17.3362 597.944 18.1836 599.599 17.3229C599.733 17.2487 598.426 16.3705 599.847 16.0259C603.218 15.2028 605.165 16.21 607.348 17.5727C607.584 15.9743 610.421 14.0655 613.952 14.6563C614.133 14.1989 614.305 13.7375 614.485 13.2767C613.937 13.5188 613.389 13.7576 612.841 13.9997C612.243 13.7129 611.61 13.504 611.026 13.1659C614.577 12.7729 615.079 10.5701 616.782 9.76416C622.609 7.01105 619.077 12.8348 618.026 13.8386C617.269 13.4322 616.536 12.9785 615.785 12.5516C615.869 13.1083 615.953 13.6692 616.03 14.2293C624.753 14.2123 617.358 17.843 621.786 18.8778C622.926 16.1389 626.178 15.875 630.32 17.613C630.779 17.5993 631.239 17.5958 631.698 17.5787C631.775 17.1794 631.773 16.569 631.898 16.3058C636.889 15.8414 637.778 20.0592 638.251 20.4588C640.35 22.231 641.984 19.779 642.603 19.7579C645.209 19.6726 645.967 20.7613 648.448 20.2937C651.117 19.7883 649.292 18.9529 650.104 18.2051C650.755 17.6112 652.86 17.5055 653.73 16.8899C653.384 17.3934 653 17.8871 652.656 18.3924C655.422 19.0787 657.682 19.7477 660.823 19.915C664.368 16.2313 667.384 22.4453 666.161 17.4055C663.186 17.0606 661.523 16.4863 659.931 15.2021C661.883 15.0382 663.838 14.8786 665.791 14.7147C666.36 15.2678 666.765 15.8069 667.439 16.3703C668.898 15.1957 672.282 15.6997 673.61 15.3552C679.831 13.7398 677.906 11.7363 683.585 15.1034C679.492 15.4315 679.499 17.0669 675.44 16.8416C676.316 18.0096 678.378 17.7676 677.044 19.1678C680.97 18.8229 679.701 17.5728 681.229 16.4629C682.547 15.5061 685.202 15.4526 685.052 14.2092C685.323 14.8928 685.533 15.5546 685.804 16.2374C688.347 16.2305 690.891 16.2301 693.434 16.2233C692.35 16.9369 691.266 17.6519 690.182 18.3622C691.001 18.6317 691.822 18.9003 692.641 19.1698C698.897 16.95 709.685 21.0184 707.962 15.4418C710.978 15.2642 711.355 15.9637 712.995 17.0188C713.176 16.5954 713.352 16.2433 713.533 15.7721C715.478 16.2153 716.972 14.6258 718.689 15.039C720.405 15.449 720.831 16.9503 721.081 14.4267C722.193 15.1506 723.299 15.752 724.404 16.4247C725.071 15.8513 725.737 15.2846 726.397 14.7147C727.439 15.0152 728.484 15.3145 729.527 15.615C730.084 14.4103 734.183 14.9296 735.99 14.1206C737.706 15.4191 737.659 19.5077 741.695 18.7751C741.59 17.761 741.488 16.7499 741.384 15.7359C742.308 15.9476 743.234 16.1586 744.165 16.3703C744.221 16.7013 744.269 17.0322 744.325 17.3632C743.852 17.2608 743.386 17.1589 742.913 17.053C743.323 17.6131 743.725 18.1707 744.128 18.7308C745.539 17.901 746.952 17.0711 748.369 16.2414C746.458 15.6131 744.547 14.9845 742.635 14.3562C745.034 13.6117 746.703 14.3543 748.788 13.5244C750.602 14.9244 749.932 15.7311 749.195 17.2504C749.869 17.1207 750.551 16.9955 751.225 16.8657C750.781 18.3852 751.921 19.2906 747.98 19.1678C748.251 19.6012 748.528 20.0144 748.792 20.4649C749.438 20.3966 749.857 20.7629 750.566 20.5958C752.498 20.1381 753.98 17.4692 753.848 16.5334C753.776 16.0432 751.871 16.9807 751.948 16.2877C752.136 14.5979 756.507 15.3566 750.203 13.6594C752.295 12.5836 752.762 13.3949 755.07 13.7057C754.89 13.1426 754.714 12.583 754.54 12.0199C755.61 12.2794 756.682 12.5379 757.752 12.7973C756.264 15.6899 764.154 16.7764 757.052 19.3068C759.15 19.4365 761.242 19.567 763.334 19.7036C762.903 20.0006 762.472 20.2947 762.041 20.5918C761.096 20.4347 760.156 20.2802 759.211 20.1265C760.323 20.6694 761.437 21.209 762.549 21.7519C765.176 21.079 766.206 20.0443 767.408 18.767C764.351 17.8349 765.35 19.1081 762.967 19.3612C763.05 18.5523 762.94 17.8082 763.149 16.9584C764.38 18.6339 768.396 17.415 769.327 17.333C772.161 17.0841 769.939 18.7304 771.835 18.765C773.732 18.7992 775.97 17.8193 777.521 19.4518C777.493 18.5368 777.369 17.5901 777.258 16.757C780.212 16.4564 779.622 17.5374 779.928 17.6774C784.808 19.9792 787.455 18.0359 793.037 17.8003C792.328 17.5168 791.612 17.261 790.896 16.9946C795.107 15.0519 792.27 15.6468 788.614 15.0047C792.041 15.1994 794.004 13.5449 796.423 13.0531C798.841 12.5622 802.989 13.4119 804.505 14.0743C801.036 15.1398 797.295 14.4371 793.444 14.7308C793.882 15.663 794.308 16.4518 794.759 17.476C797.102 15.5197 798.459 16.8277 799.23 17.0873C801.496 17.8485 801.424 16.1694 802.794 17.9755C802.738 17.3542 802.697 16.8318 802.642 16.2515C807.319 16.511 812.365 17.6094 815.41 15.3149C815.688 16.8072 815.897 18.245 816.217 19.768C818.198 18.6447 819.894 19.795 821.562 19.5324C823.223 19.2694 822.591 18.0634 824.544 17.5989C824.905 17.5135 825.658 18.2683 826.548 17.7116C827.446 17.152 830.759 12.991 831.156 16.6261C832.831 16.6432 834.416 16.7761 836.056 16.8375C834.458 17.0424 832.858 17.2409 831.267 17.4458C832.629 18.3268 833.983 19.2052 835.345 20.0862C835.519 19.3007 835.693 18.501 835.86 17.7257C839.53 16.7695 842.193 18.0538 845.898 17.7499C846.516 17.6987 845.057 16.1457 847.802 16.5415C850.547 16.9376 852.585 19.8363 857.262 18.7167C857.498 18.6586 858.883 16.4386 860.559 17.9755C860.94 18.3238 859.335 18.8392 860.211 19.2967C861.086 19.7544 864.994 20.1307 865.3 21.2201C865.258 20.8343 865.014 20.4346 864.896 20.0419C865.563 19.8575 866.237 19.673 866.911 19.4921C866.974 20.1716 867.041 20.8522 867.104 21.5283C870.941 19.9471 872.923 17.3677 878.609 18.2212C877.01 17.2343 875.411 16.2434 873.819 15.2565C873.381 15.9498 872.943 16.6478 872.512 17.3411C869.892 17.0645 867.264 16.7899 864.644 16.5133C864.213 17.3022 863.79 18.0889 863.359 18.8778C862.664 18.7754 861.976 18.6761 861.281 18.5737C861.455 18.0034 861.63 17.436 861.811 16.8657C860.435 17.0057 859.057 17.1487 857.688 17.2887C860.475 13.9223 865.471 17.575 865.111 14.759C865.729 15.1959 866.348 15.6359 866.967 16.0762C867.238 14.7108 868.495 15.1038 870.712 15.3189C870.204 14.6461 869.644 13.9825 869.178 13.3029C871.333 14.2522 875.155 14.16 877.386 14.5254C878.366 14.6859 877.387 15.6759 877.679 15.7922C879.173 16.4002 882.03 14.6728 882.628 14.8094C886.2 15.6223 888.522 18.8972 892.421 16.7389C888.397 16.2061 890.586 16.4311 889.154 15.2323C888.706 14.8565 883.507 14.0724 890.017 14.4207C890.781 14.4642 902.594 16.7269 898.711 18.4609C900.622 17.9076 902.119 17.2679 903.871 16.6804C908.152 21.2501 906.67 16.9572 905.426 14.5939C906.128 14.5836 906.796 14.5596 907.519 14.5596C905.983 17.0425 913.809 17.1967 916.464 15.9433C917.354 15.5266 914.866 14.7319 916.924 14.3562C917.903 14.5303 919.015 14.7558 920.05 14.9504C918.549 13.3795 921.495 12.7741 921.454 11.176C923.337 12.6 924.778 15.6184 923.743 17.2545C925.3 16.592 926.864 15.9304 928.421 15.2646C927.698 14.8855 926.966 14.5097 926.243 14.1306C931.331 15.1347 937.874 12.8499 938.937 16.2071C939.611 16.1832 940.293 16.1626 940.967 16.1387C941.175 15.5717 941.377 15.0037 941.586 14.4368C944.636 14.9285 947.68 15.4234 950.731 15.9151C948.014 16.2669 947.368 17.0739 944.519 16.4186C945.617 17.0706 946.735 17.7263 947.812 18.3783C952.101 16.6229 952.686 15.4692 959.143 15.9916C959.435 16.0155 964.314 17.4876 964.48 17.6311C965.245 18.2868 964.085 19.2393 964.425 19.5706C965.37 20.4996 971.115 22.8321 971.003 23.1838C969.599 27.5007 950.272 27.5579 945.045 27.7799C890.828 30.0817 837.805 27.0022 783.929 27.5282C783.375 27.5363 783.617 28.1736 783.38 28.2009C781.914 28.3609 780.474 27.3677 779.932 27.3268C778.774 27.2423 779.411 28.1599 778.565 28.1606C769.821 28.1503 761.569 27.6108 752.818 27.7678C752.248 27.7781 752.83 27.0439 751.829 27.1737C751.312 27.2448 749.695 28.3711 748.529 28.3882C744.456 28.4462 741.034 28.0851 736.739 28.1022C734.389 28.1124 730.865 28.0166 728.238 28.0337C727.078 28.041 725.869 28.5563 724.723 28.5735C723.096 28.5974 723.428 27.5528 723.178 27.4879C722.08 27.2045 721.928 28.351 720.885 28.3237C718.946 28.2691 718.841 27.5036 716.381 27.5685C714.622 27.6163 710.597 28.2207 708.38 28.3982C703.195 27.5104 696.661 27.8629 691.823 28.1566C688.959 28.3307 688.694 27.2589 687.526 27.2623C683.412 27.2831 680.289 28.6519 676.425 28.6963C671.297 28.7542 666.751 27.849 661.783 27.784C660.977 27.7737 661.162 28.7557 660.371 28.7809C657.445 28.8731 653.703 29.0519 651.096 28.9118C648.191 28.758 647.12 27.3326 644.277 27.6228C643.444 27.709 643.2 28.9588 641.803 29.1193C639.572 29.3716 637.126 28.2695 635.569 28.1465C633.435 27.9826 635.291 29.2558 632.413 29.085C632.295 29.0777 631.864 28.1675 631.246 28.2109C629.446 28.3339 629.625 29.0506 626.99 28.9823C626.737 28.9729 623.245 28.1057 622.897 28.1022C620.854 28.0885 616.74 27.7849 615.53 27.9693C611.206 28.625 614.61 29.9939 610.933 27.0226C609.314 27.7499 607.708 28.487 605.992 29.1938C607.137 28.5347 602.488 27.5835 602.162 27.645C599.459 28.1403 601.069 29.2964 597.643 29.1052C602.168 26.4345 593.222 28.761 591.227 28.8293C581.622 29.1604 572.89 28.494 563.236 28.511C560.004 28.518 555.672 29.0826 552.253 29.0689C551.456 29.0681 552.058 28.4361 551.357 28.4224C550.657 28.4131 551.433 29.1226 550.634 29.085C545.665 28.8391 541.771 27.5003 537.218 29.1737C536.997 28.9317 537.004 28.7405 536.637 28.4748C532.911 29.9739 525.736 27.9579 523.039 27.6812C518.821 27.2512 517.743 28.2645 514.679 28.0599C510.626 27.7867 504.542 25.807 507.259 29.075C504.48 29.1774 501.803 29.2057 498.996 28.9018C498.683 28.8673 498.899 28.0367 498.773 28.0196C497.981 27.9004 497.723 28.6441 497.188 28.6782C495.737 28.7701 498.105 27.8796 496.036 28.1284C494.945 28.2616 494.325 28.9102 491.295 28.9239C473.028 28.9956 453.196 28.7633 434.471 28.654C433.185 28.6472 434.031 29.4505 432.418 29.3992C426.816 29.2215 416.788 27.8696 411.957 28.0538C407.127 28.2383 408.216 29.4129 405.193 29.9048C404.61 30.0004 405.088 29.3309 404.56 29.3207C401.008 29.2592 396.774 28.215 393.896 28.0579C391.993 27.9526 392.145 29.0058 390.825 29.081C388.858 29.1903 386.834 28.1263 385.784 28.0921C380.85 27.9421 377.457 28.7991 372.849 28.362C373.03 28.5938 373.149 28.8083 373.301 29.0367C367.845 28.9991 362.396 28.9615 356.94 28.9239C357.198 29.1357 357.446 29.3492 357.703 29.5644C351.302 29.4482 352.032 27.1532 352.595 31.9994C352.13 32.1701 351.636 32.368 351.192 32.5251C351.372 30.0287 347.5 28.2018 342.572 27.5664C342.211 27.5186 339.786 29.9527 340.05 27.077C339.417 27.7805 339.04 28.2655 338.505 28.8836C337.463 28.013 336.406 27.1527 335.364 26.2855C334.801 26.4152 334.231 26.5404 333.668 26.6702C333.584 27.2337 333.648 27.8188 333.468 28.3721C330.854 28.4574 325.495 27.7608 323.43 27.8323C318.3 28.0133 313.077 29.5369 309.087 27.8907C307.144 28.0585 309.074 29.1646 306.183 29.0246C305.857 28.4647 305.55 27.928 305.209 27.3509C302.847 29.8529 302.353 28.3309 299.116 27.8081C296.927 27.453 295.493 28.0645 293.408 27.9451C292.88 27.9143 292.955 27.18 292.593 27.2039C291.382 27.2796 287.929 28.2904 287.074 28.3177C279.331 28.584 272.679 28.4707 265.305 28.2009C264.513 28.1735 265.54 28.8983 264.72 28.8675C263.4 28.8193 264.177 27.7057 263.412 27.651C261.28 27.5049 261.264 28.6792 258.289 28.7406C248.496 28.942 237.236 28.0599 227.005 27.9813C226.685 27.9813 226.704 28.6694 226.357 28.6762C224.091 28.7098 221.798 27.7798 219.741 27.79C216.328 27.8037 213.763 28.7702 210.392 28.7668C203.802 28.7634 197.915 28.2685 191.138 28.2412C185.591 28.2172 180.774 28.309 174.692 28.3056C148.125 28.2919 121.016 30.4758 94.2689 29.3146C93.5883 29.2839 93.8654 28.676 93.6578 28.7024C91.6837 28.9653 91.5077 29.7855 90.8056 28.0679C88.291 28.4065 87.4973 29.6969 84.4605 29.6047C82.842 29.5563 84.0503 27.5563 81.3121 28.5876C78.8395 29.5198 81.5679 30.6159 74.215 29.4959C74.0204 29.4651 73.0623 28.246 71.5333 28.5634C69.9973 28.8776 71.7752 29.7506 68.0774 30.0135C59.3959 30.6282 48.4075 29.5744 38.3151 29.8987C37.6825 29.9192 31.5909 30.571 30.3883 30.8715C28.0613 31.4555 28.5474 32.3614 25.5248 32.5835C23.1893 32.7542 21.2625 31.728 18.5168 31.9329C18.197 31.9578 17.6613 33.0134 15.598 32.8735ZM527.28 12.3704C527.85 11.3347 528.879 7.52249 532.325 8.68261C532.652 8.79189 530.888 11.4135 532.792 11.8306C530.929 12.1072 529.115 12.1968 527.28 12.3744C527.28 12.373 527.28 12.3717 527.28 12.3704ZM0.659363 8.5658C3.23798 8.75705 5.82599 8.94654 8.40454 9.13779C6.62524 9.59884 4.84308 10.059 3.07074 10.5235C2.26453 9.87128 1.46545 9.21798 0.659363 8.5658ZM321.677 10.3764C321.675 10.3764 321.672 10.3764 321.67 10.3764C324.381 9.88464 327.093 9.39193 329.804 8.90013C329.519 9.26215 329.234 9.62571 328.949 9.98772C326.808 10.558 324.667 11.1274 322.533 11.6977C322.248 11.2572 321.963 10.8169 321.677 10.3764ZM300.26 14.2092C298.53 13.7789 298.953 13.0531 298.001 12.3462C298.001 12.3475 298.001 12.3489 298.001 12.3502C297.75 12.1662 296.579 12.0051 296.127 11.9776C296.293 12.4318 296.509 12.8803 296.69 13.3311C292.651 14.4308 284.754 10.5229 294.978 8.94847C294.826 9.52211 294.68 10.0928 294.526 10.6665C299.608 10.506 305.272 11.7502 300.26 14.2092ZM568.136 10.7188C572.473 8.84045 573.864 8.4444 579.126 9.73194C578.383 10.2643 577.639 10.7967 576.896 11.3291C576.027 10.7861 575.165 10.2468 574.296 9.70374C574.294 9.70374 574.291 9.70374 574.289 9.70374C574.115 10.2741 573.941 10.8454 573.774 11.4157C571.897 11.1835 570.013 10.951 568.136 10.7188ZM134.229 12.8517C133.02 9.10018 133.368 11.2808 136.822 10.4348C138.017 10.1411 136.852 9.48474 137.596 9.37545C141.612 8.7785 141.933 11.292 141.037 12.6C138.764 12.6888 136.467 12.7698 134.236 12.8517C134.233 12.8517 134.231 12.8517 134.229 12.8517ZM30.0216 13.6312C30.0193 13.6312 30.0166 13.6312 30.0142 13.6312C29.91 12.7161 31.5291 12.47 29.7031 11.603C31.0923 11.6064 32.4815 11.6137 33.8776 11.6171C33.4681 11.7023 33.0499 11.7836 32.6404 11.8689C33.0019 12.1831 33.3643 12.5013 33.7257 12.8155C34.2192 11.7637 34.6777 12.3751 36.1371 12.7268C35.7339 11.6033 35.3326 10.4789 34.9296 9.35531C36.6252 9.68993 38.327 10.0257 40.0226 10.3603C40.0435 10.6435 40.0648 10.9271 40.0856 11.2103C40.7249 10.8484 41.3578 10.4825 41.9969 10.1207C42.1707 10.4587 42.338 10.7937 42.5118 11.1317C43.283 10.8757 44.0557 10.6198 44.8268 10.3603C45.0616 11.1792 43.3616 11.5331 46.3752 11.3251C45.4508 12.1651 44.5286 13.0026 43.597 13.8426C39.0722 13.7743 34.5466 13.7029 30.0216 13.6312ZM165.643 11.6977C160.659 11.8548 162.063 11.2613 163.217 9.40365C164.023 10.1684 164.837 10.9329 165.643 11.6977ZM422.403 13.3512C423.849 12.0841 425.3 10.8297 426.781 9.60707C429.728 8.90011 432.676 11.2095 430.459 12.1146C427.79 13.2005 425.002 11.9851 422.403 13.3512ZM489.528 12.7873C485.922 12.1997 489.315 10.6942 490.128 9.81653C491.126 11.227 492.517 11.1026 494.751 11.2667C492.653 11.3581 490.124 12.887 489.528 12.7913C489.528 12.79 489.528 12.7886 489.528 12.7873ZM364.374 11.9273C362.929 11.9652 361.492 12.319 360.2 11.889C360.59 10.6774 363.174 11.7797 361.326 9.9837C362.25 9.95297 363.176 9.92318 364.093 9.88904C363.51 10.6332 364.294 11.1893 364.371 11.9232C364.372 11.9246 364.373 11.9259 364.374 11.9273ZM213.929 10.2697C216.765 11.7041 217.303 11.0903 220.16 10.0965C220.562 11.2644 217.156 13.2207 215.022 13.6513C214.661 12.5244 214.298 11.3966 213.929 10.2697ZM884.728 10.8679C884.047 12.3565 879.023 12.5506 876.527 12.1105C876.824 11.8898 877.122 11.666 877.42 11.4419C879.853 11.2506 882.295 11.0591 884.728 10.8679ZM495.814 11.3674C495.44 11.3238 495.085 11.2912 494.751 11.2667C495.123 11.2504 495.482 11.2758 495.814 11.3674ZM646.807 17.8285C645.619 19.232 649.151 19.7035 644.862 19.1537C644.862 19.1551 644.862 19.1564 644.862 19.1577C642.026 18.7957 641.4 18.6991 638.773 18.5898C639.719 16.7868 645.049 16.1423 637.702 15.7701C637.606 15.7684 637.798 16.8413 636.625 16.6945C636.262 16.6489 635.103 15.7684 633.339 15.5123C632.769 15.4303 628.486 15.1588 634.324 15.1417C634.151 13.8849 634.464 12.6128 634.45 11.3935C636.729 11.0392 638.481 13.5002 640.892 13.4398C644.471 13.3442 646.293 10.8556 646.981 14.1206C643.971 14.9227 638.803 14.942 638.128 12.9786C635.216 12.9547 634.38 14.5633 636.728 15.3592C646.786 14.3483 639.489 17.747 648.296 16.4629C648.4 16.0089 648.763 15.5202 648.707 15.0934C651.396 16.6913 647.231 17.3265 646.807 17.8285ZM625.775 14.3562C627.513 13.3965 629.245 12.4291 630.976 11.466C630.976 13.0302 630.022 14.4338 627.283 15.3149C626.783 14.9941 626.275 14.6736 625.775 14.3562ZM771.953 13.9454C772.204 13.095 772.871 12.3157 773.357 11.5063C773.885 12.2235 786.397 12.9115 780.032 13.615C779.107 13.7175 773.469 12.2138 771.953 13.9454ZM194.239 11.5506C195.712 12.121 197.18 12.6922 198.646 13.2626C196.389 13.6244 194.129 13.9957 191.872 14.3643C192.663 13.4266 193.447 12.4883 194.239 11.5506ZM446.39 14.8436C445.768 14.8117 447.835 13.6422 445.383 13.8265C447.211 13.0786 448.923 12.4455 450.709 11.742C451.245 12.2952 451.785 12.8463 452.32 13.3995C452.738 13.0444 453.163 12.6913 453.58 12.3361C453.33 13.1421 453.107 13.9293 452.843 14.749C449.833 13.0208 449.143 14.9802 446.39 14.8436ZM356.896 17.9956C356.355 16.2439 360.713 15.2023 356.425 14.9222C357.239 13.7713 358.546 13.1677 361.056 13.0652C361.458 13.5053 361.86 13.9423 362.263 14.3824C362.319 13.2046 362.964 12.7669 364.374 11.9273C364.376 11.9286 364.377 11.93 364.378 11.9313C368.193 11.846 367.965 12.2387 368.882 14.175C364.844 13.0821 364.723 14.8511 361.97 15.903C360.08 16.6263 357.612 16.2988 356.896 17.9956ZM758.622 13.9655C761.478 12.4868 758.915 11.1076 763.982 12.6785C763.655 13.0542 763.327 13.4267 763.001 13.8024C761.541 13.8604 760.082 13.9143 758.622 13.9655ZM342.802 11.9917C343.129 14.7033 345.817 16.814 346.276 12.4026C343.656 11.5044 344.936 14.0032 342.802 11.9917ZM488.298 17.0329C483.259 16.9064 484.212 13.846 486.283 12.316C486.603 12.8727 486.922 13.4303 487.235 13.9836C488.118 13.7309 489.001 13.4777 489.884 13.2283C489.355 14.4954 488.827 15.7659 488.298 17.0329ZM253.967 14.9705C257.818 13.0341 249.81 13.8936 252.5 12.6846C254.648 11.7181 257.478 13.6693 256.408 14.892C255.664 14.9261 254.836 14.95 253.974 14.9705C253.972 14.9705 253.969 14.9705 253.967 14.9705ZM276.251 14.4166C275.618 12.3477 276.53 12.9507 273.487 13.323C272.619 13.4289 265.714 12.6518 268.613 14.3663C271.08 14.3663 273.686 14.3962 276.251 14.4166ZM546.545 14.0058C546.591 14.9068 541.275 16.8852 540.593 16.3904C540.593 16.3918 540.593 16.3931 540.593 16.3945C538.751 15.0454 544.359 14.8538 541.926 13.0028C547.313 14.6316 548.924 10.6918 548.549 15.8829C545.376 16.1106 546.878 15.0405 546.545 14.0058ZM950.69 15.1095C950.693 15.1095 950.695 15.1095 950.698 15.1095C950.341 15.0671 947.399 13.7448 947.757 13.2868C951.294 13.6795 950.664 14.5499 953.957 13.1196C954.138 13.5803 954.292 14.0271 954.487 14.4912C953.18 14.7644 952.456 15.3178 950.69 15.1095ZM785.481 15.762C784.181 15.9977 781.809 15.0212 780.328 15.0793C785.041 11.3294 790.673 14.8262 785.481 15.762ZM78.7599 13.5023C78.7635 13.5009 78.7673 13.4996 78.7711 13.4982C78.7699 13.5003 78.7684 13.5022 78.7674 13.5043C78.7649 13.5036 78.7625 13.5029 78.7599 13.5023ZM684.755 13.5123C684.923 13.7558 685.018 13.9672 685.052 14.1528C685.052 14.1703 685.052 14.1877 685.052 14.2052C684.961 13.9772 684.865 13.7467 684.755 13.5123ZM557.594 13.7339C559.809 14.9904 552.431 16.9881 550.045 16.5113C550.212 15.9377 550.238 15.4178 550.627 14.759C552.552 16.2442 557.226 13.5221 557.594 13.7339ZM389.392 14.1951C395.224 14.2292 387.634 19.1906 387.321 15.2323C387.333 15.1557 389.241 14.2018 389.392 14.1951ZM511.604 14.2535C510.119 15.7556 513.104 16.1545 508.33 15.895C508.052 15.5059 507.774 15.1159 507.497 14.7268C508.866 14.5698 510.235 14.4106 511.604 14.2535ZM427.596 20.7086C434.936 19.8719 441.955 18.3958 437.175 14.2535C436.619 14.3866 436.056 14.5152 435.5 14.6483C435.417 16.6692 433.367 15.566 430.366 15.5002C429.939 16.3025 428.275 16.488 427.962 17.1699C427.359 18.4878 429.271 19.4144 427.596 20.7086ZM117.716 17.4196C117.834 17.0747 117.949 16.7279 118.068 16.3864C119.229 15.9971 120.392 15.6096 121.553 15.2203C121.366 15.8822 121.178 16.5441 120.99 17.2061C119.9 17.2778 118.814 17.3499 117.723 17.4216C117.721 17.4209 117.718 17.4203 117.716 17.4196ZM618.623 18.62C619.29 14.8233 616.96 15.5225 612.233 17.4418C614.36 17.8345 616.496 18.2272 618.623 18.62ZM309.65 19.1698C309.498 18.0912 309.347 17.0159 309.187 15.9373C306.678 17.0609 307.144 18.2961 308.346 19.7237C308.784 19.5395 309.213 19.3541 309.65 19.1698ZM273.506 19.629C274.547 19.8541 274.016 18.9832 274.124 19.0006C276.759 19.4583 277.13 19.8578 280.362 19.202C280.758 18.9733 281.148 18.7327 281.544 18.4971C280.049 16.237 278.965 17.4688 275.802 16.1407C276.372 16.9159 276.94 17.6923 277.51 18.4709C275.752 18.3071 274.001 18.1454 272.243 17.9815C272.034 18.2206 271.825 18.4575 271.617 18.6965C272.242 19.0038 272.887 19.3491 273.506 19.629ZM104.292 16.4388C102.582 16.35 100.865 16.2577 99.1547 16.1689C99.0921 16.7255 99.032 17.2859 98.9694 17.8426C100.742 17.3748 102.52 16.9065 104.292 16.4388ZM653.73 16.8899C653.866 16.6924 653.998 16.4938 654.115 16.2917C654.104 16.538 653.956 16.7302 653.73 16.8899ZM955.202 18.1628C957.141 18.5521 959.935 18.2965 962.062 18.3783C961.894 16.9818 956.489 17.3678 954.591 16.5213C954.286 16.7719 954.382 17.999 955.202 18.1628ZM481.327 16.91C480.841 17.6067 480.355 18.3 479.875 18.9966C478.7 18.9215 477.523 18.8421 476.341 18.767C476.307 19.3374 476.272 19.9126 476.238 20.483C481.443 19.742 480.243 21.3867 482.82 23.0086C482.319 20.9769 481.828 18.9451 481.327 16.91ZM49.8867 20.056C53.6469 19.6701 54.9809 18.9493 52.861 17.2383C51.5339 17.631 50.1989 18.0239 48.8717 18.4166C49.2122 18.9629 49.5531 19.5097 49.8867 20.056ZM722.215 18.1789C725.362 17.5396 725.414 19.8358 728.49 18.5535C726.843 18.1301 725.196 17.702 723.556 17.2786C723.113 17.578 722.658 17.8795 722.215 18.1789ZM567.881 24.4849C569.208 25.2837 571.69 21.4866 575.422 24.2896C576.311 23.453 576.869 22.6539 577.633 21.8344C578.078 22.7258 578.584 23.6286 579.008 24.5131C579.01 24.5131 579.012 24.5131 579.015 24.5131C582.4 24.2126 580.205 23.0946 580.282 22.1486C580.318 21.7564 582.83 22.412 582.045 21.5585C580.69 20.0934 575.625 20.9359 575.611 19.1497C577.39 19.7334 580.865 19.2456 579.837 18.054C578.711 16.7461 575.437 18.938 573.351 17.8526C576.34 20.7074 570.168 19.8256 569.466 17.6331C565.844 19.3168 569.173 20.0036 572.885 19.9251C570.619 21.6054 573.954 20.6976 574.503 22.0942C572.167 22.9373 564.148 22.2345 567.881 24.4849ZM397.026 21.3893C399.529 21.281 403.439 22.2414 405.153 20.8234C406.151 19.9972 402.231 19.3575 404.934 18.0601C402.496 18.1866 401.939 18.6934 402.356 19.8304C401.8 19.967 401.238 20.1001 400.682 20.2332C400.425 20.0114 400.161 19.7925 399.904 19.5706C399.612 20.0385 399.319 20.5026 399.034 20.9704C398.443 20.8783 397.846 20.786 397.256 20.6904C397.186 20.9257 397.068 21.1304 397.026 21.3893ZM812.569 18.1084C811.874 18.1221 811.185 18.1357 810.491 18.1527C810.567 18.4297 810.658 18.718 810.746 19.0027C810.809 19.2276 810.872 19.4525 810.935 19.6774C810.532 18.8738 807.222 17.5383 805.827 18.3964C805.126 18.8269 806.721 20.3552 803.749 20.622C805.903 20.5434 807.899 20.3348 809.991 20.2051C809.803 20.6593 809.623 21.1184 809.435 21.5726C809.436 21.5733 809.437 21.5739 809.439 21.5746C810.133 21.677 810.837 21.7844 811.531 21.8868C811.879 20.6266 812.221 19.3686 812.569 18.1084ZM311.688 21.3027C314.058 20.4113 314.851 19.9484 313.732 18.5072C313.73 18.5065 313.727 18.5059 313.725 18.5052C312.842 19.1437 311.959 19.782 311.076 20.4206C311.278 20.7143 311.479 21.009 311.688 21.3027ZM674.147 21.6471C679.186 16.1727 667.838 19.5286 669.998 21.3933C670.096 21.4787 673.674 21.0426 674.147 21.6471ZM489.224 18.7167C487.841 18.7611 486.455 18.8012 485.065 18.8456C485.384 19.5184 485.712 20.1888 486.031 20.8616C487.095 20.1478 488.161 19.4304 489.224 18.7167ZM66.2587 22.5414C67.7146 24.0441 71.4516 24.5885 73.2779 22.9542C72.3187 22.763 71.3591 22.5715 70.3998 22.3802C72.2133 22.1925 74.0064 21.9858 75.8337 21.8082C75.931 19.7147 73.825 20.9293 70.6555 20.3521C70.1648 20.259 67.0272 17.6603 65.9438 19.619C65.7258 20.0215 69.0634 20.2953 66.7439 21.4659C67.7582 21.558 68.6336 21.5375 69.5923 21.5887C69.6619 22.0873 69.7307 22.5865 69.8072 23.0852C68.6216 22.9046 67.4441 22.7219 66.2587 22.5414ZM411.598 21.2262C415.036 21.3417 415.46 20.5052 416.176 19.0268C414.577 19.1942 412.978 19.359 411.379 19.5263C411.456 20.0918 411.522 20.6573 411.598 21.2262ZM96.9877 23.0207C98.8699 23.2625 98.0638 22.0592 98.8213 21.8304C101.685 20.9699 103.638 21.8299 106.466 21.2906C106.279 21.5229 106.107 21.7399 105.926 21.9653C105.928 21.9653 105.931 21.9653 105.933 21.9653C119.327 22.9796 112.292 20.2505 104.277 20.6945C104.09 20.2471 103.909 19.7991 103.722 19.3551C100.135 20.1372 96.8279 20.8897 96.9877 23.0207ZM629.376 21.8344C629.529 22.1145 628.229 23.8941 630.668 23.061C632.6 20.4626 629.432 21.7523 628.639 20.7529C629.299 20.5036 629.974 20.261 630.628 20.0117C626.68 19.2774 626.103 19.8953 627.542 21.7941C627.645 21.9218 629.223 21.5553 629.376 21.8344ZM655.323 23.1154C655.865 19.2869 650.882 21.0084 651.063 22.197C651.751 22.2443 652.286 21.5961 653.015 21.8828C653.752 22.1696 653.94 23.0639 655.323 23.1154ZM512.571 22.1788C512.717 22.1959 514.184 23.805 514.038 22.5454C512.224 19.5639 508.568 21.483 509.208 22.5212C510.417 22.4699 511.223 22.0225 512.571 22.1829C512.571 22.1815 512.571 22.1802 512.571 22.1788ZM43.5823 23.4437C43.6518 23.5505 47.3105 24.1972 47.7827 23.5967C48.1718 22.9206 48.3651 22.196 48.6569 21.4961C46.641 22.145 42.5609 21.6507 43.5897 23.4437C43.5872 23.4437 43.5848 23.4437 43.5823 23.4437Z" fill="#2C5E49"/>
</svg>
