<svg width="24" height="24" viewBox="0 0 24 24" fill="none" xmlns="http://www.w3.org/2000/svg">
<path d="M22.6988 5.94275C22.6447 5.90898 22.583 5.88953 22.5193 5.88625C22.4557 5.88297 22.3922 5.89596 22.335 5.924C18.1753 7.9565 15.2316 7.01525 12.1163 6.01775C9.00094 5.02025 5.76844 3.98619 1.335 6.15088C1.27189 6.1818 1.21873 6.22984 1.1816 6.28951C1.14447 6.34919 1.12486 6.4181 1.125 6.48838V17.7384C1.12487 17.8021 1.14099 17.8648 1.17183 17.9206C1.20267 17.9764 1.24721 18.0234 1.30125 18.0571C1.35529 18.0909 1.41705 18.1104 1.4807 18.1136C1.54434 18.1169 1.60777 18.1039 1.665 18.0759C5.82469 16.0434 8.76844 16.9846 11.8838 17.9821C13.6519 18.5446 15.4538 19.1249 17.49 19.1249C19.0472 19.1249 20.7422 18.7874 22.6631 17.849C22.7262 17.8181 22.7794 17.77 22.8165 17.7104C22.8537 17.6507 22.8733 17.5818 22.8731 17.5115V6.2615C22.8735 6.19795 22.8576 6.13536 22.8271 6.0796C22.7966 6.02384 22.7524 5.97675 22.6988 5.94275ZM22.125 17.2753C18.0759 19.1756 15.1781 18.2484 12.1144 17.2678C10.3463 16.7053 8.54438 16.1259 6.50813 16.1259C5.10188 16.1259 3.57563 16.4071 1.875 17.1515V6.72463C5.92406 4.82432 8.82188 5.7515 11.8856 6.73213C14.8781 7.68744 17.9691 8.67838 22.125 6.84838V17.2753ZM12 9.37494C11.4808 9.37494 10.9733 9.52889 10.5416 9.81733C10.1099 10.1058 9.7735 10.5157 9.57482 10.9954C9.37614 11.4751 9.32415 12.0029 9.42544 12.5121C9.52673 13.0213 9.77673 13.489 10.1438 13.8561C10.511 14.2232 10.9787 14.4732 11.4879 14.5745C11.9971 14.6758 12.5249 14.6238 13.0045 14.4251C13.4842 14.2264 13.8942 13.89 14.1826 13.4583C14.471 13.0266 14.625 12.5191 14.625 11.9999C14.625 11.3037 14.3484 10.6361 13.8562 10.1438C13.3639 9.6515 12.6962 9.37494 12 9.37494ZM12 13.8749C11.6292 13.8749 11.2666 13.765 10.9583 13.5589C10.65 13.3529 10.4096 13.0601 10.2677 12.7175C10.1258 12.3749 10.0887 11.9979 10.161 11.6341C10.2334 11.2704 10.412 10.9363 10.6742 10.6741C10.9364 10.4119 11.2705 10.2333 11.6342 10.161C11.9979 10.0886 12.3749 10.1258 12.7175 10.2677C13.0601 10.4096 13.353 10.6499 13.559 10.9582C13.765 11.2666 13.875 11.6291 13.875 11.9999C13.875 12.4972 13.6775 12.9741 13.3258 13.3258C12.9742 13.6774 12.4973 13.8749 12 13.8749ZM4.875 8.99994V13.4999C4.875 13.5994 4.83549 13.6948 4.76517 13.7651C4.69484 13.8354 4.59946 13.8749 4.5 13.8749C4.40054 13.8749 4.30516 13.8354 4.23484 13.7651C4.16451 13.6948 4.125 13.5994 4.125 13.4999V8.99994C4.125 8.90048 4.16451 8.8051 4.23484 8.73478C4.30516 8.66445 4.40054 8.62494 4.5 8.62494C4.59946 8.62494 4.69484 8.66445 4.76517 8.73478C4.83549 8.8051 4.875 8.90048 4.875 8.99994ZM19.125 14.9999V10.4999C19.125 10.4005 19.1645 10.3051 19.2348 10.2348C19.3052 10.1644 19.4005 10.1249 19.5 10.1249C19.5995 10.1249 19.6948 10.1644 19.7652 10.2348C19.8355 10.3051 19.875 10.4005 19.875 10.4999V14.9999C19.875 15.0994 19.8355 15.1948 19.7652 15.2651C19.6948 15.3354 19.5995 15.3749 19.5 15.3749C19.4005 15.3749 19.3052 15.3354 19.2348 15.2651C19.1645 15.1948 19.125 15.0994 19.125 14.9999Z" fill="white"/>
</svg>
