<svg width="32" height="32" viewBox="0 0 32 32" fill="none" xmlns="http://www.w3.org/2000/svg">
<path d="M26.8572 4.28585C26.8572 4.05853 26.9475 3.84051 27.1082 3.67976C27.269 3.51902 27.487 3.42871 27.7143 3.42871C27.9416 3.42871 28.1596 3.51902 28.3204 3.67976C28.4811 3.84051 28.5714 4.05853 28.5714 4.28585V27.7144C28.5714 27.9418 28.4811 28.1598 28.3204 28.3205C28.1596 28.4813 27.9416 28.5716 27.7143 28.5716C27.487 28.5716 27.269 28.4813 27.1082 28.3205C26.9475 28.1598 26.8572 27.9418 26.8572 27.7144V4.28585ZM3.42859 6.00471C3.42859 3.92928 5.76116 2.70871 7.4663 3.89271L21.7566 13.8127C22.0965 14.0486 22.3744 14.3629 22.5669 14.7291C22.7593 15.0953 22.8606 15.5026 22.862 15.9163C22.8635 16.33 22.7651 16.7379 22.5753 17.1055C22.3854 17.473 22.1097 17.7893 21.7714 18.0276L7.48116 28.0961C5.7783 29.2961 3.42859 28.0801 3.42859 25.9944V6.00471ZM6.48916 5.30071C6.3606 5.21137 6.21002 5.15894 6.05377 5.14913C5.89752 5.13931 5.74156 5.17247 5.60283 5.24502C5.46409 5.31757 5.34788 5.42673 5.26679 5.56065C5.18571 5.69458 5.14285 5.84815 5.14287 6.00471V25.9944C5.14289 26.1514 5.18604 26.3054 5.2676 26.4396C5.34917 26.5738 5.46602 26.6829 5.6054 26.7552C5.74479 26.8275 5.90135 26.8601 6.058 26.8495C6.21466 26.8389 6.36538 26.7854 6.49373 26.695L20.784 16.6264C20.8969 16.5471 20.989 16.4416 21.0524 16.319C21.1158 16.1965 21.1487 16.0604 21.1483 15.9224C21.1478 15.7844 21.1141 15.6485 21.0498 15.5263C20.9856 15.4042 20.8929 15.2993 20.7794 15.2207L6.48916 5.30071Z" fill="white"/>
</svg>
