<svg width="977" height="33" viewBox="0 0 977 33" fill="none" xmlns="http://www.w3.org/2000/svg">
<path d="M81.1282 3.19027C78.9211 1.70211 86.2896 2.67763 81.3967 0.455177C82.417 0.305019 83.4437 0.150156 84.4639 0C84.7227 0.823076 84.9879 1.64415 85.2465 2.46722C83.8764 2.7096 82.5055 2.95193 81.1282 3.1943C81.1282 3.19296 81.1282 3.19161 81.1282 3.19027ZM79.2574 13.4982C80.5131 11.1506 84.5028 10.5247 80.1929 8.35835C79.8503 9.16403 79.4993 9.96954 79.1567 10.7752C77.6605 10.1503 76.1547 9.52562 74.6583 8.90416C74.1202 9.21132 73.5826 9.51882 73.0446 9.82257C72.3594 8.42251 71.68 7.01867 70.9947 5.6152C71.6032 5.82012 72.2198 6.0286 72.8284 6.23352C75.2339 5.09659 77.3743 4.78565 80.6401 4.57393C80.3533 4.24265 80.0659 3.91429 79.7792 3.58301C81.4366 4.14648 83.0929 4.71136 84.7435 5.27482C83.3101 5.82794 81.7075 6.44306 80.3792 6.95858C82.5048 9.15379 86.2543 7.93204 88.2058 7.47418C90.8632 6.84922 90.2628 7.89302 92.2346 7.45605C92.5494 7.38775 92.585 6.56959 93.2074 6.55577C96.3475 6.49088 102.447 6.92454 98.8798 8.83367C93.7114 8.58777 89.3034 10.1208 84.2328 9.56074C85.5743 11.7682 82.9028 12.5194 79.2574 13.4982ZM174.205 6.46916C172.639 7.54129 169.449 7.10862 167.288 6.36443C167.286 6.36443 167.283 6.36443 167.281 6.36443C166.805 6.2005 165.728 4.77569 167.281 4.83375C169.812 4.93324 171.035 7.17608 172.364 5.65347C172.959 5.93692 173.583 6.18913 174.205 6.46916ZM179.706 6.33623C181.259 6.88606 180.555 8.57606 178.61 8.11868C178.61 8.12002 178.61 8.12136 178.61 8.12271C177.799 7.93145 179.392 6.59565 176.482 7.95151C175.888 6.89667 175.303 5.93701 174.716 4.91632C175.428 4.89925 176.078 4.87157 176.825 4.85791C176.322 6.59175 178.154 5.7907 179.706 6.33623ZM101.504 7.879C101.748 6.31919 100.725 6.32904 98.9841 5.24663C100.627 5.29785 102.271 5.3525 103.907 5.40372C103.103 6.22986 102.308 7.05287 101.504 7.879ZM62.8961 7.63732C62.8936 7.63732 62.8911 7.63732 62.8885 7.63732C62.3502 7.8832 61.8101 8.12998 61.2785 8.37245C60.9569 7.81576 60.6387 7.26149 60.317 6.70481C58.4147 7.22734 56.5022 7.74982 54.5998 8.27577C54.831 6.57529 58.2457 6.85198 60.127 5.66354C62.9241 6.17585 64.2721 7.16291 64.4539 8.60407C63.9365 8.28316 63.4203 7.95821 62.8961 7.63732ZM520.394 14.4166C521.031 13.9455 521.659 13.4739 522.295 13.0028C521.449 12.7877 520.61 12.6236 519.757 12.3744C517.526 14.4233 517.317 12.6109 514.394 12.7369C505.435 13.1262 507.812 16.3085 499.721 11.6473C506.217 11.869 503.721 9.67884 507.637 7.99179C508.448 9.27593 504.568 12.1721 507.197 12.7732C511.729 11.4141 516.086 10.1484 521.114 9.27072C520.967 9.04876 520.821 8.82602 520.674 8.60407C519.877 8.74409 519.086 8.88498 518.289 9.025C519.149 8.43075 519.99 7.84163 520.864 7.24055C519.759 8.58941 522.575 7.83572 522.198 9.38552C522.03 10.0754 520.786 11.0325 520.052 11.6916C521.947 12.0501 523.89 12.3786 525.806 12.7268C524.813 13.2765 523.821 13.8267 522.836 14.3764C522.025 14.3934 521.22 14.4056 520.409 14.4227C520.404 14.4207 520.399 14.4187 520.394 14.4166ZM928.257 7.24457C925.851 8.84975 921.479 9.11534 919.178 7.32917C922.207 7.30184 925.229 7.2719 928.257 7.24457ZM64.6365 9.79236C64.3641 9.51948 64.1002 9.24955 63.8278 8.97667C65.0303 8.47132 66.2402 7.96945 67.4429 7.46411C67.6736 8.25269 67.9096 9.04143 68.1473 9.8266C66.9797 9.81635 65.8041 9.8026 64.6365 9.79236ZM141.583 8.91423C140.703 8.96195 140.625 8.93609 139.53 8.8236C139.531 8.82427 139.532 8.82494 139.533 8.82561C139.099 8.7836 135.465 8.323 135.87 7.71587C137.674 7.70562 139.599 7.71587 141.445 7.71587C141.501 8.11524 141.514 8.51145 141.583 8.91423ZM120.343 8.55976C120.341 8.55841 120.338 8.55707 120.336 8.55573C119.679 8.46349 119.057 8.27576 118.379 8.24153C120.819 7.28598 121.205 9.00036 123.422 8.51545C125.638 8.02709 127.008 7.08119 128.889 9.42983C128.19 9.78159 127.437 10.2848 126.716 10.6947C123.569 9.75558 122.722 10.6393 120.198 11.5647C120.247 10.5608 120.294 9.56368 120.343 8.55976ZM480.509 9.66548C479.907 10.8265 479.237 9.68726 479.167 9.67353C479.168 9.67219 479.169 9.67085 479.171 9.6695C473.844 10.7448 479.864 9.0268 474.836 8.84575C475.584 8.55555 476.32 8.24914 477.061 7.95554C478.208 8.51548 479.39 9.14995 480.509 9.66548ZM307.418 9.55672C307.369 9.21861 307.31 8.87974 307.261 8.54163C310.282 8.62018 311.053 7.28916 313.563 8.50135C311.515 8.85646 309.466 9.20905 307.418 9.56074C307.418 9.5594 307.418 9.55806 307.418 9.55672ZM156.812 11.3734C153.461 12.0189 150.983 12.3033 147.766 11.2787C147.764 11.2774 147.761 11.2761 147.759 11.2747C147.573 11.2116 148.47 10.5043 148.228 10.3261C147.565 10.4319 146.879 10.5945 146.208 10.7208C146.117 10.1544 146.031 9.58806 145.94 9.025C147.828 9.1855 149.717 9.34587 151.612 9.50636C151.333 9.1751 151.046 8.84671 150.766 8.51545C152.375 8.34472 153.977 8.17461 155.585 8.00388C155.026 8.93249 154.468 9.86132 153.916 10.7933C154.88 10.9879 155.847 11.1754 156.812 11.3734ZM357.717 13.2565C357.185 12.8877 358.169 12.2691 357.344 11.9514C356.519 11.6378 354.997 12.3262 355.354 11.2848C356.465 11.1449 357.632 10.9844 358.764 10.8377C355.12 8.9598 351.485 10.659 351.429 8.34022C354.926 8.94129 357.801 8.66205 361.186 8.01999C361.047 9.86063 357.661 11.4521 359.793 13.18C359.108 13.2039 358.388 13.2388 357.724 13.2525C357.722 13.2539 357.719 13.2552 357.717 13.2565ZM15.6942 32.8735C13.6239 32.7335 8.88068 33.4847 6.26501 32.4123C5.62158 32.148 3.47742 28.7246 3.48834 28.2734C3.55145 26.7536 6.16956 26.5468 3.36542 25.5564C4.30884 25.5461 5.22418 25.4891 6.16064 25.4617C5.99286 24.4406 5.82581 23.4222 5.66498 22.4044C4.52496 22.5581 3.38348 22.7126 2.24359 22.8697C2.18756 22.5315 2.13184 22.1927 2.07587 21.8546C6.17432 21.8477 3.755 20.5428 5.88104 19.3269C3.92328 18.7123 1.95081 18.1007 0 17.4861C1.12585 17.5612 2.45428 17.6168 3.44739 17.7056C3.5802 15.9742 1.21118 16.387 0.804932 16.0662C-1.48181 14.2528 10.1609 15.168 11.1138 12.6483C9.25372 12.3683 7.30237 12.0951 5.40027 11.8185C5.94592 11.5077 6.49847 11.1968 7.04395 10.886C11.3587 12.6239 16.1972 13.2395 21.225 14.322C21.6792 14.2503 22.1343 14.1767 22.5815 14.1085C22.4489 13.3267 22.3229 12.5479 22.1903 11.7661C22.8757 11.6739 23.5696 11.5824 24.2549 11.4902C22.2343 14.065 25.0325 14.03 28.4106 15.6009C26.6132 16.5058 24.3966 15.9572 24.5494 17.6432C30.7173 16.346 37.9407 18.1792 43.9408 16.7147C45.4301 16.3527 45.4255 14.1778 48.9274 14.3784C48.8085 14.6174 48.7882 15.049 48.7113 15.3633C54.7679 14.3216 58.4427 13.6989 64.7371 14.761C64.3735 13.9793 64.0162 13.1944 63.6526 12.4127C62.3169 12.802 60.9786 13.1975 59.6499 13.5869C58.741 12.296 60.0842 11.7263 56.0981 11.74C52.8318 11.7502 54.7763 12.3202 53.8879 12.7027C52.6852 13.2249 51.6298 12.1976 50.3362 12.7812C49.3361 13.2286 50.418 14.2937 47.8093 14.0239C48.8584 12.6441 49.9286 11.2194 50.9847 9.82257C51.6212 10.1334 52.2526 10.4489 52.8892 10.7631C52.2458 11.132 51.6132 11.496 50.9698 11.8648C53.2357 11.2023 55.3766 10.5775 57.7193 9.89105C56.9569 11.8856 59.3786 11.1378 60.6934 10.9021C62.7416 10.5337 60.9868 11.9063 62.3296 11.6775C63.6724 11.4452 65.1204 9.91163 67.5473 10.2395C66.2466 11.1273 68.0159 11.9234 67.674 12.743C67.3312 13.5624 64.7644 13.7439 67.2305 14.6382C71.9722 13.9586 66.8269 10.8377 70.0294 10.3321C73.8757 9.72427 74.791 14.8115 73.6446 15.905C72.7423 16.7657 69.6379 16.5926 68.7287 17.4498C74.2886 18.9968 74.3371 15.9428 75.2881 15.3451C78.7428 13.1698 76.4224 18.9759 80.5134 16.8758C80.4364 17.9616 80.3741 18.9381 80.2971 19.9795C81.0031 19.7814 81.4717 19.5182 82.3246 19.3612C79.8096 17.2456 81.8682 17.3363 82.9246 17.333C84.5894 17.3262 82.0181 16.2943 82.4589 16.0279C83.6478 15.315 85.528 15.6387 84.3745 14.7067C84.892 15.1404 85.4529 15.5754 85.9846 16.0057C87.9291 15.4653 92.4996 10.9335 88.1499 11.8487C88.5554 10.165 89.9625 10.9743 91.0607 11.2304C92.1583 11.4863 92.1379 10.414 93.103 10.6121C96.9421 11.4045 94.4307 13.2387 93.8223 14.6765C98.8924 13.6861 93.9288 13.0309 101.235 12.3683C101.942 11.1969 98.5656 9.94695 101.377 9.27072C101.895 11.3058 103.965 12.7677 108 13.4439C108.391 12.976 108.782 12.5039 109.174 12.036C111.377 13.9144 110.251 15.8677 114.328 13.5385C112.139 17.8245 113.644 15.0826 117.295 16.8275C118.036 17.1792 116.323 18.0685 117.358 18.5193C117.827 18.7226 118.966 18.0514 120.112 18.5696C120.672 18.8258 123.288 20.4784 125.099 19.6935C123.77 17.617 127.212 15.8505 124.26 14.1327C129.716 14.5562 133.533 13.5592 127.421 16.3904C128.806 17.0188 130.192 17.6445 131.576 18.2695C132.542 17.7743 133.515 17.283 134.487 16.7912C134.634 18.4978 134.487 18.9766 138.289 18.6764C136.639 19.0792 134.996 19.4887 133.339 19.8949C133.283 20.2395 133.052 20.5977 133.108 20.9321C135.137 20.2767 140.851 19.9945 142.235 19.5404C143.62 19.0862 140.946 18.9619 141.345 18.5213C144.666 14.8883 144.403 17.5678 146.786 16.9443C148.185 16.5754 144.845 16.1749 145.593 16.0178C148.368 15.442 149.655 17.3728 152.116 17.3975C151.242 16.3015 150.375 15.1885 149.522 14.0823C152.102 14.1404 154.979 14.1501 157.378 13.7983C158.32 13.661 157.608 12.8459 157.762 12.7913C158.525 12.5112 161.63 12.0676 161.958 12.0642C164.433 12.0577 164.503 13.1867 166.908 13.2485C165.964 13.3441 165.076 13.4302 164.154 13.5224C163.734 15.3527 163.306 17.183 162.886 19.0168C165.243 19.1499 167.6 19.2804 169.964 19.4135C168.237 18.8023 166.503 18.194 164.776 17.5827C167.476 16.104 170.175 14.6219 172.875 13.1397C174.28 14.0481 175.68 14.9563 177.086 15.8648C180.904 15.6251 180.135 11.9376 181.946 15.1679C183.072 14.8948 184.197 14.6219 185.323 14.3522C185.162 14.8131 185.003 15.2749 184.842 15.7359C186.199 15.4524 187.555 15.1708 188.912 14.8839C187.485 13.2516 186.087 11.5339 184.674 9.94946C187.344 9.59475 187.396 10.9795 187.794 11.3251C188.85 12.2403 190.946 11.0058 191.785 11.8527C192.069 12.1435 189.452 13.0551 190.354 14.1065C190.53 14.3103 194.034 18.175 196.269 17.2827C196.227 16.5825 196.054 15.7241 195.963 14.9625C198.969 14.5372 200.502 18.1918 200.104 19.2161C201.705 18.499 204.046 18.4391 204.375 17.3189C205.193 17.2916 206.005 17.2657 206.823 17.2383C205.971 19.9665 209.384 19.4676 209.608 17.1215C208.202 17.0635 206.794 17.0023 205.389 16.9443C206.452 14.0687 202.18 12.333 211.069 14.9967C212.768 16.4926 208.048 14.7929 209.432 15.9131C211.838 16.5651 214.096 16.0196 216.383 17.0611C219.229 18.3622 215.728 19.6137 222.357 17.9574C207.733 13.8079 224.363 15.1542 231.231 13.8668C233.12 17.9651 238.92 19.2632 246.907 18.044C246.075 16.9033 243.562 17.491 242.114 17.1155C240.666 16.7399 242.233 16.0632 240.429 15.5304C238.625 14.9978 234.794 14.2737 232.968 13.468C234.515 12.8225 242.149 11.2962 237.101 13.1297C240.869 14.2599 242.639 15.4213 247.309 15.6331C248.708 13.8539 248.605 12.7459 253.157 12.6946C250.464 15.1671 255.638 16.8854 254.499 19.4397C251.27 18.8448 253.075 16.3622 251.208 15.1739C251.016 15.0552 248.008 15.6775 247.309 15.6331C250.345 17.8633 251.394 18.6934 249.527 21.347C251.674 21.1148 253.01 21.4479 253.205 20.1809C253.653 20.7306 254.103 21.2807 254.543 21.8304C255.242 21.8167 255.871 21.7658 256.612 21.776C255.592 19.8647 257.569 21.0413 258.975 20.1748C260.38 19.3074 258.495 17.7986 262.355 17.7781C261.068 17.3307 259.892 16.9468 258.647 16.5233C261.136 16.0316 263.634 15.5368 266.123 15.045C264.375 13.8772 260.586 12.1425 260.689 10.606C261.836 11.1861 265.764 10.1666 266.194 10.1247C267.858 9.96758 266.951 10.9366 267.077 10.9605C269.692 11.4314 271.846 11.1015 272.839 12.5698C274.804 11.9073 276.286 12.285 278.37 12.2475C279.517 12.227 279.294 11.1486 279.965 11.3533C284.427 12.7193 280.176 14.1129 288.783 11.46C287.741 10.7087 286.713 9.9402 285.671 9.1821C286.643 8.89864 287.609 8.61362 288.582 8.33015C289.232 8.46676 289.877 8.60441 290.527 8.74102C290.513 10.3699 290.496 12.0022 290.482 13.6312C291.196 13.72 291.912 13.8062 292.625 13.895C291.401 14.0555 290.175 14.2158 288.951 14.3764C288.839 14.663 288.735 14.9497 288.623 15.2364C290.441 15.6803 292.253 16.1283 294.071 16.5757C294.107 16.0091 294.141 15.4385 294.176 14.8718C298.274 15.6607 298.372 16.1404 302.267 14.5798C305.267 14.5969 307.711 12.2277 309.445 11.2304C310.067 11.5479 310.691 11.8695 311.32 12.1871C311.718 11.7158 312.121 11.2465 312.52 10.7752C313.31 11.4309 314.111 12.0867 314.901 12.7389C315.342 11.2507 315.57 10.7861 312.486 10.2637C313.542 8.41266 318.971 9.2292 321.181 9.85077C322.858 10.3224 320.998 11.8664 321.207 12.0542C321.907 12.6922 324.671 12.1417 325.251 12.2475C327.706 12.688 329.426 12.6109 331.643 12.9524C332.074 13.0208 333.281 13.9992 333.383 14.0299C334.181 14.1973 336.149 14.6729 336.372 14.6865C347.917 15.4169 335.581 11.1718 346.316 11.6191C345.994 11.0593 345.699 10.5032 345.384 9.94342C346.195 9.90928 347.015 9.87684 347.825 9.84271C348.853 10.3106 347.61 11.1615 349.652 10.4751C349.519 11.165 349.385 11.8551 349.245 12.5416C350.133 12.1693 350.99 11.8 351.899 11.4278C353.326 13.8218 358.534 14.3655 358.164 17.1759C358.038 18.1322 354.345 19.1134 356.297 20.1346C357.882 20.3356 356.809 19.1935 357.456 19.1336C362.128 18.7169 361.856 20.3178 363.766 19.8909C364.066 19.2048 364.382 18.5053 364.69 17.8123C365.41 18.0137 366.132 18.2152 366.859 18.4166C367.027 17.9555 367.202 17.494 367.37 17.0329C366.691 17.0022 365.927 16.971 365.305 16.9403C366.173 15.1545 374.144 14.3524 371.104 15.8748C369.866 16.4929 367.599 16.2303 369.032 18.34C371.165 18.0361 373.585 17.7256 375.83 17.4216C375.9 17.8758 375.965 18.3309 376.035 18.7851C379.06 18.4911 376.309 16.675 376.314 15.7016C377.006 15.6743 377.706 15.6504 378.398 15.6231C378.691 16.0632 378.97 16.5239 379.277 16.9503C379.305 16.2499 379.693 14.6219 381.755 15.2263C383.082 15.6197 380.993 17.3867 383.522 17.1417C383.333 16.049 382.42 14.7182 385.237 14.3663C385.516 15.5067 385.903 16.5514 386.12 17.7499C389.623 16.6543 391.217 18.4154 395.329 17.1417C397.938 16.3356 401.511 13.4745 403.197 17.8828C405.105 17.9989 404.499 16.9011 405.064 16.6543C407.728 15.4862 409.71 17.5766 410.207 17.6996C413.374 18.4877 414.794 17.7641 417.374 18.7509C417.234 17.9347 417.158 17.162 417.046 16.3663C414.682 17.5889 413.485 17.5315 410.17 17.2686C411.281 17.1047 412.394 16.937 413.505 16.7731C413.324 16.1107 413.143 15.4482 412.969 14.7892C402.716 17.3985 405.107 13.276 413.703 12.3744C414.444 13.6002 415.212 14.8228 415.947 16.0521C420.912 14.1942 423.249 15.807 428.864 16.193C429.532 16.2372 431.963 15.531 433.009 15.4962C432.991 15.4915 432.974 15.4868 432.956 15.4821C433.606 14.3245 432.726 13.7917 432.621 12.7571C433.187 12.6273 433.754 12.4981 434.32 12.3683C435.585 13.157 435.141 13.8049 437.63 13.6171C437.294 12.8316 436.963 12.046 436.627 11.2606C439.355 11.2333 441.14 12.0867 443.679 11.7178C443.252 12.0149 442.831 12.3129 442.404 12.61C447.929 13.3682 443.532 17.986 447.708 15.6875C447.973 16.0904 448.232 16.4971 448.498 16.9C446.778 16.999 445.056 17.095 443.343 17.194C443.308 17.7641 443.271 18.3318 443.243 18.902C445.082 18.7312 446.93 18.5551 448.77 18.3843C447.427 18.7668 446.076 19.1498 444.734 19.5324C446.866 19.8055 449 20.0789 451.133 20.3521C448.868 18.2556 451.804 17.9992 451.252 15.9232C455.029 17.6513 457.995 19.9293 463.849 18.4709C465.009 18.1804 464.379 16.7296 467.673 18.4951C466.876 16.1867 471.002 15.1035 470.472 12.9081C469.325 13.0139 468.136 13.0805 467.025 13.2102C468.29 13.9718 468.5 16.0668 466.577 16.6885C464.122 17.4808 460.542 16.0289 460.689 18.3541C459.71 18.2449 458.799 18.1804 457.849 18.0883C458.24 17.5115 458.623 16.931 459.008 16.3542C456.302 17.2585 454.602 16.9644 453.302 15.5103C456.525 15.1756 459.742 14.8445 462.966 14.5133C462.491 14.4144 462.01 14.3148 461.535 14.2193C463.976 12.7336 461.458 11.3265 466.011 11.0089C465.983 11.6883 465.96 12.3682 465.932 13.0511C467.59 11.2342 472.128 11.244 470.681 9.1539C472.051 9.79591 472.331 10.202 473.107 9.07536C476.723 10.6634 479.045 12.6717 477.758 15.0692C479.101 14.6834 480.444 14.297 481.779 13.9111C481.003 13.2555 480.226 12.603 479.45 11.9474C481.786 11.9884 484.139 12.0287 486.468 12.0662C486.692 14.0058 481.972 12.6547 483.334 14.3884C483.606 14.7365 484.863 13.991 485.193 14.187C488.676 16.3077 483.209 14.7756 484.236 16.4005C489.425 16.9025 485.272 19.6253 492.42 17.337C492.609 17.897 492.812 18.4683 492.986 19.0248C495.468 19.0584 495.266 17.7936 497.399 17.5545C498.735 17.4059 500.411 19.6269 501.886 18.1145C502.149 17.8356 499.668 15.1209 504.883 15.2404C508.93 15.333 507.246 17.2514 509.434 17.9312C511.623 18.6108 516.63 15.9507 518.106 18.9664C516.959 18.567 515.499 18.3515 514.226 18.0238C513.709 18.6112 513.205 19.1921 512.695 19.7761C515.604 19.0179 518.611 19.9115 520.57 18.5112C524.451 20.6526 528.792 18.6654 527.617 16.2474C526.34 16.596 527.73 17.6504 525.955 16.9785C525.773 16.415 525.582 15.8543 525.4 15.2907C528.421 15.3591 530.519 15.3432 529.142 17.0611C529.61 17.1021 530.074 17.143 530.543 17.184C530.627 15.9408 530.701 14.693 530.785 13.4499C531.345 13.3099 531.907 13.171 532.466 13.031C533.088 13.304 533.712 13.5803 534.341 13.8567C533.494 15.8239 532.053 15.8889 536.823 16.9886C536.837 16.309 536.857 15.632 536.871 14.9524C540.865 15.8164 540.97 17.4628 545.984 17.4015C542.137 19.7611 540.033 15.5783 540.047 20.3118C539.082 20.001 538.109 19.686 537.143 19.3753C536.997 20.0617 536.851 20.7492 536.711 21.4356C541.893 21.0736 550.501 16.559 553.971 19.5525C554.39 19.1872 554.811 18.8696 555.238 18.477C558.637 20.2837 560.105 16.2276 563.553 18.5636C563.908 18.8088 563.164 22.6195 567.652 22.483C567.54 21.9877 567.482 21.1541 567.391 20.5293C568.363 20.8332 569.33 21.1511 570.295 21.4618C570.469 21.0044 570.653 20.5471 570.828 20.0862C569.17 19.9086 567.517 19.7281 565.86 19.5505C567.237 19.3934 568.623 19.2362 570 19.0792C568.203 18.3315 567.393 18.3236 568.476 17.1256C570.036 17.0538 571.597 16.9777 573.157 16.906C573.318 16.5991 573.477 16.2885 573.638 15.9816C572.882 15.0664 572.12 14.1713 571.364 13.2424C575.428 13.9903 578.96 14.031 582.079 15.8305C582.611 16.1344 580.731 17.3268 584.353 16.2515C584.409 16.8829 584.506 17.3957 584.569 17.9795C589.003 16.2104 590.46 16.7385 595.083 18.0158C592.089 16.8238 594.76 17.5991 595.522 16.9604C596.045 16.5204 594.006 16.5854 594.237 16.1246C594.467 15.667 597.117 13.8192 594.852 13.5969C589.298 17.3844 587.786 12.8561 580.652 14.6765C581.75 14.1881 582.856 13.6986 583.954 13.2102C583.437 12.8792 582.974 12.5789 582.415 12.2274C586.393 12.9683 584.458 12.487 586.093 11.9031C587.73 11.3191 590.704 10.823 592.697 10.6624C593.325 10.612 592.663 11.4615 594.08 11.5406C595.045 11.5952 597.683 10.3359 598.292 11.8205C598.69 12.787 594.453 15.4481 600.311 15.4418C601.414 16.3893 598.605 16.095 598.545 16.2092C598.034 17.3362 601.636 18.1836 603.301 17.3229C603.435 17.2487 602.121 16.3705 603.55 16.0259C606.942 15.2028 608.901 16.21 611.097 17.5727C611.335 15.9743 614.19 14.0655 617.742 14.6563C617.924 14.1989 618.097 13.7375 618.279 13.2767C617.728 13.5188 617.176 13.7576 616.624 13.9997C616.023 13.7129 615.386 13.504 614.798 13.1659C618.371 12.7729 618.877 10.5701 620.59 9.76416C626.453 7.01105 622.9 12.8348 621.842 13.8386C621.08 13.4322 620.343 12.9785 619.587 12.5516C619.671 13.1083 619.756 13.6692 619.833 14.2293C628.61 14.2123 621.17 17.843 625.625 18.8778C626.772 16.1389 630.044 15.875 634.212 17.613C634.673 17.5993 635.137 17.5958 635.598 17.5787C635.675 17.1794 635.674 16.569 635.8 16.3058C640.821 15.8414 641.716 20.0592 642.191 20.4588C644.303 22.231 645.948 19.779 646.57 19.7579C649.193 19.6726 649.955 20.7613 652.452 20.2937C655.137 19.7883 653.301 18.9529 654.118 18.2051C654.773 17.6112 656.891 17.5055 657.766 16.8899C657.419 17.3934 657.032 17.8871 656.685 18.3924C659.468 19.0787 661.743 19.7477 664.903 19.915C668.47 16.2313 671.504 22.4453 670.274 17.4055C667.281 17.0606 665.607 16.4863 664.005 15.2021C665.97 15.0382 667.936 14.8786 669.901 14.7147C670.475 15.2678 670.881 15.8069 671.56 16.3703C673.028 15.1957 676.432 15.6997 677.769 15.3552C684.028 13.7398 682.092 11.7363 687.805 15.1034C683.687 15.4315 683.694 17.0669 679.61 16.8416C680.491 18.0096 682.566 17.7676 681.224 19.1678C685.175 18.8229 683.897 17.5728 685.435 16.4629C686.761 15.5061 689.432 15.4526 689.281 14.2092C689.554 14.8928 689.766 15.5546 690.038 16.2374C692.597 16.2305 695.156 16.2301 697.715 16.2233C696.625 16.9369 695.534 17.6519 694.443 18.3622C695.268 18.6317 696.093 18.9003 696.918 19.1698C703.212 16.95 714.066 21.0184 712.333 15.4418C715.368 15.2642 715.747 15.9637 717.397 17.0188C717.579 16.5954 717.756 16.2433 717.938 15.7721C719.896 16.2153 721.399 14.6258 723.126 15.039C724.853 15.449 725.282 16.9503 725.533 14.4267C726.652 15.1506 727.765 15.752 728.876 16.4247C729.547 15.8513 730.218 15.2846 730.882 14.7147C731.931 15.0152 732.982 15.3145 734.031 15.615C734.592 14.4103 738.716 14.9296 740.534 14.1206C742.26 15.4191 742.213 19.5077 746.274 18.7751C746.169 17.761 746.066 16.7499 745.961 15.7359C746.891 15.9476 747.823 16.1586 748.76 16.3703C748.816 16.7013 748.864 17.0322 748.92 17.3632C748.445 17.2608 747.976 17.1589 747.5 17.053C747.913 17.6131 748.317 18.1707 748.723 18.7308C750.142 17.901 751.563 17.0711 752.99 16.2414C751.067 15.6131 749.143 14.9845 747.221 14.3562C749.633 13.6117 751.313 14.3543 753.411 13.5244C755.236 14.9244 754.562 15.7311 753.821 17.2504C754.499 17.1207 755.185 16.9955 755.863 16.8657C755.416 18.3852 756.563 19.2906 752.599 19.1678C752.871 19.6012 753.149 20.0144 753.415 20.4649C754.065 20.3966 754.487 20.7629 755.2 20.5958C757.144 20.1381 758.635 17.4692 758.502 16.5334C758.43 16.0432 756.513 16.9807 756.59 16.2877C756.78 14.5979 761.178 15.3566 754.835 13.6594C756.94 12.5836 757.41 13.3949 759.732 13.7057C759.55 13.1426 759.374 12.583 759.199 12.0199C760.276 12.2794 761.354 12.5379 762.43 12.7973C760.934 15.6899 768.872 16.7764 761.726 19.3068C763.838 19.4365 765.942 19.567 768.047 19.7036C767.613 20.0006 767.18 20.2947 766.746 20.5918C765.795 20.4347 764.85 20.2802 763.899 20.1265C765.017 20.6694 766.138 21.209 767.257 21.7519C769.9 21.079 770.936 20.0443 772.146 18.767C769.07 17.8349 770.075 19.1081 767.678 19.3612C767.762 18.5523 767.651 17.8082 767.86 16.9584C769.099 18.6339 773.14 17.415 774.077 17.333C776.929 17.0841 774.693 18.7304 776.6 18.765C778.51 18.7992 780.761 17.8193 782.321 19.4518C782.293 18.5368 782.168 17.5901 782.056 16.757C785.029 16.4564 784.436 17.5374 784.744 17.6774C789.653 19.9792 792.317 18.0359 797.933 17.8003C797.22 17.5168 796.499 17.261 795.779 16.9946C800.016 15.0519 797.162 15.6468 793.483 15.0047C796.931 15.1994 798.906 13.5449 801.34 13.0531C803.773 12.5622 807.947 13.4119 809.472 14.0743C805.982 15.1398 802.218 14.4371 798.343 14.7308C798.784 15.663 799.212 16.4518 799.666 17.476C802.023 15.5197 803.388 16.8277 804.165 17.0873C806.444 17.8485 806.373 16.1694 807.75 17.9755C807.694 17.3542 807.653 16.8318 807.597 16.2515C812.304 16.511 817.381 17.6094 820.444 15.3149C820.724 16.8072 820.935 18.245 821.256 19.768C823.249 18.6447 824.956 19.795 826.634 19.5324C828.306 19.2694 827.67 18.0634 829.635 17.5989C829.998 17.5135 830.756 18.2683 831.651 17.7116C832.555 17.152 835.889 12.991 836.287 16.6261C837.973 16.6432 839.568 16.7761 841.218 16.8375C839.61 17.0424 838.001 17.2409 836.399 17.4458C837.77 18.3268 839.132 19.2052 840.502 20.0862C840.677 19.3007 840.853 18.501 841.021 17.7257C844.713 16.7695 847.393 18.0538 851.121 17.7499C851.743 17.6987 850.275 16.1457 853.036 16.5415C855.799 16.9376 857.849 19.8363 862.555 18.7167C862.793 18.6586 864.186 16.4386 865.872 17.9755C866.255 18.3238 864.641 18.8392 865.522 19.2967C866.403 19.7544 870.335 20.1307 870.642 21.2201C870.6 20.8343 870.355 20.4346 870.236 20.0419C870.907 19.8575 871.585 19.673 872.264 19.4921C872.327 20.1716 872.394 20.8522 872.457 21.5283C876.318 19.9471 878.313 17.3677 884.033 18.2212C882.425 17.2343 880.816 16.2434 879.214 15.2565C878.774 15.9498 878.332 16.6478 877.899 17.3411C875.262 17.0645 872.619 16.7899 869.983 16.5133C869.549 17.3022 869.123 18.0889 868.689 18.8778C867.99 18.7754 867.298 18.6761 866.599 18.5737C866.773 18.0034 866.95 17.436 867.132 16.8657C865.747 17.0057 864.361 17.1487 862.983 17.2887C865.788 13.9223 870.815 17.575 870.452 14.759C871.074 15.1959 871.697 15.6359 872.319 16.0762C872.592 14.7108 873.857 15.1038 876.087 15.3189C875.577 14.6461 875.013 13.9825 874.544 13.3029C876.713 14.2522 880.558 14.16 882.803 14.5254C883.789 14.6859 882.805 15.6759 883.098 15.7922C884.602 16.4002 887.476 14.6728 888.077 14.8094C891.672 15.6223 894.008 18.8972 897.931 16.7389C893.882 16.2061 896.085 16.4311 894.644 15.2323C894.193 14.8565 888.961 14.0724 895.512 14.4207C896.28 14.4642 908.167 16.7269 904.259 18.4609C906.183 17.9076 907.689 17.2679 909.451 16.6804C913.759 21.2501 912.268 16.9572 911.016 14.5939C911.723 14.5836 912.395 14.5596 913.122 14.5596C911.576 17.0425 919.451 17.1967 922.123 15.9433C923.018 15.5266 920.515 14.7319 922.585 14.3562C923.571 14.5303 924.689 14.7558 925.73 14.9504C924.22 13.3795 927.184 12.7741 927.143 11.176C929.038 12.6 930.488 15.6184 929.446 17.2545C931.013 16.592 932.587 15.9304 934.153 15.2646C933.426 14.8855 932.689 14.5097 931.962 14.1306C937.081 15.1347 943.664 12.8499 944.734 16.2071C945.413 16.1832 946.098 16.1626 946.777 16.1387C946.986 15.5717 947.189 15.0037 947.399 14.4368C950.469 14.9285 953.531 15.4234 956.601 15.9151C953.868 16.2669 953.217 17.0739 950.351 16.4186C951.455 17.0706 952.58 17.7263 953.664 18.3783C957.979 16.6229 958.568 15.4692 965.065 15.9916C965.358 16.0155 970.267 17.4876 970.435 17.6311C971.204 18.2868 970.037 19.2393 970.379 19.5706C971.33 20.4996 977.11 22.8321 976.998 23.1838C975.586 27.5007 956.139 27.5579 950.88 27.7799C896.328 30.0817 842.978 27.0022 788.769 27.5282C788.211 27.5363 788.455 28.1736 788.217 28.2009C786.742 28.3609 785.293 27.3677 784.747 27.3268C783.582 27.2423 784.224 28.1599 783.372 28.1606C774.574 28.1503 766.271 27.6108 757.466 27.7678C756.892 27.7781 757.478 27.0439 756.471 27.1737C755.951 27.2448 754.324 28.3711 753.15 28.3882C749.052 28.4462 745.609 28.0851 741.287 28.1022C738.923 28.1124 735.377 28.0166 732.734 28.0337C731.566 28.041 730.35 28.5563 729.197 28.5735C727.56 28.5974 727.895 27.5528 727.643 27.4879C726.538 27.2045 726.385 28.351 725.336 28.3237C723.385 28.2691 723.28 27.5036 720.804 27.5685C719.034 27.6163 714.985 28.2207 712.754 28.3982C707.536 27.5104 700.962 27.8629 696.094 28.1566C693.213 28.3307 692.946 27.2589 691.771 27.2623C687.631 27.2831 684.489 28.6519 680.601 28.6963C675.441 28.7542 670.868 27.849 665.869 27.784C665.058 27.7737 665.244 28.7557 664.449 28.7809C661.504 28.8731 657.739 29.0519 655.116 28.9118C652.193 28.758 651.115 27.3326 648.255 27.6228C647.416 27.709 647.171 28.9588 645.765 29.1193C643.521 29.3716 641.059 28.2695 639.493 28.1465C637.346 27.9826 639.213 29.2558 636.318 29.085C636.199 29.0777 635.765 28.1675 635.144 28.2109C633.332 28.3339 633.512 29.0506 630.861 28.9823C630.607 28.9729 627.092 28.1057 626.743 28.1022C624.687 28.0885 620.547 27.7849 619.33 27.9693C614.98 28.625 618.405 29.9939 614.705 27.0226C613.076 27.7499 611.46 28.487 609.733 29.1938C610.886 28.5347 606.208 27.5835 605.88 27.645C603.161 28.1403 604.78 29.2964 601.333 29.1052C605.886 26.4345 596.885 28.761 594.878 28.8293C585.213 29.1604 576.427 28.494 566.713 28.511C563.461 28.518 559.103 29.0826 555.663 29.0689C554.861 29.0681 555.467 28.4361 554.761 28.4224C554.057 28.4131 554.838 29.1226 554.034 29.085C549.034 28.8391 545.116 27.5003 540.535 29.1737C540.312 28.9317 540.319 28.7405 539.95 28.4748C536.201 29.9739 528.982 27.9579 526.268 27.6812C522.024 27.2512 520.94 28.2645 517.856 28.0599C513.779 27.7867 507.657 25.807 510.391 29.075C507.594 29.1774 504.902 29.2057 502.076 28.9018C501.762 28.8673 501.979 28.0367 501.853 28.0196C501.056 27.9004 500.796 28.6441 500.258 28.6782C498.798 28.7701 501.18 27.8796 499.099 28.1284C498.001 28.2616 497.377 28.9102 494.328 28.9239C475.948 28.9956 455.995 28.7633 437.153 28.654C435.859 28.6472 436.711 29.4505 435.088 29.3992C429.451 29.2215 419.361 27.8696 414.5 28.0538C409.64 28.2383 410.737 29.4129 407.695 29.9048C407.108 30.0004 407.589 29.3309 407.058 29.3207C403.484 29.2592 399.223 28.215 396.328 28.0579C394.413 27.9526 394.567 29.0058 393.238 29.081C391.259 29.1903 389.222 28.1263 388.166 28.0921C383.201 27.9421 379.788 28.7991 375.151 28.362C375.333 28.5938 375.452 28.8083 375.606 29.0367C370.116 28.9991 364.634 28.9615 359.144 28.9239C359.403 29.1357 359.653 29.3492 359.912 29.5644C353.471 29.4482 354.206 27.1532 354.772 31.9994C354.304 32.1701 353.807 32.368 353.36 32.5251C353.542 30.0287 349.646 28.2018 344.687 27.5664C344.323 27.5186 341.884 29.9527 342.149 27.077C341.513 27.7805 341.134 28.2655 340.595 28.8836C339.546 28.013 338.483 27.1527 337.435 26.2855C336.868 26.4152 336.294 26.5404 335.728 26.6702C335.644 27.2337 335.708 27.8188 335.526 28.3721C332.897 28.4574 327.504 27.7608 325.426 27.8323C320.265 28.0133 315.01 29.5369 310.996 27.8907C309.04 28.0585 310.982 29.1646 308.074 29.0246C307.745 28.4647 307.436 27.928 307.093 27.3509C304.716 29.8529 304.22 28.3309 300.963 27.8081C298.76 27.453 297.317 28.0645 295.219 27.9451C294.688 27.9143 294.763 27.18 294.399 27.2039C293.181 27.2796 289.706 28.2904 288.846 28.3177C281.056 28.584 274.363 28.4707 266.943 28.2009C266.146 28.1735 267.18 28.8983 266.354 28.8675C265.027 28.8193 265.808 27.7057 265.039 27.651C262.893 27.5049 262.877 28.6792 259.884 28.7406C250.03 28.942 238.701 28.0599 228.406 27.9813C228.085 27.9813 228.104 28.6694 227.754 28.6762C225.475 28.7098 223.167 27.7798 221.098 27.79C217.664 27.8037 215.083 28.7702 211.691 28.7668C205.061 28.7634 199.137 28.2685 192.318 28.2412C186.737 28.2172 181.89 28.309 175.771 28.3056C149.04 28.2919 121.763 30.4758 94.8509 29.3146C94.1661 29.2839 94.4449 28.676 94.236 28.7024C92.2498 28.9653 92.0725 29.7855 91.3663 28.0679C88.836 28.4065 88.0376 29.6969 84.982 29.6047C83.3533 29.5563 84.5693 27.5563 81.8141 28.5876C79.3261 29.5198 82.0717 30.6159 74.6732 29.4959C74.4774 29.4651 73.5133 28.246 71.9749 28.5634C70.4292 28.8776 72.2183 29.7506 68.4976 30.0135C59.7626 30.6282 48.7064 29.5744 38.5515 29.8987C37.9152 29.9192 31.7858 30.571 30.5759 30.8715C28.2344 31.4555 28.7236 32.3614 25.6824 32.5835C23.3326 32.7542 21.3935 31.728 18.631 31.9329C18.3093 31.9578 17.7703 33.0134 15.6942 32.8735ZM530.536 12.3704C531.109 11.3347 532.144 7.52249 535.612 8.68261C535.94 8.79189 534.166 11.4135 536.081 11.8306C534.207 12.1072 532.382 12.1968 530.536 12.3744C530.536 12.373 530.536 12.3717 530.536 12.3704ZM0.663391 8.5658C3.25818 8.75705 5.86163 8.94654 8.45642 9.13779C6.66602 9.59884 4.87311 10.059 3.0896 10.5235C2.27863 9.87128 1.47443 9.21798 0.663391 8.5658ZM323.664 10.3764C323.661 10.3764 323.658 10.3764 323.656 10.3764C326.384 9.88464 329.113 9.39193 331.84 8.90013C331.554 9.26215 331.266 9.62571 330.979 9.98772C328.826 10.558 326.671 11.1274 324.524 11.6977C324.238 11.2572 323.95 10.8169 323.664 10.3764ZM302.114 14.2092C300.373 13.7789 300.799 13.0531 299.841 12.3462C299.841 12.3475 299.841 12.3489 299.841 12.3502C299.588 12.1662 298.41 12.0051 297.955 11.9776C298.123 12.4318 298.34 12.8803 298.521 13.3311C294.458 14.4308 286.512 10.5229 296.8 8.94847C296.646 9.52211 296.499 10.0928 296.345 10.6665C301.457 10.506 307.157 11.7502 302.114 14.2092ZM571.644 10.7188C576.008 8.84045 577.407 8.4444 582.702 9.73194C581.954 10.2643 581.206 10.7967 580.458 11.3291C579.584 10.7861 578.716 10.2468 577.842 9.70374C577.839 9.70374 577.837 9.70374 577.834 9.70374C577.659 10.2741 577.484 10.8454 577.316 11.4157C575.428 11.1835 573.532 10.951 571.644 10.7188ZM135.057 12.8517C133.841 9.10018 134.192 11.2808 137.666 10.4348C138.869 10.1411 137.697 9.48474 138.445 9.37545C142.486 8.7785 142.81 11.292 141.907 12.6C139.62 12.6888 137.31 12.7698 135.065 12.8517C135.062 12.8517 135.06 12.8517 135.057 12.8517ZM30.2069 13.6312C30.2045 13.6312 30.2019 13.6312 30.1995 13.6312C30.0945 12.7161 31.7237 12.47 29.8864 11.603C31.2842 11.6064 32.682 11.6137 34.0867 11.6171C33.6747 11.7023 33.2539 11.7836 32.8419 11.8689C33.2054 12.1831 33.5703 12.5013 33.9339 12.8155C34.4304 11.7637 34.8917 12.3751 36.3601 12.7268C35.9545 11.6033 35.5508 10.4789 35.1451 9.35531C36.8513 9.68993 38.5634 10.0257 40.2697 10.3603C40.2906 10.6435 40.312 10.9271 40.3331 11.2103C40.9762 10.8484 41.613 10.4825 42.2561 10.1207C42.431 10.4587 42.5993 10.7937 42.7742 11.1317C43.5503 10.8757 44.3276 10.6198 45.1036 10.3603C45.3397 11.1792 43.6295 11.5331 46.6614 11.3251C45.7314 12.1651 44.8032 13.0026 43.8661 13.8426C39.3134 13.7743 34.7598 13.7029 30.2069 13.6312ZM166.666 11.6977C161.651 11.8548 163.063 11.2613 164.224 9.40365C165.035 10.1684 165.855 10.9329 166.666 11.6977ZM425.011 13.3512C426.465 12.0841 427.926 10.8297 429.416 9.60707C432.381 8.90011 435.348 11.2095 433.117 12.1146C430.431 13.2005 427.626 11.9851 425.011 13.3512ZM492.55 12.7873C488.922 12.1997 492.336 10.6942 493.154 9.81653C494.158 11.227 495.558 11.1026 497.805 11.2667C495.694 11.3581 493.15 12.887 492.55 12.7913C492.55 12.79 492.55 12.7886 492.55 12.7873ZM366.624 11.9273C365.17 11.9652 363.724 12.319 362.424 11.889C362.816 10.6774 365.417 11.7797 363.557 9.9837C364.487 9.95297 365.418 9.92318 366.341 9.88904C365.754 10.6332 366.543 11.1893 366.62 11.9232C366.622 11.9246 366.623 11.9259 366.624 11.9273ZM215.25 10.2697C218.104 11.7041 218.644 11.0903 221.519 10.0965C221.924 11.2644 218.497 13.2207 216.35 13.6513C215.986 12.5244 215.621 11.3966 215.25 10.2697ZM890.19 10.8679C889.505 12.3565 884.45 12.5506 881.939 12.1105C882.238 11.8898 882.538 11.666 882.837 11.4419C885.285 11.2506 887.742 11.0591 890.19 10.8679ZM498.875 11.3674C498.499 11.3238 498.142 11.2912 497.805 11.2667C498.18 11.2504 498.541 11.2758 498.875 11.3674ZM650.801 17.8285C649.605 19.232 653.159 19.7035 648.844 19.1537C648.844 19.1551 648.844 19.1564 648.844 19.1577C645.99 18.7957 645.36 18.6991 642.717 18.5898C643.668 16.7868 649.032 16.1423 641.64 15.7701C641.542 15.7684 641.736 16.8413 640.555 16.6945C640.191 16.6489 639.024 15.7684 637.249 15.5123C636.676 15.4303 632.366 15.1588 638.241 15.1417C638.066 13.8849 638.381 12.6128 638.367 11.3935C640.66 11.0392 642.423 13.5002 644.849 13.4398C648.45 13.3442 650.283 10.8556 650.976 14.1206C647.947 14.9227 642.747 14.942 642.068 12.9786C639.138 12.9547 638.297 14.5633 640.66 15.3592C650.78 14.3483 643.438 17.747 652.299 16.4629C652.404 16.0089 652.768 15.5202 652.712 15.0934C655.417 16.6913 651.227 17.3265 650.801 17.8285ZM629.639 14.3562C631.387 13.3965 633.13 12.4291 634.872 11.466C634.872 13.0302 633.911 14.4338 631.156 15.3149C630.653 14.9941 630.142 14.6736 629.639 14.3562ZM776.719 13.9454C776.971 13.095 777.642 12.3157 778.132 11.5063C778.663 12.2235 791.253 12.9115 784.848 13.615C783.918 13.7175 778.244 12.2138 776.719 13.9454ZM195.438 11.5506C196.92 12.121 198.397 12.6922 199.873 13.2626C197.601 13.6244 195.328 13.9957 193.056 14.3643C193.852 13.4266 194.642 12.4883 195.438 11.5506ZM449.146 14.8436C448.52 14.8117 450.6 13.6422 448.133 13.8265C449.972 13.0786 451.695 12.4455 453.492 11.742C454.03 12.2952 454.575 12.8463 455.113 13.3995C455.533 13.0444 455.961 12.6913 456.38 12.3361C456.128 13.1421 455.904 13.9293 455.639 14.749C452.61 13.0208 451.916 14.9802 449.146 14.8436ZM359.099 17.9956C358.555 16.2439 362.94 15.2023 358.626 14.9222C359.444 13.7713 360.76 13.1677 363.285 13.0652C363.69 13.5053 364.095 13.9423 364.5 14.3824C364.556 13.2046 365.205 12.7669 366.624 11.9273C366.625 11.9286 366.627 11.93 366.628 11.9313C370.466 11.846 370.237 12.2387 371.16 14.175C367.096 13.0821 366.975 14.8511 364.205 15.903C362.303 16.6263 359.82 16.2988 359.099 17.9956ZM763.306 13.9655C766.179 12.4868 763.601 11.1076 768.699 12.6785C768.37 13.0542 768.04 13.4267 767.711 13.8024C766.243 13.8604 764.774 13.9143 763.306 13.9655ZM344.918 11.9917C345.247 14.7033 347.952 16.814 348.414 12.4026C345.777 11.5044 347.065 14.0032 344.918 11.9917ZM491.313 17.0329C486.243 16.9064 487.202 13.846 489.286 12.316C489.607 12.8727 489.929 13.4303 490.243 13.9836C491.132 13.7309 492.02 13.4777 492.908 13.2283C492.377 14.4954 491.845 15.7659 491.313 17.0329ZM255.535 14.9705C259.409 13.0341 251.352 13.8936 254.059 12.6846C256.22 11.7181 259.068 13.6693 257.991 14.892C257.242 14.9261 256.409 14.95 255.542 14.9705C255.54 14.9705 255.537 14.9705 255.535 14.9705ZM277.956 14.4166C277.32 12.3477 278.237 12.9507 275.176 13.323C274.302 13.4289 267.355 12.6518 270.271 14.3663C272.753 14.3663 275.376 14.3962 277.956 14.4166ZM549.919 14.0058C549.966 14.9068 544.617 16.8852 543.93 16.3904C543.93 16.3918 543.93 16.3931 543.93 16.3945C542.077 15.0454 547.719 14.8538 545.272 13.0028C550.692 14.6316 552.313 10.6918 551.936 15.8829C548.743 16.1106 550.254 15.0405 549.919 14.0058ZM956.56 15.1095C956.562 15.1095 956.565 15.1095 956.567 15.1095C956.208 15.0671 953.248 13.7448 953.608 13.2868C957.168 13.6795 956.533 14.5499 959.847 13.1196C960.029 13.5803 960.184 14.0271 960.38 14.4912C959.065 14.7644 958.336 15.3178 956.56 15.1095ZM790.33 15.762C789.022 15.9977 786.636 15.0212 785.146 15.0793C789.888 11.3294 795.554 14.8262 790.33 15.762ZM79.2462 13.5023C79.2499 13.5009 79.2537 13.4996 79.2574 13.4982C79.2562 13.5003 79.2549 13.5022 79.2537 13.5043C79.251 13.5036 79.2486 13.5029 79.2462 13.5023ZM688.983 13.5123C689.152 13.7558 689.247 13.9672 689.281 14.1528C689.281 14.1703 689.281 14.1877 689.281 14.2052C689.19 13.9772 689.093 13.7467 688.983 13.5123ZM561.037 13.7339C563.265 14.9904 555.842 16.9881 553.441 16.5113C553.609 15.9377 553.635 15.4178 554.026 14.759C555.964 16.2442 560.666 13.5221 561.037 13.7339ZM391.796 14.1951C397.664 14.2292 390.027 19.1906 389.713 15.2323C389.724 15.1557 391.644 14.2018 391.796 14.1951ZM514.763 14.2535C513.268 15.7556 516.272 16.1545 511.468 15.895C511.189 15.5059 510.909 15.1159 510.63 14.7268C512.007 14.5698 513.386 14.4106 514.763 14.2535ZM430.236 20.7086C437.621 19.8719 444.684 18.3958 439.874 14.2535C439.315 14.3866 438.748 14.5152 438.189 14.6483C438.105 16.6692 436.043 15.566 433.023 15.5002C432.593 16.3025 430.919 16.488 430.605 17.1699C429.997 18.4878 431.921 19.4144 430.236 20.7086ZM118.443 17.4196C118.561 17.0747 118.678 16.7279 118.797 16.3864C119.965 15.9971 121.136 15.6096 122.304 15.2203C122.115 15.8822 121.926 16.5441 121.737 17.2061C120.64 17.2778 119.547 17.3499 118.45 17.4216C118.448 17.4209 118.445 17.4203 118.443 17.4196ZM622.442 18.62C623.113 14.8233 620.769 15.5225 616.013 17.4418C618.153 17.8345 620.302 18.2272 622.442 18.62ZM311.562 19.1698C311.408 18.0912 311.257 17.0159 311.096 15.9373C308.571 17.0609 309.04 18.2961 310.25 19.7237C310.69 19.5395 311.122 19.3541 311.562 19.1698ZM275.194 19.629C276.242 19.8541 275.707 18.9832 275.817 19.0006C278.468 19.4583 278.841 19.8578 282.093 19.202C282.492 18.9733 282.883 18.7327 283.282 18.4971C281.778 16.237 280.687 17.4688 277.505 16.1407C278.079 16.9159 278.65 17.6923 279.223 18.4709C277.454 18.3071 275.693 18.1454 273.924 17.9815C273.714 18.2206 273.504 18.4575 273.294 18.6965C273.923 19.0038 274.572 19.3491 275.194 19.629ZM104.936 16.4388C103.216 16.35 101.487 16.2577 99.7668 16.1689C99.7039 16.7255 99.6434 17.2859 99.5804 17.8426C101.364 17.3748 103.153 16.9065 104.936 16.4388ZM657.766 16.8899C657.903 16.6924 658.036 16.4938 658.154 16.2917C658.142 16.538 657.993 16.7302 657.766 16.8899ZM961.099 18.1628C963.05 18.5521 965.862 18.2965 968.002 18.3783C967.833 16.9818 962.394 17.3678 960.484 16.5213C960.177 16.7719 960.275 17.999 961.099 18.1628ZM484.299 16.91C483.809 17.6067 483.321 18.3 482.838 18.9966C481.656 18.9215 480.471 18.8421 479.282 18.767C479.247 19.3374 479.213 19.9126 479.178 20.483C484.416 19.742 483.208 21.3867 485.801 23.0086C485.297 20.9769 484.802 18.9451 484.299 16.91ZM50.1946 20.056C53.9781 19.6701 55.3203 18.9493 53.1873 17.2383C51.8521 17.631 50.5087 18.0239 49.1733 18.4166C49.516 18.9629 49.8591 19.5097 50.1946 20.056ZM726.674 18.1789C729.84 17.5396 729.893 19.8358 732.987 18.5535C731.33 18.1301 729.673 17.702 728.023 17.2786C727.577 17.578 727.12 17.8795 726.674 18.1789ZM571.387 24.4849C572.722 25.2837 575.22 21.4866 578.975 24.2896C579.87 23.453 580.431 22.6539 581.2 21.8344C581.647 22.7258 582.156 23.6286 582.582 24.5131C582.585 24.5131 582.587 24.5131 582.59 24.5131C585.996 24.2126 583.788 23.0946 583.865 22.1486C583.901 21.7564 586.428 22.412 585.639 21.5585C584.275 20.0934 579.179 20.9359 579.165 19.1497C580.955 19.7334 584.451 19.2456 583.417 18.054C582.284 16.7461 578.99 18.938 576.891 17.8526C579.898 20.7074 573.688 19.8256 572.982 17.6331C569.338 19.3168 572.687 20.0036 576.422 19.9251C574.142 21.6054 577.498 20.6976 578.05 22.0942C575.699 22.9373 567.631 22.2345 571.387 24.4849ZM399.477 21.3893C401.996 21.281 405.93 22.2414 407.654 20.8234C408.658 19.9972 404.715 19.3575 407.434 18.0601C404.981 18.1866 404.421 18.6934 404.84 19.8304C404.281 19.967 403.715 20.1001 403.156 20.2332C402.897 20.0114 402.632 19.7925 402.373 19.5706C402.079 20.0385 401.784 20.5026 401.497 20.9704C400.903 20.8783 400.302 20.786 399.708 20.6904C399.638 20.9257 399.519 21.1304 399.477 21.3893ZM817.585 18.1084C816.886 18.1221 816.194 18.1357 815.495 18.1527C815.572 18.4297 815.663 18.718 815.752 19.0027C815.815 19.2276 815.878 19.4525 815.942 19.6774C815.537 18.8738 812.206 17.5383 810.802 18.3964C810.097 18.8269 811.702 20.3552 808.712 20.622C810.879 20.5434 812.887 20.3348 814.991 20.2051C814.803 20.6593 814.621 21.1184 814.432 21.5726C814.434 21.5733 814.435 21.5739 814.436 21.5746C815.135 21.677 815.843 21.7844 816.542 21.8868C816.892 20.6266 817.236 19.3686 817.585 18.1084ZM313.612 21.3027C315.997 20.4113 316.795 19.9484 315.669 18.5072C315.667 18.5065 315.664 18.5059 315.662 18.5052C314.774 19.1437 313.885 19.782 312.997 20.4206C313.2 20.7143 313.402 21.009 313.612 21.3027ZM678.309 21.6471C683.38 16.1727 671.961 19.5286 674.135 21.3933C674.233 21.4787 677.834 21.0426 678.309 21.6471ZM492.245 18.7167C490.853 18.7611 489.458 18.8012 488.059 18.8456C488.381 19.5184 488.71 20.1888 489.032 20.8616C490.102 20.1478 491.175 19.4304 492.245 18.7167ZM66.6677 22.5414C68.1326 24.0441 71.8928 24.5885 73.7302 22.9542C72.7653 22.763 71.7997 22.5715 70.8345 22.3802C72.659 22.1925 74.4633 21.9858 76.3018 21.8082C76.3999 19.7147 74.2808 20.9293 71.0916 20.3521C70.598 20.259 67.441 17.6603 66.3509 19.619C66.1316 20.0215 69.4898 20.2953 67.1559 21.4659C68.1765 21.558 69.0573 21.5375 70.022 21.5887C70.0919 22.0873 70.1613 22.5865 70.2382 23.0852C69.0453 22.9046 67.8605 22.7219 66.6677 22.5414ZM414.139 21.2262C417.598 21.3417 418.025 20.5052 418.746 19.0268C417.137 19.1942 415.528 19.359 413.919 19.5263C413.996 20.0918 414.062 20.6573 414.139 21.2262ZM97.5865 23.0207C99.4803 23.2625 98.6693 22.0592 99.4313 21.8304C102.313 20.9699 104.278 21.8299 107.124 21.2906C106.935 21.5229 106.761 21.7399 106.58 21.9653C106.582 21.9653 106.585 21.9653 106.587 21.9653C120.063 22.9796 112.985 20.2505 104.921 20.6945C104.732 20.2471 104.551 19.7991 104.362 19.3551C100.754 20.1372 97.4256 20.8897 97.5865 23.0207ZM633.262 21.8344C633.415 22.1145 632.108 23.8941 634.562 23.061C636.506 20.4626 633.318 21.7523 632.52 20.7529C633.184 20.5036 633.864 20.261 634.521 20.0117C630.549 19.2774 629.969 19.8953 631.417 21.7941C631.52 21.9218 633.107 21.5553 633.262 21.8344ZM659.369 23.1154C659.914 19.2869 654.901 21.0084 655.083 22.197C655.775 22.2443 656.313 21.5961 657.047 21.8828C657.788 22.1696 657.978 23.0639 659.369 23.1154ZM515.736 22.1788C515.883 22.1959 517.358 23.805 517.212 22.5454C515.386 19.5639 511.708 21.483 512.352 22.5212C513.568 22.4699 514.379 22.0225 515.736 22.1829C515.736 22.1815 515.736 22.1802 515.736 22.1788ZM43.8513 23.4437C43.9213 23.5505 47.6025 24.1972 48.0777 23.5967C48.4692 22.9206 48.6635 22.196 48.9573 21.4961C46.9291 22.145 42.8237 21.6507 43.8587 23.4437C43.8564 23.4437 43.8538 23.4437 43.8513 23.4437Z" fill="#FBCBE2"/>
</svg>
