<svg width="451" height="386" viewBox="0 0 451 386" fill="none" xmlns="http://www.w3.org/2000/svg">
<path d="M159.399 195.778C159.527 196.375 159.773 196.919 160.135 197.41C160.519 197.879 161.021 198.253 161.639 198.53C162.279 198.807 163.037 198.946 163.911 198.946C165.255 198.946 166.258 198.637 166.919 198.018C167.581 197.378 167.911 196.631 167.911 195.778C167.911 195.074 167.698 194.487 167.271 194.018C166.866 193.549 166.29 193.154 165.543 192.834C164.797 192.493 163.943 192.173 162.983 191.874C162.109 191.618 161.266 191.351 160.455 191.074C159.645 190.775 158.909 190.413 158.247 189.986C157.607 189.538 157.095 188.973 156.711 188.29C156.327 187.586 156.146 186.711 156.167 185.666C156.167 184.301 156.487 183.149 157.127 182.21C157.767 181.25 158.663 180.525 159.815 180.034C160.967 179.543 162.29 179.298 163.783 179.298C165.042 179.298 166.173 179.479 167.175 179.842C168.199 180.183 169.063 180.695 169.767 181.378C170.471 182.039 170.994 182.861 171.335 183.842L167.847 184.994C167.719 184.525 167.463 184.109 167.079 183.746C166.695 183.362 166.215 183.063 165.639 182.85C165.085 182.637 164.477 182.519 163.815 182.498C163.09 182.477 162.439 182.583 161.863 182.818C161.309 183.053 160.861 183.394 160.519 183.842C160.178 184.269 160.007 184.77 160.007 185.346C160.007 186.007 160.199 186.53 160.583 186.914C160.967 187.277 161.469 187.586 162.087 187.842C162.727 188.077 163.431 188.322 164.199 188.578C165.095 188.834 165.981 189.133 166.855 189.474C167.751 189.794 168.562 190.21 169.287 190.722C170.034 191.213 170.631 191.842 171.079 192.61C171.527 193.378 171.751 194.338 171.751 195.49C171.751 196.727 171.463 197.847 170.887 198.85C170.333 199.853 169.479 200.653 168.327 201.25C167.175 201.847 165.746 202.146 164.039 202.146C162.653 202.146 161.383 201.943 160.231 201.538C159.101 201.111 158.151 200.514 157.383 199.746C156.637 198.957 156.146 198.029 155.911 196.962L159.399 195.778ZM175.304 178.882H178.92V192.386H180.104L185.736 185.922H190.504L183.24 193.922L190.536 201.922H185.768L180.104 195.426H178.92V201.922H175.304V178.882ZM193.597 185.922H197.213V201.922H193.597V185.922ZM195.421 183.49C194.76 183.49 194.205 183.266 193.757 182.818C193.309 182.37 193.085 181.837 193.085 181.218C193.085 180.557 193.309 180.002 193.757 179.554C194.205 179.106 194.76 178.882 195.421 178.882C196.061 178.882 196.605 179.106 197.053 179.554C197.501 180.002 197.725 180.557 197.725 181.218C197.725 181.837 197.501 182.37 197.053 182.818C196.605 183.266 196.061 183.49 195.421 183.49ZM201.991 178.882H205.607V201.922H201.991V178.882ZM209.835 178.882H213.451V201.922H209.835V178.882ZM239.671 186.274C239.671 185.165 239.341 184.29 238.679 183.65C238.018 183.01 236.994 182.69 235.607 182.69H230.647V189.89H235.607C236.546 189.89 237.303 189.751 237.879 189.474C238.477 189.175 238.925 188.759 239.223 188.226C239.522 187.671 239.671 187.021 239.671 186.274ZM235.607 179.522C237.399 179.522 238.871 179.831 240.023 180.45C241.197 181.047 242.071 181.869 242.647 182.914C243.223 183.938 243.511 185.058 243.511 186.274C243.511 187.085 243.373 187.885 243.095 188.674C242.818 189.463 242.37 190.199 241.751 190.882C241.133 191.543 240.311 192.077 239.287 192.482C238.285 192.866 237.058 193.058 235.607 193.058H230.647V201.922H226.839V179.522H235.607ZM237.879 191.81L243.991 201.922H239.703L233.815 191.81H237.879ZM256.871 201.922L256.551 199.97C256.039 200.653 255.431 201.175 254.727 201.538C254.023 201.901 253.084 202.082 251.911 202.082C250.802 202.082 249.842 201.901 249.031 201.538C248.22 201.154 247.591 200.631 247.143 199.97C246.716 199.287 246.503 198.498 246.503 197.602C246.503 196.258 246.994 195.138 247.975 194.242C248.978 193.325 250.439 192.759 252.359 192.546L256.551 192.098V190.85C256.551 190.338 256.327 189.879 255.879 189.474C255.431 189.047 254.716 188.834 253.735 188.834C252.882 188.834 252.135 189.047 251.495 189.474C250.876 189.879 250.46 190.498 250.247 191.33L247.111 190.178C247.516 188.77 248.316 187.671 249.511 186.882C250.727 186.093 252.199 185.698 253.927 185.698C256.018 185.698 257.586 186.221 258.631 187.266C259.676 188.311 260.199 189.645 260.199 191.266V201.922H256.871ZM256.551 194.882L252.711 195.362C251.9 195.469 251.292 195.703 250.887 196.066C250.482 196.407 250.279 196.845 250.279 197.378C250.279 197.869 250.471 198.295 250.855 198.658C251.26 198.999 251.804 199.17 252.487 199.17C253.362 199.17 254.098 199.01 254.695 198.69C255.314 198.37 255.772 197.911 256.071 197.314C256.391 196.717 256.551 195.981 256.551 195.106V194.882ZM265.234 185.922V181.442H268.914V185.922H272.658V189.09H268.914V196.194C268.914 197.154 269.095 197.826 269.458 198.21C269.821 198.573 270.29 198.775 270.866 198.818C271.463 198.839 272.061 198.807 272.658 198.722V201.794C271.741 201.986 270.834 202.039 269.938 201.954C269.063 201.89 268.274 201.655 267.57 201.25C266.866 200.823 266.301 200.205 265.874 199.394C265.447 198.583 265.234 197.517 265.234 196.194V189.09H262.994V185.922H265.234ZM282.94 202.146C281.34 202.146 279.932 201.794 278.716 201.09C277.522 200.386 276.583 199.405 275.9 198.146C275.239 196.887 274.908 195.437 274.908 193.794C274.908 192.237 275.239 190.85 275.9 189.634C276.562 188.418 277.479 187.458 278.652 186.754C279.826 186.05 281.159 185.698 282.652 185.698C284.167 185.698 285.5 186.029 286.652 186.69C287.804 187.351 288.7 188.279 289.34 189.474C290.002 190.647 290.332 192.013 290.332 193.57C290.332 193.826 290.322 194.103 290.3 194.402C290.279 194.679 290.247 194.978 290.204 195.298H278.812C278.919 196.045 279.154 196.695 279.516 197.25C279.9 197.783 280.38 198.199 280.956 198.498C281.532 198.797 282.194 198.946 282.94 198.946C283.836 198.946 284.636 198.765 285.34 198.402C286.066 198.039 286.567 197.559 286.844 196.962L290.012 198.018C289.372 199.298 288.423 200.311 287.164 201.058C285.906 201.783 284.498 202.146 282.94 202.146ZM286.396 192.354C286.375 191.693 286.194 191.095 285.852 190.562C285.511 190.029 285.063 189.613 284.508 189.314C283.954 188.994 283.335 188.834 282.652 188.834C282.055 188.834 281.49 188.983 280.956 189.282C280.423 189.581 279.964 189.997 279.58 190.53C279.218 191.042 278.983 191.65 278.876 192.354H286.396Z" fill="white"/>
<path opacity="0.6" d="M9.768 112.973H0.96L0.96 111.221L9.24 100.013H12.144L12.144 110.933H14.448V112.973H12.144V116.813H9.768V112.973ZM9.816 110.933L9.816 102.485L3.696 110.933H9.816ZM17.2151 108.413C17.2151 107.165 17.3111 106.021 17.5031 104.981C17.6951 103.925 18.0151 103.021 18.4631 102.269C18.9111 101.501 19.5351 100.909 20.3351 100.493C21.1351 100.061 22.1351 99.845 23.3351 99.845C24.5511 99.845 25.5511 100.061 26.3351 100.493C27.1191 100.909 27.7351 101.501 28.1831 102.269C28.6471 103.021 28.9671 103.925 29.1431 104.981C29.3351 106.021 29.4311 107.165 29.4311 108.413C29.4311 109.677 29.3351 110.837 29.1431 111.893C28.9671 112.933 28.6471 113.837 28.1831 114.605C27.7351 115.357 27.1191 115.941 26.3351 116.357C25.5511 116.773 24.5511 116.981 23.3351 116.981C22.1351 116.981 21.1351 116.773 20.3351 116.357C19.5351 115.941 18.9111 115.357 18.4631 114.605C18.0151 113.837 17.6951 112.933 17.5031 111.893C17.3111 110.837 17.2151 109.677 17.2151 108.413ZM27.0071 108.413C27.0071 107.549 26.9671 106.725 26.8871 105.941C26.8071 105.157 26.6471 104.461 26.4071 103.853C26.1831 103.245 25.8231 102.773 25.3271 102.437C24.8311 102.085 24.1671 101.909 23.3351 101.909C22.5031 101.909 21.8391 102.085 21.3431 102.437C20.8471 102.773 20.4791 103.245 20.2391 103.853C19.9991 104.461 19.8391 105.157 19.7591 105.941C19.6951 106.725 19.6631 107.549 19.6631 108.413C19.6631 109.325 19.6951 110.173 19.7591 110.957C19.8391 111.741 19.9991 112.429 20.2391 113.021C20.4791 113.613 20.8471 114.077 21.3431 114.413C21.8391 114.749 22.5031 114.917 23.3351 114.917C24.1671 114.917 24.8311 114.749 25.3271 114.413C25.8231 114.077 26.1831 113.613 26.4071 113.021C26.6471 112.429 26.8071 111.741 26.8871 110.957C26.9671 110.173 27.0071 109.325 27.0071 108.413ZM32.0895 103.493C32.0895 102.341 32.4255 101.445 33.0975 100.805C33.7695 100.165 34.6175 99.845 35.6415 99.845C36.6495 99.845 37.4895 100.165 38.1615 100.805C38.8495 101.445 39.1935 102.341 39.1935 103.493C39.1935 104.645 38.8495 105.549 38.1615 106.205C37.4895 106.845 36.6495 107.165 35.6415 107.165C34.6175 107.165 33.7695 106.845 33.0975 106.205C32.4255 105.549 32.0895 104.645 32.0895 103.493ZM35.6415 101.309C35.1295 101.309 34.7215 101.485 34.4175 101.837C34.1135 102.189 33.9615 102.741 33.9615 103.493C33.9615 104.229 34.1135 104.781 34.4175 105.149C34.7215 105.517 35.1295 105.701 35.6415 105.701C36.1375 105.701 36.5375 105.517 36.8415 105.149C37.1455 104.781 37.2975 104.229 37.2975 103.493C37.2975 102.741 37.1455 102.189 36.8415 101.837C36.5375 101.485 36.1375 101.309 35.6415 101.309ZM43.9695 100.013H46.3215L36.6495 116.813H34.2975L43.9695 100.013ZM41.4735 113.333C41.4735 112.181 41.8095 111.285 42.4815 110.645C43.1695 109.989 44.0175 109.661 45.0255 109.661C46.0335 109.661 46.8735 109.989 47.5455 110.645C48.2335 111.285 48.5775 112.181 48.5775 113.333C48.5775 114.469 48.2335 115.365 47.5455 116.021C46.8735 116.661 46.0335 116.981 45.0255 116.981C44.0175 116.981 43.1695 116.661 42.4815 116.021C41.8095 115.365 41.4735 114.469 41.4735 113.333ZM45.0255 111.149C44.5135 111.149 44.1055 111.325 43.8015 111.677C43.4975 112.029 43.3455 112.581 43.3455 113.333C43.3455 114.069 43.4975 114.613 43.8015 114.965C44.1055 115.317 44.5135 115.493 45.0255 115.493C45.5055 115.493 45.8975 115.317 46.2015 114.965C46.5215 114.613 46.6815 114.069 46.6815 113.333C46.6815 112.581 46.5215 112.029 46.2015 111.677C45.8975 111.325 45.5055 111.149 45.0255 111.149Z" fill="white"/>
<path opacity="0.6" d="M133.251 21.248L138.195 16.64C139.139 15.776 139.883 15.032 140.427 14.408C140.971 13.784 141.363 13.208 141.603 12.68C141.843 12.136 141.963 11.576 141.963 11C141.963 10.152 141.715 9.456 141.219 8.912C140.739 8.368 139.955 8.096 138.867 8.096C138.179 8.096 137.595 8.248 137.115 8.552C136.635 8.856 136.267 9.288 136.011 9.848C135.755 10.392 135.619 11.032 135.603 11.768H133.299C133.331 10.488 133.595 9.424 134.091 8.576C134.587 7.728 135.251 7.096 136.083 6.68C136.931 6.248 137.867 6.032 138.891 6.032C140.043 6.032 141.027 6.24 141.843 6.656C142.675 7.072 143.307 7.656 143.739 8.408C144.171 9.144 144.387 10.008 144.387 11C144.387 11.72 144.251 12.424 143.979 13.112C143.723 13.784 143.275 14.512 142.635 15.296C141.995 16.064 141.123 16.96 140.019 17.984L136.755 20.984L144.843 20.984V23L133.251 23V21.248ZM147.811 14.6C147.811 13.352 147.907 12.208 148.099 11.168C148.291 10.112 148.611 9.208 149.059 8.456C149.507 7.688 150.131 7.096 150.931 6.68C151.731 6.248 152.731 6.032 153.931 6.032C155.147 6.032 156.147 6.248 156.931 6.68C157.715 7.096 158.331 7.688 158.779 8.456C159.243 9.208 159.563 10.112 159.739 11.168C159.931 12.208 160.027 13.352 160.027 14.6C160.027 15.864 159.931 17.024 159.739 18.08C159.563 19.12 159.243 20.024 158.779 20.792C158.331 21.544 157.715 22.128 156.931 22.544C156.147 22.96 155.147 23.168 153.931 23.168C152.731 23.168 151.731 22.96 150.931 22.544C150.131 22.128 149.507 21.544 149.059 20.792C148.611 20.024 148.291 19.12 148.099 18.08C147.907 17.024 147.811 15.864 147.811 14.6ZM157.603 14.6C157.603 13.736 157.563 12.912 157.483 12.128C157.403 11.344 157.243 10.648 157.003 10.04C156.779 9.432 156.419 8.96 155.923 8.624C155.427 8.272 154.763 8.096 153.931 8.096C153.099 8.096 152.435 8.272 151.939 8.624C151.443 8.96 151.075 9.432 150.835 10.04C150.595 10.648 150.435 11.344 150.355 12.128C150.291 12.912 150.259 13.736 150.259 14.6C150.259 15.512 150.291 16.36 150.355 17.144C150.435 17.928 150.595 18.616 150.835 19.208C151.075 19.8 151.443 20.264 151.939 20.6C152.435 20.936 153.099 21.104 153.931 21.104C154.763 21.104 155.427 20.936 155.923 20.6C156.419 20.264 156.779 19.8 157.003 19.208C157.243 18.616 157.403 17.928 157.483 17.144C157.563 16.36 157.603 15.512 157.603 14.6ZM162.685 9.68C162.685 8.528 163.021 7.632 163.693 6.992C164.365 6.352 165.213 6.032 166.237 6.032C167.245 6.032 168.085 6.352 168.757 6.992C169.445 7.632 169.789 8.528 169.789 9.68C169.789 10.832 169.445 11.736 168.757 12.392C168.085 13.032 167.245 13.352 166.237 13.352C165.213 13.352 164.365 13.032 163.693 12.392C163.021 11.736 162.685 10.832 162.685 9.68ZM166.237 7.496C165.725 7.496 165.317 7.672 165.013 8.024C164.709 8.376 164.557 8.928 164.557 9.68C164.557 10.416 164.709 10.968 165.013 11.336C165.317 11.704 165.725 11.888 166.237 11.888C166.733 11.888 167.133 11.704 167.437 11.336C167.741 10.968 167.893 10.416 167.893 9.68C167.893 8.928 167.741 8.376 167.437 8.024C167.133 7.672 166.733 7.496 166.237 7.496ZM174.565 6.2H176.917L167.245 23L164.893 23L174.565 6.2ZM172.069 19.52C172.069 18.368 172.405 17.472 173.077 16.832C173.765 16.176 174.613 15.848 175.621 15.848C176.629 15.848 177.469 16.176 178.141 16.832C178.829 17.472 179.173 18.368 179.173 19.52C179.173 20.656 178.829 21.552 178.141 22.208C177.469 22.848 176.629 23.168 175.621 23.168C174.613 23.168 173.765 22.848 173.077 22.208C172.405 21.552 172.069 20.656 172.069 19.52ZM175.621 17.336C175.109 17.336 174.701 17.512 174.397 17.864C174.093 18.216 173.941 18.768 173.941 19.52C173.941 20.256 174.093 20.8 174.397 21.152C174.701 21.504 175.109 21.68 175.621 21.68C176.101 21.68 176.493 21.504 176.797 21.152C177.117 20.8 177.277 20.256 177.277 19.52C177.277 18.768 177.117 18.216 176.797 17.864C176.493 17.512 176.101 17.336 175.621 17.336Z" fill="white"/>
<path opacity="0.6" d="M303.335 34.8266L308.279 30.2186C309.223 29.3546 309.967 28.6106 310.511 27.9866C311.055 27.3626 311.447 26.7866 311.687 26.2586C311.927 25.7146 312.047 25.1546 312.047 24.5786C312.047 23.7306 311.799 23.0346 311.303 22.4906C310.823 21.9466 310.039 21.6746 308.951 21.6746C308.263 21.6746 307.679 21.8266 307.199 22.1306C306.719 22.4346 306.351 22.8666 306.095 23.4266C305.839 23.9706 305.703 24.6106 305.687 25.3466H303.383C303.415 24.0666 303.679 23.0026 304.175 22.1546C304.671 21.3066 305.335 20.6746 306.167 20.2586C307.015 19.8266 307.951 19.6106 308.975 19.6106C310.127 19.6106 311.111 19.8186 311.927 20.2346C312.759 20.6506 313.391 21.2346 313.823 21.9866C314.255 22.7226 314.471 23.5866 314.471 24.5786C314.471 25.2986 314.335 26.0026 314.063 26.6906C313.807 27.3626 313.359 28.0906 312.719 28.8746C312.079 29.6426 311.207 30.5386 310.103 31.5626L306.839 34.5626H314.927V36.5786H303.335V34.8266ZM317.894 28.1786C317.894 26.9306 317.99 25.7866 318.182 24.7466C318.374 23.6906 318.694 22.7866 319.142 22.0346C319.59 21.2666 320.214 20.6746 321.014 20.2586C321.814 19.8266 322.814 19.6106 324.014 19.6106C325.23 19.6106 326.23 19.8266 327.014 20.2586C327.798 20.6746 328.414 21.2666 328.862 22.0346C329.326 22.7866 329.646 23.6906 329.822 24.7466C330.014 25.7866 330.11 26.9306 330.11 28.1786C330.11 29.4426 330.014 30.6026 329.822 31.6586C329.646 32.6986 329.326 33.6026 328.862 34.3706C328.414 35.1226 327.798 35.7066 327.014 36.1226C326.23 36.5386 325.23 36.7466 324.014 36.7466C322.814 36.7466 321.814 36.5386 321.014 36.1226C320.214 35.7066 319.59 35.1226 319.142 34.3706C318.694 33.6026 318.374 32.6986 318.182 31.6586C317.99 30.6026 317.894 29.4426 317.894 28.1786ZM327.686 28.1786C327.686 27.3146 327.646 26.4906 327.566 25.7066C327.486 24.9226 327.326 24.2266 327.086 23.6186C326.862 23.0106 326.502 22.5386 326.006 22.2026C325.51 21.8506 324.846 21.6746 324.014 21.6746C323.182 21.6746 322.518 21.8506 322.022 22.2026C321.526 22.5386 321.158 23.0106 320.918 23.6186C320.678 24.2266 320.518 24.9226 320.438 25.7066C320.374 26.4906 320.342 27.3146 320.342 28.1786C320.342 29.0906 320.374 29.9386 320.438 30.7226C320.518 31.5066 320.678 32.1946 320.918 32.7866C321.158 33.3786 321.526 33.8426 322.022 34.1786C322.518 34.5146 323.182 34.6826 324.014 34.6826C324.846 34.6826 325.51 34.5146 326.006 34.1786C326.502 33.8426 326.862 33.3786 327.086 32.7866C327.326 32.1946 327.486 31.5066 327.566 30.7226C327.646 29.9386 327.686 29.0906 327.686 28.1786ZM332.769 23.2586C332.769 22.1066 333.105 21.2106 333.777 20.5706C334.449 19.9306 335.297 19.6106 336.321 19.6106C337.329 19.6106 338.169 19.9306 338.841 20.5706C339.529 21.2106 339.873 22.1066 339.873 23.2586C339.873 24.4106 339.529 25.3146 338.841 25.9706C338.169 26.6106 337.329 26.9306 336.321 26.9306C335.297 26.9306 334.449 26.6106 333.777 25.9706C333.105 25.3146 332.769 24.4106 332.769 23.2586ZM336.321 21.0746C335.809 21.0746 335.401 21.2506 335.097 21.6026C334.793 21.9546 334.641 22.5066 334.641 23.2586C334.641 23.9946 334.793 24.5466 335.097 24.9146C335.401 25.2826 335.809 25.4666 336.321 25.4666C336.817 25.4666 337.217 25.2826 337.521 24.9146C337.825 24.5466 337.977 23.9946 337.977 23.2586C337.977 22.5066 337.825 21.9546 337.521 21.6026C337.217 21.2506 336.817 21.0746 336.321 21.0746ZM344.649 19.7786H347.001L337.329 36.5786L334.977 36.5786L344.649 19.7786ZM342.153 33.0986C342.153 31.9466 342.489 31.0506 343.161 30.4106C343.849 29.7546 344.697 29.4266 345.705 29.4266C346.713 29.4266 347.553 29.7546 348.225 30.4106C348.913 31.0506 349.257 31.9466 349.257 33.0986C349.257 34.2346 348.913 35.1306 348.225 35.7866C347.553 36.4266 346.713 36.7466 345.705 36.7466C344.697 36.7466 343.849 36.4266 343.161 35.7866C342.489 35.1306 342.153 34.2346 342.153 33.0986ZM345.705 30.9146C345.193 30.9146 344.785 31.0906 344.481 31.4426C344.177 31.7946 344.025 32.3466 344.025 33.0986C344.025 33.8346 344.177 34.3786 344.481 34.7306C344.785 35.0826 345.193 35.2586 345.705 35.2586C346.185 35.2586 346.577 35.0826 346.881 34.7306C347.201 34.3786 347.361 33.8346 347.361 33.0986C347.361 32.3466 347.201 31.7946 346.881 31.4426C346.577 31.0906 346.185 30.9146 345.705 30.9146Z" fill="white"/>
<path opacity="0.6" d="M390.875 96.029H388.595V94.013H393.275V110.813H390.875V96.029ZM396.694 102.413C396.694 101.165 396.79 100.021 396.982 98.981C397.174 97.925 397.494 97.021 397.942 96.269C398.39 95.501 399.014 94.909 399.814 94.493C400.614 94.061 401.614 93.845 402.814 93.845C404.03 93.845 405.03 94.061 405.814 94.493C406.598 94.909 407.214 95.501 407.662 96.269C408.126 97.021 408.446 97.925 408.622 98.981C408.814 100.021 408.91 101.165 408.91 102.413C408.91 103.677 408.814 104.837 408.622 105.893C408.446 106.933 408.126 107.837 407.662 108.605C407.214 109.357 406.598 109.941 405.814 110.357C405.03 110.773 404.03 110.981 402.814 110.981C401.614 110.981 400.614 110.773 399.814 110.357C399.014 109.941 398.39 109.357 397.942 108.605C397.494 107.837 397.174 106.933 396.982 105.893C396.79 104.837 396.694 103.677 396.694 102.413ZM406.486 102.413C406.486 101.549 406.446 100.725 406.366 99.941C406.286 99.157 406.126 98.461 405.886 97.853C405.662 97.245 405.302 96.773 404.806 96.437C404.31 96.085 403.646 95.909 402.814 95.909C401.982 95.909 401.318 96.085 400.822 96.437C400.326 96.773 399.958 97.245 399.718 97.853C399.478 98.461 399.318 99.157 399.238 99.941C399.174 100.725 399.142 101.549 399.142 102.413C399.142 103.325 399.174 104.173 399.238 104.957C399.318 105.741 399.478 106.429 399.718 107.021C399.958 107.613 400.326 108.077 400.822 108.413C401.318 108.749 401.982 108.917 402.814 108.917C403.646 108.917 404.31 108.749 404.806 108.413C405.302 108.077 405.662 107.613 405.886 107.021C406.126 106.429 406.286 105.741 406.366 104.957C406.446 104.173 406.486 103.325 406.486 102.413ZM411.568 97.493C411.568 96.341 411.904 95.445 412.576 94.805C413.248 94.165 414.096 93.845 415.12 93.845C416.128 93.845 416.968 94.165 417.64 94.805C418.328 95.445 418.672 96.341 418.672 97.493C418.672 98.645 418.328 99.549 417.64 100.205C416.968 100.845 416.128 101.165 415.12 101.165C414.096 101.165 413.248 100.845 412.576 100.205C411.904 99.549 411.568 98.645 411.568 97.493ZM415.12 95.309C414.608 95.309 414.2 95.485 413.896 95.837C413.592 96.189 413.44 96.741 413.44 97.493C413.44 98.229 413.592 98.781 413.896 99.149C414.2 99.517 414.608 99.701 415.12 99.701C415.616 99.701 416.016 99.517 416.32 99.149C416.624 98.781 416.776 98.229 416.776 97.493C416.776 96.741 416.624 96.189 416.32 95.837C416.016 95.485 415.616 95.309 415.12 95.309ZM423.448 94.013H425.8L416.128 110.813H413.776L423.448 94.013ZM420.952 107.333C420.952 106.181 421.288 105.285 421.96 104.645C422.648 103.989 423.496 103.661 424.504 103.661C425.512 103.661 426.352 103.989 427.024 104.645C427.712 105.285 428.056 106.181 428.056 107.333C428.056 108.469 427.712 109.365 427.024 110.021C426.352 110.661 425.512 110.981 424.504 110.981C423.496 110.981 422.648 110.661 421.96 110.021C421.288 109.365 420.952 108.469 420.952 107.333ZM424.504 105.149C423.992 105.149 423.584 105.325 423.28 105.677C422.976 106.029 422.824 106.581 422.824 107.333C422.824 108.069 422.976 108.613 423.28 108.965C423.584 109.317 423.992 109.493 424.504 109.493C424.984 109.493 425.376 109.317 425.68 108.965C426 108.613 426.16 108.069 426.16 107.333C426.16 106.581 426 106.029 425.68 105.677C425.376 105.325 424.984 105.149 424.504 105.149Z" fill="white"/>
<path opacity="0.6" d="M411.875 184.638H409.595V182.622H414.275V199.422H411.875V184.638ZM417.694 191.022C417.694 189.774 417.79 188.63 417.982 187.59C418.174 186.534 418.494 185.63 418.942 184.878C419.39 184.11 420.014 183.518 420.814 183.102C421.614 182.67 422.614 182.454 423.814 182.454C425.03 182.454 426.03 182.67 426.814 183.102C427.598 183.518 428.214 184.11 428.662 184.878C429.126 185.63 429.446 186.534 429.622 187.59C429.814 188.63 429.91 189.774 429.91 191.022C429.91 192.286 429.814 193.446 429.622 194.502C429.446 195.542 429.126 196.446 428.662 197.214C428.214 197.966 427.598 198.55 426.814 198.966C426.03 199.382 425.03 199.59 423.814 199.59C422.614 199.59 421.614 199.382 420.814 198.966C420.014 198.55 419.39 197.966 418.942 197.214C418.494 196.446 418.174 195.542 417.982 194.502C417.79 193.446 417.694 192.286 417.694 191.022ZM427.486 191.022C427.486 190.158 427.446 189.334 427.366 188.55C427.286 187.766 427.126 187.07 426.886 186.462C426.662 185.854 426.302 185.382 425.806 185.046C425.31 184.694 424.646 184.518 423.814 184.518C422.982 184.518 422.318 184.694 421.822 185.046C421.326 185.382 420.958 185.854 420.718 186.462C420.478 187.07 420.318 187.766 420.238 188.55C420.174 189.334 420.142 190.158 420.142 191.022C420.142 191.934 420.174 192.782 420.238 193.566C420.318 194.35 420.478 195.038 420.718 195.63C420.958 196.222 421.326 196.686 421.822 197.022C422.318 197.358 422.982 197.526 423.814 197.526C424.646 197.526 425.31 197.358 425.806 197.022C426.302 196.686 426.662 196.222 426.886 195.63C427.126 195.038 427.286 194.35 427.366 193.566C427.446 192.782 427.486 191.934 427.486 191.022ZM432.568 186.102C432.568 184.95 432.904 184.054 433.576 183.414C434.248 182.774 435.096 182.454 436.12 182.454C437.128 182.454 437.968 182.774 438.64 183.414C439.328 184.054 439.672 184.95 439.672 186.102C439.672 187.254 439.328 188.158 438.64 188.814C437.968 189.454 437.128 189.774 436.12 189.774C435.096 189.774 434.248 189.454 433.576 188.814C432.904 188.158 432.568 187.254 432.568 186.102ZM436.12 183.918C435.608 183.918 435.2 184.094 434.896 184.446C434.592 184.798 434.44 185.35 434.44 186.102C434.44 186.838 434.592 187.39 434.896 187.758C435.2 188.126 435.608 188.31 436.12 188.31C436.616 188.31 437.016 188.126 437.32 187.758C437.624 187.39 437.776 186.838 437.776 186.102C437.776 185.35 437.624 184.798 437.32 184.446C437.016 184.094 436.616 183.918 436.12 183.918ZM444.448 182.622H446.8L437.128 199.422H434.776L444.448 182.622ZM441.952 195.942C441.952 194.79 442.288 193.894 442.96 193.254C443.648 192.598 444.496 192.27 445.504 192.27C446.512 192.27 447.352 192.598 448.024 193.254C448.712 193.894 449.056 194.79 449.056 195.942C449.056 197.078 448.712 197.974 448.024 198.63C447.352 199.27 446.512 199.59 445.504 199.59C444.496 199.59 443.648 199.27 442.96 198.63C442.288 197.974 441.952 197.078 441.952 195.942ZM445.504 193.758C444.992 193.758 444.584 193.934 444.28 194.286C443.976 194.638 443.824 195.19 443.824 195.942C443.824 196.678 443.976 197.222 444.28 197.574C444.584 197.926 444.992 198.102 445.504 198.102C445.984 198.102 446.376 197.926 446.68 197.574C447 197.222 447.16 196.678 447.16 195.942C447.16 195.19 447 194.638 446.68 194.286C446.376 193.934 445.984 193.758 445.504 193.758Z" fill="white"/>
<path d="M394.322 240.25C398.369 215.152 396.843 189.471 389.853 165.028C382.863 140.586 370.58 117.981 353.876 98.8173C337.171 79.6536 316.453 64.4006 293.193 54.1405C269.933 43.8804 244.701 38.8645 219.285 39.4486C193.869 40.0327 168.893 46.2025 146.129 57.5203C123.365 68.8382 103.371 85.0267 87.5637 104.938C71.7569 124.848 60.5252 147.994 54.6655 172.732C48.8057 197.469 48.4615 223.194 53.6571 248.08L76.8915 243.229C72.4076 221.752 72.7047 199.552 77.7617 178.203C82.8188 156.853 92.5118 136.879 106.153 119.695C119.795 102.512 137.05 88.5413 156.696 78.7738C176.342 69.0064 197.896 63.6818 219.83 63.1777C241.764 62.6736 263.54 67.0024 283.614 75.857C303.688 84.7116 321.567 97.8751 335.983 114.414C350.4 130.952 361 150.46 367.033 171.555C373.065 192.649 374.382 214.812 370.889 236.472L394.322 240.25Z" fill="#2D2D2D"/>
<path d="M387.863 147.194C378.6 122.091 363.649 99.4743 344.182 81.1168L327.898 98.3853C344.699 114.228 357.602 133.747 365.596 155.411L387.863 147.194Z" fill="white"/>
<path d="M396.668 232.824C400.629 206.361 398.407 179.34 390.176 153.879L367.591 161.18C374.695 183.153 376.612 206.472 373.194 229.31L396.668 232.824Z" fill="#F7FFE3"/>
<path d="M117.385 68.8578C90.3482 88.1722 69.435 114.853 57.1381 145.721C44.8413 176.589 41.6794 210.342 48.0294 242.957L71.3273 238.421C65.8472 210.274 68.5759 181.145 79.1883 154.506C89.8006 127.866 107.849 104.84 131.182 88.1713L117.385 68.8578Z" fill="#FBDDC0"/>
<path d="M223.846 34.8148C188.534 33.8305 153.765 43.6629 124.199 62.9945L137.188 82.8604C162.704 66.177 192.71 57.6915 223.184 58.541L223.846 34.8148Z" fill="#F9DCEA"/>
<path d="M338.53 77.8101C309.145 51.6285 271.723 36.2309 232.421 34.1512L231.167 57.8535C265.085 59.6482 297.381 72.9366 322.74 95.5316L338.53 77.8101Z" fill="#B5EEFF"/>
</svg>
