<svg width="123" height="34" viewBox="0 0 123 34" fill="none" xmlns="http://www.w3.org/2000/svg">
<path d="M15.7903 8.2526C15.8766 7.32185 17.2356 7.32184 17.322 8.2526L17.8376 13.8092C17.8805 14.2713 18.3198 14.5905 18.7725 14.4885L24.2165 13.2618C25.1284 13.0563 25.5484 14.3488 24.6899 14.7185L19.5645 16.9261C19.1383 17.1096 18.9705 17.6261 19.2074 18.0251L22.0564 22.8236C22.5336 23.6274 21.4342 24.4262 20.8172 23.7239L17.1339 19.5316C16.8276 19.183 16.2846 19.183 15.9783 19.5316L12.295 23.7239C11.6781 24.4262 10.5786 23.6274 11.0558 22.8236L13.9048 18.0251C14.1417 17.6261 13.9739 17.1096 13.5477 16.9261L8.42234 14.7185C7.56383 14.3488 7.98376 13.0563 8.89565 13.2618L14.3397 14.4885C14.7924 14.5905 15.2317 14.2713 15.2746 13.8092L15.7903 8.2526Z" fill="#F5CB22"/>
<path d="M38.1345 8.2526C38.2209 7.32185 39.5799 7.32184 39.6662 8.2526L40.1819 13.8092C40.2248 14.2713 40.6641 14.5905 41.1168 14.4885L46.5608 13.2618C47.4727 13.0563 47.8927 14.3488 47.0342 14.7185L41.9088 16.9261C41.4826 17.1096 41.3148 17.6261 41.5517 18.0251L44.4006 22.8236C44.8779 23.6274 43.7784 24.4262 43.1615 23.7239L39.4782 19.5316C39.1719 19.183 38.6289 19.183 38.3226 19.5316L34.6393 23.7239C34.0223 24.4262 32.9229 23.6274 33.4001 22.8236L36.2491 18.0251C36.486 17.6261 36.3182 17.1096 35.892 16.9261L30.7666 14.7185C29.9081 14.3488 30.328 13.0563 31.2399 13.2618L36.684 14.4885C37.1367 14.5905 37.576 14.2713 37.6189 13.8092L38.1345 8.2526Z" fill="#F5CB22"/>
<path d="M60.4789 8.2526C60.5652 7.32185 61.9242 7.32184 62.0106 8.2526L62.5262 13.8092C62.5691 14.2713 63.0084 14.5905 63.4611 14.4885L68.9052 13.2618C69.8171 13.0563 70.237 14.3488 69.3785 14.7185L64.2532 16.9261C63.8269 17.1096 63.6591 17.6261 63.896 18.0251L66.745 22.8236C67.2222 23.6274 66.1228 24.4262 65.5058 23.7239L61.8225 19.5316C61.5162 19.183 60.9732 19.183 60.6669 19.5316L56.9836 23.7239C56.3667 24.4262 55.2673 23.6274 55.7445 22.8236L58.5934 18.0251C58.8303 17.6261 58.6625 17.1096 58.2363 16.9261L53.111 14.7185C52.2524 14.3488 52.6724 13.0563 53.5843 13.2618L59.0283 14.4885C59.481 14.5905 59.9203 14.2713 59.9632 13.8092L60.4789 8.2526Z" fill="#F5CB22"/>
<path d="M82.8231 8.2526C82.9095 7.32185 84.2684 7.32184 84.3548 8.2526L84.8704 13.8092C84.9133 14.2713 85.3526 14.5905 85.8054 14.4885L91.2494 13.2618C92.1613 13.0563 92.5812 14.3488 91.7227 14.7185L86.5974 16.9261C86.1711 17.1096 86.0033 17.6261 86.2403 18.0251L89.0892 22.8236C89.5664 23.6274 88.467 24.4262 87.85 23.7239L84.1668 19.5316C83.8604 19.183 83.3174 19.183 83.0111 19.5316L79.3279 23.7239C78.7109 24.4262 77.6115 23.6274 78.0887 22.8236L80.9376 18.0251C81.1745 17.6261 81.0067 17.1096 80.5805 16.9261L75.4552 14.7185C74.5967 14.3488 75.0166 13.0563 75.9285 13.2618L81.3725 14.4885C81.8253 14.5905 82.2645 14.2713 82.3074 13.8092L82.8231 8.2526Z" fill="#F5CB22"/>
<path d="M105.167 8.2526C105.254 7.32185 106.613 7.32184 106.699 8.2526L107.215 13.8092C107.258 14.2713 107.697 14.5905 108.15 14.4885L113.594 13.2618C114.506 13.0563 114.926 14.3488 114.067 14.7185L108.942 16.9261C108.515 17.1096 108.348 17.6261 108.585 18.0251L111.433 22.8236C111.911 23.6274 110.811 24.4262 110.194 23.7239L106.511 19.5316C106.205 19.183 105.662 19.183 105.355 19.5316L101.672 23.7239C101.055 24.4262 99.9558 23.6274 100.433 22.8236L103.282 18.0251C103.519 17.6261 103.351 17.1096 102.925 16.9261L97.7995 14.7185C96.941 14.3488 97.3609 13.0563 98.2728 13.2618L103.717 14.4885C104.17 14.5905 104.609 14.2713 104.652 13.8092L105.167 8.2526Z" fill="#F5CB22"/>
</svg>
