<svg width="555" height="460" viewBox="0 0 555 460" fill="none" xmlns="http://www.w3.org/2000/svg">
<path d="M27.2079 190.802C27.6925 193.515 28.7585 195.89 30.406 197.925C32.0534 199.96 34.1855 201.559 36.8021 202.722C39.5156 203.788 42.6652 204.321 46.2509 204.321C51.8717 204.321 56.0873 203.061 58.8977 200.542C61.7081 197.925 63.1133 194.775 63.1133 191.093C63.1133 188.185 62.2411 185.763 60.4967 183.824C58.7523 181.886 56.2811 180.239 53.0831 178.882C49.9819 177.525 46.3478 176.217 42.1806 174.957C38.3042 173.794 34.4762 172.534 30.6967 171.178C26.9172 169.821 23.4768 168.125 20.3757 166.09C17.2746 164.055 14.8033 161.438 12.962 158.24C11.2176 154.945 10.3454 150.826 10.3454 145.884C10.3454 139.682 11.8476 134.4 14.8518 130.039C17.9529 125.678 22.1686 122.383 27.4986 120.154C32.8287 117.925 38.9826 116.811 45.9601 116.811C51.8717 116.811 57.2018 117.683 61.9504 119.427C66.699 121.075 70.6724 123.546 73.8704 126.841C77.1654 130.039 79.5881 134.012 81.1387 138.761L62.968 143.703C62.4834 141.571 61.4174 139.73 59.7699 138.179C58.1224 136.629 56.1358 135.418 53.8099 134.545C51.484 133.576 48.9644 133.092 46.2509 133.092C43.3435 132.995 40.6785 133.431 38.2557 134.4C35.833 135.369 33.8947 136.774 32.4411 138.616C30.9874 140.457 30.2606 142.589 30.2606 145.012C30.2606 147.725 31.0843 149.906 32.7318 151.553C34.3793 153.104 36.5598 154.46 39.2733 155.623C41.9868 156.689 45.0395 157.755 48.4314 158.821C52.5016 159.984 56.5718 161.341 60.6421 162.892C64.7123 164.345 68.4434 166.235 71.8353 168.561C75.2272 170.79 77.9407 173.649 79.9758 177.138C82.1078 180.626 83.1738 185.036 83.1738 190.366C83.1738 195.987 81.8171 201.075 79.1036 205.629C76.487 210.184 72.5137 213.818 67.1836 216.532C61.8535 219.245 55.1666 220.602 47.1231 220.602C40.5331 220.602 34.5247 219.633 29.0977 217.695C23.7676 215.756 19.3581 212.946 15.8694 209.263C12.3806 205.484 10.1032 201.026 9.03716 195.89L27.2079 190.802ZM131.115 220.602C124.041 220.602 117.741 219.1 112.218 216.096C106.694 212.995 102.333 208.682 99.1346 203.158C96.0334 197.537 94.4829 190.947 94.4829 183.388C94.4829 175.732 96.0819 169.094 99.2799 163.473C102.575 157.852 107.033 153.54 112.654 150.536C118.274 147.434 124.574 145.884 131.551 145.884C138.529 145.884 144.828 147.434 150.449 150.536C156.07 153.54 160.527 157.852 163.822 163.473C167.117 168.997 168.765 175.539 168.765 183.098C168.765 190.754 167.069 197.392 163.677 203.013C160.382 208.634 155.876 212.995 150.158 216.096C144.537 219.1 138.19 220.602 131.115 220.602ZM130.97 203.885C133.974 203.885 136.833 203.158 139.546 201.704C142.26 200.154 144.489 197.876 146.233 194.872C147.978 191.771 148.85 187.846 148.85 183.098C148.85 178.543 148.026 174.763 146.379 171.759C144.731 168.658 142.551 166.38 139.837 164.927C137.22 163.376 134.362 162.601 131.26 162.601C128.256 162.601 125.446 163.376 122.829 164.927C120.31 166.38 118.274 168.658 116.724 171.759C115.27 174.763 114.543 178.64 114.543 183.388C114.543 187.943 115.27 191.771 116.724 194.872C118.178 197.876 120.164 200.154 122.684 201.704C125.204 203.158 127.965 203.885 130.97 203.885ZM183.008 114.921H201.615V219.584H183.008V114.921ZM283.308 219.584H266.3L264.992 212.025C262.666 214.739 259.807 216.871 256.415 218.422C253.12 219.875 249.583 220.602 245.803 220.602C240.182 220.602 235.337 219.391 231.267 216.968C227.196 214.545 224.047 211.056 221.818 206.502C219.589 201.85 218.474 196.132 218.474 189.348V146.901H237.227V187.022C237.227 192.546 238.293 196.762 240.425 199.669C242.654 202.48 246.045 203.885 250.6 203.885C255.058 203.885 258.499 202.431 260.921 199.524C263.441 196.617 264.701 192.401 264.701 186.877V146.901H283.308V219.584ZM306.352 146.901V126.55H325.249V146.901H341.239V163.328H325.249V192.837C325.249 196.617 326.024 199.282 327.575 200.832C329.223 202.383 331.258 203.207 333.68 203.303C336.2 203.4 338.72 203.255 341.239 202.867V218.858C336.782 219.827 332.421 220.117 328.156 219.73C323.989 219.342 320.258 218.228 316.963 216.386C313.668 214.448 311.052 211.541 309.114 207.664C307.272 203.788 306.352 198.846 306.352 192.837V163.328H296.031V146.901H306.352ZM356.966 146.901H375.573V219.584H356.966V146.901ZM366.415 137.598C362.926 137.598 360.067 136.532 357.838 134.4C355.609 132.171 354.495 129.458 354.495 126.259C354.495 123.061 355.609 120.396 357.838 118.264C360.067 116.035 362.926 114.921 366.415 114.921C369.71 114.921 372.472 116.035 374.701 118.264C377.027 120.396 378.19 123.061 378.19 126.259C378.19 129.458 377.027 132.171 374.701 134.4C372.472 136.532 369.71 137.598 366.415 137.598ZM428.945 220.602C421.871 220.602 415.571 219.1 410.048 216.096C404.524 212.995 400.163 208.682 396.965 203.158C393.863 197.537 392.313 190.947 392.313 183.388C392.313 175.732 393.912 169.094 397.11 163.473C400.405 157.852 404.863 153.54 410.484 150.536C416.104 147.434 422.404 145.884 429.381 145.884C436.359 145.884 442.658 147.434 448.279 150.536C453.9 153.54 458.358 157.852 461.652 163.473C464.947 168.997 466.595 175.539 466.595 183.098C466.595 190.754 464.899 197.392 461.507 203.013C458.212 208.634 453.706 212.995 447.988 216.096C442.367 219.1 436.02 220.602 428.945 220.602ZM428.8 203.885C431.804 203.885 434.663 203.158 437.376 201.704C440.09 200.154 442.319 197.876 444.063 194.872C445.808 191.771 446.68 187.846 446.68 183.098C446.68 178.543 445.856 174.763 444.209 171.759C442.561 168.658 440.381 166.38 437.667 164.927C435.05 163.376 432.192 162.601 429.09 162.601C426.086 162.601 423.276 163.376 420.659 164.927C418.14 166.38 416.104 168.658 414.554 171.759C413.1 174.763 412.373 178.64 412.373 183.388C412.373 187.943 413.1 191.771 414.554 194.872C416.008 197.876 417.994 200.154 420.514 201.704C423.034 203.158 425.796 203.885 428.8 203.885ZM480.838 146.901H497.701L499.009 154.315C501.335 151.699 504.146 149.663 507.44 148.21C510.832 146.659 514.467 145.884 518.343 145.884C524.061 145.884 528.906 147.095 532.88 149.518C536.95 151.941 540.051 155.478 542.183 160.13C544.412 164.685 545.526 170.354 545.526 177.138V219.584H526.774V179.609C526.774 173.988 525.66 169.772 523.431 166.962C521.202 164.152 517.858 162.746 513.4 162.746C508.846 162.746 505.357 164.2 502.934 167.107C500.608 169.918 499.445 174.133 499.445 179.754V219.584H480.838V146.901Z" fill="white"/>
<g filter="url(#filter0_d_201_4324)">
<path d="M165.484 443.949C164.208 443.934 162.936 443.6 161.668 442.947C158.287 441.207 155.775 437.776 154.134 432.654C152.492 427.532 151.716 421.145 151.805 413.491C151.916 403.925 153.218 392.565 155.71 379.411C157.986 366.468 161.126 352.471 165.128 337.422C169.128 322.585 173.662 307.435 178.732 291.973C178.114 290.265 177.817 288.454 177.839 286.541C177.864 284.415 178.311 282.507 179.181 280.816C180.051 279.125 181.552 278.079 183.683 277.679C188.968 262.007 194.461 246.762 200.161 231.945C206.076 216.917 211.873 202.952 217.551 190.048C223.232 176.932 228.574 165.512 233.577 155.79C238.581 146.068 243.027 138.571 246.915 133.301C252.529 125.925 258.334 120.358 264.331 116.6C270.544 112.633 275.988 110.676 280.665 110.731C284.279 110.773 287.135 111.975 289.234 114.339C291.335 116.489 292.358 120.009 292.301 124.899C292.246 129.576 290.795 135.512 287.948 142.708C285.315 149.694 280.858 158.147 274.577 168.067C269.813 175.454 264.407 183.258 258.358 191.479C252.524 199.491 246.586 207.289 240.545 214.873C234.503 222.457 228.683 229.3 223.084 235.401C217.7 241.291 213.075 245.915 209.208 249.272L197.673 281.35C199.356 282.858 201.241 285.325 203.328 288.751C205.414 292.177 206.537 296.124 206.698 300.591C208.394 301.036 209.983 301.479 211.467 301.922C212.952 302.152 214.439 302.275 215.927 302.293C222.73 302.372 228.93 299.467 234.526 293.579C240.126 287.478 246.835 277.35 254.653 263.196C255.086 262.563 255.515 262.249 255.94 262.254C256.578 262.261 256.999 262.585 257.205 263.225C257.622 263.868 257.614 264.612 257.179 265.457C254.356 270.528 251.641 275.386 249.036 280.034C246.645 284.471 244.047 288.48 241.242 292.062C237.358 296.907 232.743 300.681 227.396 303.383C222.262 306.087 215.446 307.071 206.95 306.334C207.543 310.168 207.812 314.53 207.755 319.42C207.656 327.923 206.799 337.588 205.185 348.412C203.568 359.45 201.314 370.48 198.422 381.502C195.74 392.74 192.643 403.016 189.133 412.331C185.621 421.858 181.811 429.468 177.705 435.161C173.809 441.069 169.736 443.998 165.484 443.949ZM211.522 242.283C216.694 236.389 222.839 229.019 229.958 220.172C237.08 211.112 244.313 201.628 251.657 191.72C259.002 181.813 265.382 172.532 270.798 163.877C275.782 155.856 279.373 148.668 281.573 142.315C283.774 135.962 284.897 130.766 284.944 126.727C285.026 119.711 282.941 116.179 278.689 116.13C275.925 116.097 272.395 117.97 268.099 121.747C264.015 125.527 259.694 131.43 255.136 139.456C251.88 145.159 248.398 152.029 244.69 160.065C240.982 168.102 237.269 176.563 233.551 185.45C230.046 194.34 226.652 202.805 223.369 210.846C220.301 218.678 217.671 225.451 215.479 231.166C213.499 236.884 212.18 240.589 211.522 242.283ZM168.102 438.238C170.44 438.266 173.573 433.943 177.501 425.272C181.427 416.812 185.265 406.758 189.015 395.107C192.762 383.669 195.879 371.586 198.366 358.858C200.853 346.13 202.163 334.025 202.297 322.546C202.363 316.806 202.105 311.593 201.522 306.909C198.763 306.452 196.536 306.001 194.84 305.556C193.147 304.898 191.776 303.925 190.728 302.637C186.1 316.616 181.685 330.598 177.483 344.582C173.491 358.781 170.696 370.549 169.099 379.886C168.874 380.946 168.416 383.811 167.723 388.481C167.029 393.363 166.433 398.884 165.936 405.044C165.224 411.415 164.836 417.364 164.772 422.891C164.722 427.143 164.999 430.761 165.602 433.744C165.993 436.725 166.826 438.223 168.102 438.238ZM262.238 321.648C255.223 321.566 250.356 319.596 247.636 315.737C245.132 311.669 243.914 306.764 243.98 301.024C244.052 294.859 245.19 288.387 247.395 281.609C249.603 274.618 251.688 269.008 253.651 264.779C259.547 251.452 266.896 241.119 275.699 233.78C284.504 226.228 292.52 222.494 299.749 222.578C305.914 222.65 310.038 224.505 312.122 228.144C314.419 231.785 315.536 236.263 315.474 241.578C315.41 247.105 314.385 252.94 312.4 259.083C310.63 265.016 308.658 270.096 306.482 274.323C303.869 279.608 301.154 284.573 298.336 289.218C295.518 293.863 292.598 298.081 289.577 301.873C291.471 303.596 293.8 304.474 296.563 304.506C300.815 304.555 304.984 302.584 309.07 298.592C313.369 294.602 317.36 289.652 321.043 283.741C324.939 277.833 328.301 272.132 331.129 266.636C334.17 261.144 336.45 257.024 337.97 254.278C338.403 253.645 338.832 253.331 339.257 253.336C339.682 253.341 340.102 253.771 340.518 254.626C340.936 255.269 340.927 256.013 340.492 256.858C337.006 264.047 332.661 272.076 327.455 280.945C322.461 289.817 316.848 297.088 310.617 302.756C308.038 305.065 305.574 306.737 303.223 307.773C300.872 308.808 298.74 309.315 296.827 309.293C293.213 309.251 290.04 307.832 287.308 305.036C283.207 310.304 279.013 314.401 274.727 317.328C270.441 320.255 266.278 321.695 262.238 321.648ZM266.121 316.909C268.459 316.936 271.239 315.587 274.46 312.86C277.683 309.921 281.023 306.133 284.479 301.495C284.479 301.495 283.854 300.425 282.603 298.284C281.565 296.146 281.07 292.951 281.12 288.699C281.139 286.998 281.267 285.192 281.501 283.281C281.739 281.158 282.295 279.038 283.17 276.922C284.708 272.688 286.551 269.626 288.699 267.738C290.849 265.636 292.988 264.598 295.114 264.623C297.027 264.645 298.504 265.619 299.545 267.545C300.8 269.26 301.09 271.815 300.412 275.209C303.465 268.653 305.984 262.304 307.969 256.161C309.957 249.806 310.978 244.29 311.032 239.613C311.074 235.998 310.363 233.12 308.9 230.977C307.651 228.623 305.327 227.427 301.925 227.387C298.949 227.353 295.525 229.226 291.654 233.009C287.785 236.578 283.796 241.422 279.685 247.54C275.789 253.448 272.099 259.89 268.616 266.866C265.346 273.845 262.608 280.723 260.403 287.501C258.413 294.069 257.39 299.798 257.333 304.688C257.291 308.302 257.894 311.285 259.142 313.639C260.606 315.782 262.932 316.872 266.121 316.909ZM358.238 322.764C349.309 322.66 344.903 317.613 345.019 307.621C345.064 303.794 345.861 299.232 347.411 293.935C348.961 288.637 351.367 282.818 354.63 276.478C356.376 272.671 358.767 268.127 361.805 262.847C364.846 257.354 367.566 251.964 369.967 246.676C372.58 241.391 373.905 237.154 373.942 233.965C373.979 230.777 372.297 229.162 368.895 229.123C367.407 229.106 365.489 229.508 363.14 230.332C360.794 230.942 357.596 231.756 353.544 232.772C351.794 237.004 348.961 242.924 345.045 250.533C341.345 257.931 337.217 265.538 332.661 273.352C328.105 281.166 323.774 287.919 319.668 293.612C319.668 293.612 319.56 293.717 319.345 293.927C319.345 293.927 319.133 293.925 318.708 293.92C318.282 293.915 317.646 293.801 316.798 293.579C316.165 293.146 315.956 292.825 316.171 292.615C319.63 287.765 323.203 282.172 326.891 275.836C330.582 269.288 334.059 262.843 337.322 256.503C340.797 250.164 343.624 244.775 345.802 240.336C348.195 235.686 349.502 232.937 349.725 232.089C346.548 230.989 344.026 228.515 342.157 224.666C340.503 220.607 339.7 216.558 339.747 212.518C339.789 208.904 340.675 205.832 342.405 203.3C344.136 200.769 346.702 199.523 350.103 199.563C352.654 199.592 354.339 200.994 355.157 203.768C356.19 206.331 356.686 209.42 356.644 213.034C356.59 217.711 356.004 222.382 354.886 227.046C354.886 227.046 356.058 226.847 358.402 226.449C360.745 226.051 363.512 225.765 366.704 225.589C369.898 225.201 372.664 225.021 375.002 225.048C382.018 225.129 385.486 228.572 385.407 235.375C385.357 239.626 384.124 245.14 381.706 251.916C379.291 258.479 376.226 266.098 372.51 274.772C365.082 291.908 361.327 303.983 361.245 310.999C361.196 315.251 362.553 317.393 365.317 317.425C368.718 317.464 373.534 314.756 379.763 309.301C385.993 303.845 391.707 297.001 396.905 288.77C402.319 280.328 408.935 269.029 416.754 254.875C416.972 254.452 417.293 254.243 417.718 254.248C418.356 254.256 418.884 254.581 419.301 255.223C419.934 255.656 420.142 256.084 419.924 256.506C407.975 278.48 397.576 295.05 388.729 306.216C379.882 317.382 369.718 322.898 358.238 322.764Z" fill="#FBCBE2"/>
</g>
<path d="M148.971 325.38C147.878 321.14 146.24 317.291 146.076 312.996C146.076 304.684 151.428 297.208 149.408 287.836C148.479 282.536 146.076 277.348 142.471 273.387C137.993 268.534 132.258 266.86 127.834 263.457C122.591 259.831 120.352 253.583 117.02 248.283C111.668 239.916 100.472 234.951 91.0231 236.568C85.5615 237.573 80.2091 239.916 74.6929 239.804C69.1767 239.916 63.7697 237.684 58.3081 236.68C50.5527 235.397 41.8141 238.688 35.9156 244.267C32.0925 247.893 30.1809 253.137 27.4501 257.488C23.5724 264.573 15.7077 266.916 9.69995 271.602C3.52838 276.511 -0.40399 285.828 0.0329343 294.14C0.251396 299.886 2.87297 305.074 3.74682 310.485C5.0576 319.467 -1.60553 327.779 0.579094 337.765C1.83525 345.017 5.93148 352.102 12.0484 356.007C15.0523 357.959 18.1654 359.41 21.0055 361.307C29.0339 366.104 29.9079 375.476 36.9533 382.059C42.1418 386.634 49.0781 389.535 55.905 389.423H56.1235C62.2951 389.088 68.5213 385.908 74.3652 385.853C77.3145 385.741 80.2091 386.132 83.213 386.913C86.1622 387.638 89.2208 388.698 92.3885 389.088C99.7616 390.037 107.408 387.024 113.088 382.227C117.566 378.489 119.642 372.743 122.209 368.559C129.582 356.063 142.854 358.573 148.315 342.116C150.281 336.705 150.5 330.791 148.916 325.38H148.971Z" fill="white"/>
<path d="M143.566 324.464C142.554 320.534 141.035 316.966 140.883 312.984C140.883 305.279 145.845 298.349 143.971 289.662C143.111 284.749 140.883 279.94 137.542 276.268C133.39 271.769 128.074 270.218 123.974 267.064C119.113 263.702 117.038 257.911 113.949 252.998C108.988 245.241 98.6095 240.639 89.851 242.138C84.7883 243.069 79.8268 245.241 74.7135 245.138C69.6001 245.241 64.5881 243.173 59.5253 242.242C52.3363 241.052 44.236 244.103 38.7682 249.275C35.2243 252.636 33.4524 257.497 30.921 261.53C27.3265 268.098 20.0362 270.27 14.4672 274.614C8.74635 279.164 5.1012 287.8 5.50621 295.505C5.70872 300.832 8.13883 305.641 8.94886 310.657C10.1639 318.983 3.9874 326.688 6.01248 335.944C7.17691 342.667 10.9739 349.234 16.6442 352.854C19.4287 354.664 22.3144 356.008 24.947 357.767C32.3892 362.214 33.1992 370.901 39.7301 377.003C44.5397 381.244 50.9694 383.933 57.2977 383.829H57.5003C63.2211 383.519 68.9926 380.572 74.4097 380.52C77.1436 380.416 79.8268 380.778 82.6113 381.502C85.3452 382.175 88.1803 383.157 91.1167 383.519C97.9513 384.398 105.039 381.606 110.304 377.159C114.456 373.694 116.38 368.368 118.759 364.489C125.594 352.906 137.896 355.233 142.959 339.978C144.781 334.962 144.984 329.48 143.516 324.464H143.566ZM94.6099 277.354C95.9769 277.354 97.3438 277.665 98.6095 278.182L98.0526 280.716C97.8501 281.595 97.5969 282.37 97.1919 282.991C96.7869 283.611 96.4325 283.922 96.0781 283.922H89.8004C89.446 283.922 89.0916 284.232 88.6866 284.853C88.2815 285.473 87.9778 286.249 87.8259 287.128L84.9402 299.952C84.8389 300.521 84.7376 301.09 84.7376 301.556C84.7376 302.642 84.9908 303.159 85.4464 303.159H94.2555C94.7618 303.159 94.9643 303.676 94.9643 304.762C94.9643 305.848 94.9137 305.796 94.7618 306.365L93.2936 312.777C93.0911 313.656 92.7874 314.432 92.433 315.052C92.0279 315.673 91.6736 315.983 91.3698 315.983C90.8635 315.983 90.661 315.466 90.661 314.38C90.661 313.294 90.7116 313.346 90.8635 312.777L91.5723 309.571C91.6736 309.002 91.7748 308.433 91.7748 307.968C91.7748 306.882 91.5217 306.365 91.066 306.365H84.7883C84.4339 306.365 84.0795 306.675 83.6745 307.296C83.2695 307.916 82.9657 308.692 82.8138 309.571L81.5988 314.949C80.0293 311.122 79.118 306.623 79.118 301.762C79.118 288.266 86.054 277.303 94.6606 277.303L94.6099 277.354ZM65.2462 296.746C65.6006 296.746 65.955 296.436 66.36 295.816C66.765 295.195 67.0182 294.419 67.2713 293.54L68.4357 288.421C70.0558 292.247 70.9671 296.85 70.9671 301.814C70.9671 315.311 64.0312 326.274 55.4245 326.274C46.8179 326.274 52.5894 325.964 51.2731 325.395L51.9313 322.447C52.1338 321.568 52.4375 320.792 52.8426 320.172C53.2476 319.551 53.602 319.241 53.9564 319.241H60.2341C60.5885 319.241 60.9429 318.931 61.3479 318.31C61.7529 317.69 62.0061 316.914 62.2592 316.035L65.145 303.21C65.2968 302.641 65.3475 302.073 65.3475 301.607C65.3475 300.521 65.0943 300.004 64.6387 300.004H55.8296C55.3739 300.004 55.1208 299.487 55.1208 298.401C55.1208 297.315 55.1714 297.367 55.3233 296.798L56.7408 290.386C56.9434 289.507 57.2471 288.731 57.6015 288.11C58.0065 287.49 58.3609 287.18 58.7153 287.18C59.0697 287.18 59.4241 287.697 59.4241 288.783C59.4241 289.869 59.3735 289.817 59.2216 290.386L58.5128 293.592C58.3609 294.161 58.3103 294.73 58.3103 295.195C58.3103 296.281 58.5634 296.798 59.0191 296.798H65.2968L65.2462 296.746ZM55.3739 277.354C56.7408 277.354 58.1078 277.665 59.3735 278.182L58.8166 280.716C58.6141 281.595 58.3609 282.37 57.9559 282.991C57.5509 283.611 57.1965 283.922 56.8421 283.922H50.5643C50.21 283.922 49.8556 284.232 49.4505 284.853C49.0455 285.473 48.7418 286.249 48.5899 287.128L45.7041 299.952C45.6029 300.521 45.5016 301.09 45.5016 301.556C45.5016 302.642 45.7548 303.159 46.2104 303.159H55.0195C55.5258 303.159 55.7283 303.676 55.7283 304.762C55.7283 305.848 55.6777 305.796 55.5258 306.365L54.0576 312.777C53.8551 313.656 53.5513 314.432 53.1969 315.052C52.7919 315.673 52.4375 315.983 52.1338 315.983C51.6275 315.983 51.425 315.466 51.425 314.38C51.425 313.294 51.4756 313.346 51.6275 312.777L52.3363 309.571C52.4375 309.002 52.5388 308.433 52.5388 307.968C52.5388 306.882 52.2857 306.365 51.83 306.365H45.5523C45.1979 306.365 44.8435 306.675 44.4385 307.296C44.0334 307.916 43.7297 308.692 43.5778 309.571L42.3628 314.949C40.7933 311.122 39.882 306.623 39.882 301.762C39.882 288.266 46.8179 277.303 55.4245 277.303L55.3739 277.354ZM47.1217 344.994C44.4891 343.08 42.0084 340.857 40.1352 338.168C50.9694 343.701 62.968 346.338 74.9666 346.39C87.0159 346.39 98.9132 343.287 109.849 338.168C94.9643 356.163 65.55 358.387 47.1217 344.994ZM94.6099 326.222C93.1924 326.222 91.7748 325.912 90.4585 325.343L91.1167 322.396C91.3192 321.516 91.6229 320.741 92.0279 320.12C92.433 319.5 92.7874 319.189 93.1418 319.189H99.4195C99.7739 319.189 100.128 318.879 100.533 318.259C100.938 317.638 101.191 316.862 101.445 315.983L104.33 303.159C104.482 302.59 104.533 302.021 104.533 301.556C104.533 300.47 104.28 299.952 103.824 299.952H95.015C94.5593 299.952 94.3062 299.435 94.3062 298.349C94.3062 297.263 94.3568 297.315 94.5087 296.746L95.9262 290.334C96.1288 289.455 96.4325 288.679 96.7869 288.059C97.1919 287.438 97.5463 287.128 97.9007 287.128C98.2551 287.128 98.6095 287.645 98.6095 288.731C98.6095 289.817 98.5588 289.765 98.407 290.334L97.6982 293.54C97.5463 294.109 97.4957 294.678 97.4957 295.143C97.4957 296.229 97.7488 296.746 98.2045 296.746H104.482C104.837 296.746 105.191 296.436 105.596 295.816C106.001 295.195 106.254 294.419 106.507 293.54L107.672 288.421C109.292 292.247 110.203 296.85 110.203 301.814C110.203 315.311 103.267 326.274 94.6606 326.274L94.6099 326.222Z" fill="#1A2721"/>
<g style="mix-blend-mode:hard-light" opacity="0.6">
<path d="M143.566 324.463C142.554 320.533 141.035 316.965 140.883 312.983C140.883 305.278 145.845 298.349 143.971 289.661C143.111 284.749 140.883 279.939 137.542 276.268C133.39 271.769 128.074 270.217 123.974 267.063C119.113 263.702 117.038 257.91 113.949 252.997C108.988 245.241 98.6095 240.638 89.851 242.138C84.7883 243.069 79.8268 245.241 74.7135 245.137C69.6001 245.241 64.5881 243.172 59.5253 242.241C52.3363 241.052 44.236 244.103 38.7682 249.274C35.2243 252.635 33.4524 257.496 30.921 261.53C27.3265 268.097 20.0362 270.269 14.4672 274.613C8.74635 279.164 5.1012 287.8 5.50621 295.505C5.70872 300.831 8.13883 305.64 8.94886 310.656C10.1639 318.982 3.9874 326.687 6.01248 335.944C7.17691 342.666 10.9739 349.233 16.6442 352.853C19.4287 354.663 22.3144 356.008 24.947 357.766C32.3892 362.213 33.1992 370.901 39.7301 377.003C44.5397 381.243 50.9694 383.932 57.2977 383.829H57.5003C63.2211 383.519 68.9926 380.571 74.4097 380.519C77.1436 380.416 79.8268 380.778 82.6113 381.502C85.3452 382.174 88.1803 383.157 91.1167 383.519C97.9513 384.398 105.039 381.605 110.304 377.158C114.456 373.693 116.38 368.367 118.759 364.489C125.594 352.905 137.896 355.232 142.959 339.977C144.781 334.961 144.984 329.479 143.516 324.463H143.566ZM94.6099 277.354C95.9769 277.354 97.3438 277.664 98.6095 278.181L98.0526 280.715C97.8501 281.594 97.5969 282.37 97.1919 282.99C96.7869 283.611 96.4325 283.921 96.0781 283.921H89.8004C89.446 283.921 89.0916 284.231 88.6866 284.852C88.2815 285.473 87.9778 286.248 87.8259 287.127L84.9402 299.952C84.8389 300.521 84.7376 301.09 84.7376 301.555C84.7376 302.641 84.9908 303.158 85.4464 303.158H94.2555C94.7618 303.158 94.9643 303.675 94.9643 304.761C94.9643 305.847 94.9137 305.795 94.7618 306.364L93.2936 312.777C93.0911 313.656 92.7874 314.431 92.433 315.052C92.0279 315.672 91.6736 315.983 91.3698 315.983C90.8635 315.983 90.661 315.466 90.661 314.38C90.661 313.294 90.7116 313.345 90.8635 312.777L91.5723 309.57C91.6736 309.002 91.7748 308.433 91.7748 307.967C91.7748 306.881 91.5217 306.364 91.066 306.364H84.7883C84.4339 306.364 84.0795 306.674 83.6745 307.295C83.2695 307.916 82.9657 308.691 82.8138 309.57L81.5988 314.948C80.0293 311.122 79.118 306.623 79.118 301.762C79.118 288.265 86.054 277.302 94.6606 277.302L94.6099 277.354ZM65.2462 296.746C65.6006 296.746 65.955 296.436 66.36 295.815C66.765 295.194 67.0182 294.419 67.2713 293.54L68.4357 288.42C70.0558 292.247 70.9671 296.849 70.9671 301.814C70.9671 315.31 64.0312 326.273 55.4245 326.273C46.8179 326.273 52.5894 325.963 51.2731 325.394L51.9313 322.447C52.1338 321.568 52.4375 320.792 52.8426 320.171C53.2476 319.551 53.602 319.241 53.9564 319.241H60.2341C60.5885 319.241 60.9429 318.93 61.3479 318.31C61.7529 317.689 62.0061 316.913 62.2592 316.034L65.145 303.21C65.2968 302.641 65.3475 302.072 65.3475 301.607C65.3475 300.521 65.0943 300.004 64.6387 300.004H55.8296C55.3739 300.004 55.1208 299.487 55.1208 298.401C55.1208 297.315 55.1714 297.366 55.3233 296.797L56.7408 290.385C56.9434 289.506 57.2471 288.73 57.6015 288.11C58.0065 287.489 58.3609 287.179 58.7153 287.179C59.0697 287.179 59.4241 287.696 59.4241 288.782C59.4241 289.868 59.3735 289.816 59.2216 290.385L58.5128 293.591C58.3609 294.16 58.3103 294.729 58.3103 295.194C58.3103 296.28 58.5634 296.797 59.0191 296.797H65.2968L65.2462 296.746ZM55.3739 277.354C56.7408 277.354 58.1078 277.664 59.3735 278.181L58.8166 280.715C58.6141 281.594 58.3609 282.37 57.9559 282.99C57.5509 283.611 57.1965 283.921 56.8421 283.921H50.5643C50.21 283.921 49.8556 284.231 49.4505 284.852C49.0455 285.473 48.7418 286.248 48.5899 287.127L45.7041 299.952C45.6029 300.521 45.5016 301.09 45.5016 301.555C45.5016 302.641 45.7548 303.158 46.2104 303.158H55.0195C55.5258 303.158 55.7283 303.675 55.7283 304.761C55.7283 305.847 55.6777 305.795 55.5258 306.364L54.0576 312.777C53.8551 313.656 53.5513 314.431 53.1969 315.052C52.7919 315.672 52.4375 315.983 52.1338 315.983C51.6275 315.983 51.425 315.466 51.425 314.38C51.425 313.294 51.4756 313.345 51.6275 312.777L52.3363 309.57C52.4375 309.002 52.5388 308.433 52.5388 307.967C52.5388 306.881 52.2857 306.364 51.83 306.364H45.5523C45.1979 306.364 44.8435 306.674 44.4385 307.295C44.0334 307.916 43.7297 308.691 43.5778 309.57L42.3628 314.948C40.7933 311.122 39.882 306.623 39.882 301.762C39.882 288.265 46.8179 277.302 55.4245 277.302L55.3739 277.354ZM47.1217 344.993C44.4891 343.08 42.0084 340.856 40.1352 338.167C50.9694 343.7 62.968 346.338 74.9666 346.389C87.0159 346.389 98.9132 343.287 109.849 338.167C94.9643 356.163 65.55 358.387 47.1217 344.993ZM94.6099 326.222C93.1924 326.222 91.7748 325.911 90.4585 325.343L91.1167 322.395C91.3192 321.516 91.6229 320.74 92.0279 320.12C92.433 319.499 92.7874 319.189 93.1418 319.189H99.4195C99.7739 319.189 100.128 318.879 100.533 318.258C100.938 317.637 101.191 316.862 101.445 315.983L104.33 303.158C104.482 302.589 104.533 302.02 104.533 301.555C104.533 300.469 104.28 299.952 103.824 299.952H95.015C94.5593 299.952 94.3062 299.435 94.3062 298.349C94.3062 297.263 94.3568 297.315 94.5087 296.746L95.9262 290.333C96.1288 289.454 96.4325 288.679 96.7869 288.058C97.1919 287.438 97.5463 287.127 97.9007 287.127C98.2551 287.127 98.6095 287.644 98.6095 288.73C98.6095 289.816 98.5588 289.765 98.407 290.333L97.6982 293.54C97.5463 294.108 97.4957 294.677 97.4957 295.143C97.4957 296.229 97.7488 296.746 98.2045 296.746H104.482C104.837 296.746 105.191 296.436 105.596 295.815C106.001 295.194 106.254 294.419 106.507 293.54L107.672 288.42C109.292 292.247 110.203 296.849 110.203 301.814C110.203 315.31 103.267 326.273 94.6606 326.273L94.6099 326.222Z" fill="#1A2721"/>
</g>
<defs>
<filter id="filter0_d_201_4324" x="142.453" y="104.273" width="288.467" height="355.612" filterUnits="userSpaceOnUse" color-interpolation-filters="sRGB">
<feFlood flood-opacity="0" result="BackgroundImageFix"/>
<feColorMatrix in="SourceAlpha" type="matrix" values="0 0 0 0 0 0 0 0 0 0 0 0 0 0 0 0 0 0 127 0" result="hardAlpha"/>
<feOffset dy="4"/>
<feGaussianBlur stdDeviation="4.5"/>
<feComposite in2="hardAlpha" operator="out"/>
<feColorMatrix type="matrix" values="0 0 0 0 0 0 0 0 0 0 0 0 0 0 0 0 0 0 0.37 0"/>
<feBlend mode="normal" in2="BackgroundImageFix" result="effect1_dropShadow_201_4324"/>
<feBlend mode="normal" in="SourceGraphic" in2="effect1_dropShadow_201_4324" result="shape"/>
</filter>
</defs>
</svg>
