<svg width="88" height="100" viewBox="0 0 88 100" fill="none" xmlns="http://www.w3.org/2000/svg">
<path d="M44.4504 93.8019C42.9408 93.3503 41.5844 92.6278 40.3813 91.6346C39.1774 90.6442 38.2873 89.4218 37.711 87.9674L25.1108 56.3909L28.0032 54.8768C28.9453 54.3685 29.9419 54.1717 30.9928 54.2863C32.0437 54.4009 32.9831 54.8372 33.8108 55.5951L30.9928 54.2863L61.6471 29.771L67.67 31.573C71.7841 32.8038 74.8506 35.2906 76.8697 39.0335C78.887 42.782 79.2807 46.7119 78.0507 50.8232L67.9205 84.6837C66.6905 88.7949 64.204 91.86 60.4612 93.8791C56.7183 95.8981 52.7898 96.2922 48.6758 95.0614L44.4504 93.8019ZM8.13144 78.2325C6.23525 77.6652 4.82046 76.5164 3.88707 74.7861C2.95368 73.0558 2.77021 71.2439 3.33666 69.3506L22.0397 6.83559C22.6053 4.94504 23.7537 3.53167 25.4848 2.59546C27.2151 1.66207 29.0284 1.47902 30.9246 2.04632L64.1333 11.9816C66.0238 12.5472 67.4372 13.6956 68.3734 15.4267C69.3068 17.157 69.4898 18.9703 68.9225 20.8665L65.8797 31.0373L61.6471 29.771L30.9928 54.2863C31.2207 53.5244 64.8608 18.1403 64.5187 17.5061C64.1766 16.8719 65.7004 18.9868 64.9414 18.7598L30.9928 54.2863L26.271 8.10611C25.6368 8.44822 26.4989 7.34425 26.271 8.10611L30.9928 54.2863C30.9928 54.2863 24.7687 55.7567 25.1108 56.3909C25.4529 57.0251 26.9275 60.9437 27.2751 61.8149L35.1402 81.7014L37.3023 86.9597L8.13144 78.2325Z" fill="#FA51A2"/>
<path d="M44.3584 87.7058C43.0577 87.3167 41.8891 86.6942 40.8525 85.8384C39.8151 84.9851 39.0482 83.9319 38.5516 82.6787L27.6952 55.4722L30.1874 54.1676C30.9991 53.7297 31.8577 53.5601 32.7632 53.6588C33.6687 53.7576 34.4781 54.1335 35.1912 54.7865L49.0515 66.375L59.1752 32.5362L64.3647 34.0888C67.9094 35.1493 70.5515 37.292 72.2912 40.5169C74.0293 43.7467 74.3685 47.1327 73.3088 50.675L64.5804 79.8495C63.5207 83.3917 61.3783 86.0327 58.1534 87.7723C54.9285 89.512 51.5437 89.8515 47.999 88.791L44.3584 87.7058ZM13.0657 74.2911C11.4319 73.8023 10.2129 72.8125 9.40868 71.3216C8.60447 69.8308 8.44639 68.2697 8.93445 66.6383L25.0492 12.7749C25.5365 11.1459 26.5259 9.92817 28.0175 9.12152C29.5084 8.31731 31.0707 8.15959 32.7044 8.64838L61.3174 17.2087C62.9463 17.696 64.164 18.6855 64.9707 20.1771C65.7749 21.6679 65.9326 23.2302 65.4438 24.864L62.8221 33.6273L59.1752 32.5362L61.797 23.7729C61.9934 23.1165 61.9442 22.5151 61.6495 21.9687C61.3547 21.4222 60.8803 21.0512 60.2263 20.8555L31.6134 12.2952C30.957 12.0988 30.3555 12.148 29.8091 12.4428C29.2627 12.7375 28.8913 13.2131 28.6949 13.8696L12.5813 67.7294C12.3856 68.3834 12.4352 68.9836 12.7299 69.53C13.0247 70.0764 13.5003 70.4479 14.1567 70.6442L36.3366 77.28L38.1995 81.8105L13.0657 74.2911ZM44.5273 28.3883C45.2537 27.9964 45.7297 27.4237 45.9552 26.67C46.1807 25.9163 46.0967 25.1787 45.7034 24.4571C45.3101 23.7355 44.7373 23.2595 43.9851 23.0291C43.2328 22.7988 42.4952 22.8827 41.7721 23.2809C41.0491 23.6791 40.5731 24.2519 40.3442 24.9993C40.1195 25.7505 40.203 26.4894 40.5949 27.2158C40.9868 27.9423 41.5596 28.4183 42.3132 28.6438C43.0669 28.8692 43.8058 28.7857 44.5298 28.3931M45.5224 84.0808L49.0926 85.149C51.6138 85.9032 54.0277 85.6613 56.3345 84.423C58.6451 83.1807 60.1794 81.2928 60.9373 78.7595L69.6656 49.585C70.4192 47.0663 70.1723 44.6509 68.9251 42.3388C67.6779 40.0267 65.7941 38.4923 63.2736 37.7356L61.731 37.2741L51.0192 73.0785L32.8368 57.8487L41.8809 80.8339C42.1894 81.644 42.6662 82.3257 43.3113 82.879C43.9563 83.4322 44.6925 83.8312 45.5198 84.0761" fill="white"/>
</svg>
