<svg width="25" height="25" viewBox="0 0 25 25" fill="none" xmlns="http://www.w3.org/2000/svg">
<path fill-rule="evenodd" clip-rule="evenodd" d="M18.1329 1.027C17.8916 0.641366 17.536 0.340573 17.1157 0.16649C16.6954 -0.00759212 16.2312 -0.0463021 15.7879 0.0557501L12.6414 0.7785C12.3189 0.852615 11.9839 0.852615 11.6614 0.7785L8.5149 0.0557501C8.07156 -0.0463021 7.60744 -0.00759212 7.18713 0.16649C6.76682 0.340573 6.41125 0.641366 6.1699 1.027L4.4549 3.764C4.2799 4.044 4.04365 4.28025 3.76365 4.457L1.02665 6.172C0.64168 6.41314 0.341328 6.76813 0.167283 7.18772C-0.00676207 7.60731 -0.0458661 8.07068 0.0553986 8.5135L0.778149 11.6635C0.851996 11.9854 0.851996 12.3198 0.778149 12.6418L0.0553986 15.79C-0.0462596 16.2331 -0.00735243 16.6968 0.166711 17.1168C0.340775 17.5367 0.641348 17.892 1.02665 18.1333L3.76365 19.8483C4.04365 20.0233 4.2799 20.2595 4.45665 20.5395L6.17165 23.2765C6.66515 24.0658 7.60665 24.456 8.5149 24.2478L11.6614 23.525C11.9839 23.4509 12.3189 23.4509 12.6414 23.525L15.7896 24.2478C16.2327 24.3494 16.6965 24.3105 17.1164 24.1364C17.5364 23.9624 17.8917 23.6618 18.1329 23.2765L19.8479 20.5395C20.0229 20.2595 20.2591 20.0233 20.5391 19.8483L23.2779 18.1333C23.6632 17.8917 23.9637 17.536 24.1374 17.1157C24.3112 16.6954 24.3496 16.2314 24.2474 15.7883L23.5264 12.6418C23.4523 12.3193 23.4523 11.9842 23.5264 11.6618L24.2491 8.5135C24.351 8.0706 24.3123 7.60699 24.1386 7.18706C23.9648 6.76713 23.6646 6.41174 23.2796 6.17025L20.5409 4.45525C20.2613 4.27993 20.025 4.04361 19.8496 3.764L18.1329 1.027ZM17.2526 8.24925C17.3609 8.05022 17.3877 7.81696 17.3275 7.59855C17.2672 7.38015 17.1246 7.19362 16.9296 7.07823C16.7347 6.96283 16.5025 6.92756 16.2821 6.97983C16.0616 7.03211 15.8701 7.16785 15.7476 7.3585L11.1714 15.104L8.40815 12.458C8.32617 12.3738 8.22808 12.307 8.11973 12.2616C8.01138 12.2161 7.89499 12.193 7.77749 12.1935C7.66 12.194 7.54381 12.2182 7.43586 12.2646C7.32791 12.311 7.23041 12.3786 7.14917 12.4635C7.06793 12.5484 7.00462 12.6488 6.96301 12.7586C6.9214 12.8685 6.90235 12.9856 6.90699 13.1031C6.91163 13.2205 6.93987 13.3357 6.99002 13.442C7.04017 13.5482 7.11121 13.6433 7.1989 13.7215L10.7584 17.1322C10.8537 17.2233 10.9683 17.2917 11.0937 17.3323C11.2191 17.3729 11.3521 17.3846 11.4826 17.3666C11.6132 17.3486 11.738 17.3014 11.8478 17.2283C11.9575 17.1553 12.0493 17.0585 12.1164 16.945L17.2526 8.24925Z" fill="#137D9D"/>
</svg>
