<svg width="57" height="58" viewBox="0 0 57 58" fill="none" xmlns="http://www.w3.org/2000/svg">
<path d="M56.4455 33.3659C56.0316 31.7785 55.4108 30.3373 55.3487 28.729C55.3487 25.6169 57.3768 22.818 56.6111 19.309C56.2593 17.3248 55.3487 15.3823 53.9829 13.8993C52.286 12.0821 50.1131 11.4555 48.4369 10.1814C46.4502 8.8238 45.6018 6.48446 44.3394 4.50021C42.3114 1.36717 38.0691 -0.491759 34.489 0.113961C32.4196 0.489925 30.3916 1.36718 28.3014 1.3254C26.2113 1.36718 24.1626 0.5317 22.0932 0.155736C19.1546 -0.324663 15.8436 0.907664 13.6086 2.99635C12.16 4.354 11.4357 6.31737 10.401 7.94655C8.93171 10.5992 5.95175 11.4764 3.67539 13.2309C1.33695 15.069 -0.153034 18.5571 0.0125193 21.6692C0.095296 23.8206 1.08862 25.7631 1.41972 27.7891C1.91638 31.1519 -0.608306 34.264 0.219461 38.0028C0.695427 40.7181 2.24749 43.3707 4.56524 44.8328C5.70342 45.5638 6.88298 46.1069 7.95908 46.8171C11.0011 48.6133 11.3322 52.1223 14.0018 54.587C15.9677 56.2997 18.5959 57.3858 21.1827 57.344H21.2654C23.6039 57.2187 25.963 56.0282 28.1773 56.0073C29.2948 55.9655 30.3916 56.1117 31.5297 56.4041C32.6472 56.6757 33.8061 57.0725 35.0064 57.2187C37.8001 57.5738 40.6973 56.4459 42.8494 54.6496C44.5464 53.2502 45.3328 51.0989 46.3054 49.5323C49.0991 44.8537 54.1278 45.7936 56.1972 39.632C56.9422 37.6059 57.025 35.3919 56.4248 33.3659H56.4455ZM36.4343 14.3379C36.993 14.3379 37.5517 14.4633 38.0691 14.6721L37.8415 15.6956C37.7587 16.0507 37.6552 16.364 37.4897 16.6146C37.3241 16.8652 37.1792 16.9906 37.0344 16.9906H34.4683C34.3235 16.9906 34.1786 17.1159 34.013 17.3665C33.8475 17.6172 33.7233 17.9305 33.6612 18.2856L32.4817 23.4655C32.4403 23.6953 32.3989 23.925 32.3989 24.113C32.3989 24.5516 32.5024 24.7605 32.6886 24.7605H36.2894C36.4963 24.7605 36.5791 24.9694 36.5791 25.408C36.5791 25.8466 36.5584 25.8257 36.4963 26.0555L35.8962 28.6455C35.8134 29.0005 35.6893 29.3138 35.5444 29.5645C35.3789 29.8151 35.234 29.9404 35.1098 29.9404C34.9029 29.9404 34.8201 29.7316 34.8201 29.2929C34.8201 28.8543 34.8408 28.8752 34.9029 28.6455L35.1926 27.3505C35.234 27.1207 35.2754 26.891 35.2754 26.703C35.2754 26.2644 35.1719 26.0555 34.9857 26.0555H32.4196C32.2747 26.0555 32.1299 26.1808 31.9643 26.4314C31.7988 26.6821 31.6746 26.9954 31.6125 27.3505L31.1159 29.5227C30.4743 27.9771 30.1018 26.1599 30.1018 24.1965C30.1018 18.7451 32.9369 14.317 36.455 14.317L36.4343 14.3379ZM24.4316 22.1705C24.5765 22.1705 24.7214 22.0452 24.8869 21.7946C25.0525 21.5439 25.1559 21.2306 25.2594 20.8755L25.7354 18.8077C26.3976 20.3534 26.7701 22.2123 26.7701 24.2174C26.7701 29.6689 23.935 34.0969 20.417 34.0969C16.899 34.0969 19.2581 33.9716 18.72 33.7419L18.9891 32.5513C19.0718 32.1962 19.196 31.8829 19.3616 31.6323C19.5271 31.3816 19.672 31.2563 19.8168 31.2563H22.3829C22.5278 31.2563 22.6726 31.131 22.8382 30.8804C23.0037 30.6297 23.1072 30.3164 23.2107 29.9613L24.3903 24.7814C24.4523 24.5516 24.473 24.3219 24.473 24.1339C24.473 23.6953 24.3696 23.4864 24.1833 23.4864H20.5825C20.3963 23.4864 20.2928 23.2775 20.2928 22.8389C20.2928 22.4003 20.3135 22.4212 20.3756 22.1914L20.955 19.6014C21.0378 19.2464 21.162 18.9331 21.3068 18.6824C21.4724 18.4318 21.6172 18.3064 21.7621 18.3064C21.907 18.3064 22.0518 18.5153 22.0518 18.9539C22.0518 19.3926 22.0311 19.3717 21.969 19.6014L21.6793 20.8964C21.6172 21.1262 21.5965 21.3559 21.5965 21.5439C21.5965 21.9825 21.7 22.1914 21.8863 22.1914H24.4523L24.4316 22.1705ZM20.3963 14.3379C20.955 14.3379 21.5138 14.4633 22.0311 14.6721L21.8035 15.6956C21.7207 16.0507 21.6172 16.364 21.4517 16.6146C21.2861 16.8652 21.1413 16.9906 20.9964 16.9906H18.4303C18.2855 16.9906 18.1406 17.1159 17.9751 17.3665C17.8095 17.6172 17.6853 17.9305 17.6233 18.2856L16.4437 23.4655C16.4023 23.6953 16.3609 23.925 16.3609 24.113C16.3609 24.5516 16.4644 24.7605 16.6506 24.7605H20.2514C20.4584 24.7605 20.5411 24.9694 20.5411 25.408C20.5411 25.8466 20.5204 25.8257 20.4584 26.0555L19.8582 28.6455C19.7754 29.0005 19.6513 29.3138 19.5064 29.5645C19.3409 29.8151 19.196 29.9404 19.0718 29.9404C18.8649 29.9404 18.7821 29.7316 18.7821 29.2929C18.7821 28.8543 18.8028 28.8752 18.8649 28.6455L19.1546 27.3505C19.196 27.1207 19.2374 26.891 19.2374 26.703C19.2374 26.2644 19.1339 26.0555 18.9477 26.0555H16.3816C16.2367 26.0555 16.0919 26.1808 15.9263 26.4314C15.7608 26.6821 15.6366 26.9954 15.5745 27.3505L15.0779 29.5227C14.4364 27.9771 14.0639 26.1599 14.0639 24.1965C14.0639 18.7451 16.899 14.317 20.417 14.317L20.3963 14.3379ZM17.0231 41.658C15.947 40.8852 14.933 39.987 14.1673 38.9009C18.5959 41.1358 23.5004 42.201 28.4049 42.2219C33.3301 42.2219 38.1933 40.9687 42.6632 38.9009C36.5791 46.1696 24.5558 47.0677 17.0231 41.658ZM36.4343 34.076C35.8548 34.076 35.2754 33.9507 34.7373 33.721L35.0064 32.5304C35.0891 32.1753 35.2133 31.862 35.3789 31.6114C35.5444 31.3608 35.6893 31.2354 35.8341 31.2354H38.4002C38.5451 31.2354 38.6899 31.1101 38.8555 30.8595C39.021 30.6088 39.1245 30.2955 39.228 29.9404L40.4075 24.7605C40.4696 24.5307 40.4903 24.301 40.4903 24.113C40.4903 23.6744 40.3868 23.4655 40.2006 23.4655H36.5998C36.4136 23.4655 36.3101 23.2566 36.3101 22.818C36.3101 22.3794 36.3308 22.4003 36.3929 22.1705L36.9723 19.5805C37.0551 19.2255 37.1792 18.9122 37.3241 18.6615C37.4897 18.4109 37.6345 18.2856 37.7794 18.2856C37.9242 18.2856 38.0691 18.4944 38.0691 18.9331C38.0691 19.3717 38.0484 19.3508 37.9863 19.5805L37.6966 20.8755C37.6345 21.1053 37.6138 21.335 37.6138 21.523C37.6138 21.9616 37.7173 22.1705 37.9035 22.1705H40.4696C40.6145 22.1705 40.7593 22.0452 40.9249 21.7946C41.0905 21.5439 41.1939 21.2306 41.2974 20.8755L41.7733 18.8077C42.4356 20.3534 42.8081 22.2123 42.8081 24.2174C42.8081 29.6689 39.973 34.0969 36.455 34.0969L36.4343 34.076Z" fill="white"/>
<g style="mix-blend-mode:hard-light" opacity="0.6">
<path d="M56.4455 33.3659C56.0316 31.7785 55.4108 30.3373 55.3487 28.729C55.3487 25.6169 57.3768 22.818 56.6111 19.309C56.2593 17.3248 55.3487 15.3823 53.9829 13.8993C52.286 12.0821 50.1131 11.4555 48.4369 10.1814C46.4502 8.8238 45.6018 6.48446 44.3394 4.50021C42.3114 1.36717 38.0691 -0.491759 34.489 0.113961C32.4196 0.489925 30.3916 1.36718 28.3014 1.3254C26.2113 1.36718 24.1626 0.5317 22.0932 0.155736C19.1546 -0.324663 15.8436 0.907664 13.6086 2.99635C12.16 4.354 11.4357 6.31737 10.401 7.94655C8.93171 10.5992 5.95175 11.4764 3.67539 13.2309C1.33695 15.069 -0.153034 18.5571 0.0125193 21.6692C0.095296 23.8206 1.08862 25.7631 1.41972 27.7891C1.91638 31.1519 -0.608306 34.264 0.219461 38.0028C0.695427 40.7181 2.24749 43.3707 4.56524 44.8328C5.70342 45.5638 6.88298 46.1069 7.95908 46.8171C11.0011 48.6133 11.3322 52.1223 14.0018 54.587C15.9677 56.2997 18.5959 57.3858 21.1827 57.344H21.2654C23.6039 57.2187 25.963 56.0282 28.1773 56.0073C29.2948 55.9655 30.3916 56.1117 31.5297 56.4041C32.6472 56.6757 33.8061 57.0725 35.0064 57.2187C37.8001 57.5738 40.6973 56.4459 42.8494 54.6496C44.5464 53.2502 45.3328 51.0989 46.3054 49.5323C49.0991 44.8537 54.1278 45.7936 56.1972 39.632C56.9422 37.6059 57.025 35.3919 56.4248 33.3659H56.4455ZM36.4343 14.3379C36.993 14.3379 37.5517 14.4633 38.0691 14.6721L37.8415 15.6956C37.7587 16.0507 37.6552 16.364 37.4897 16.6146C37.3241 16.8652 37.1792 16.9906 37.0344 16.9906H34.4683C34.3235 16.9906 34.1786 17.1159 34.013 17.3665C33.8475 17.6172 33.7233 17.9305 33.6612 18.2856L32.4817 23.4655C32.4403 23.6953 32.3989 23.925 32.3989 24.113C32.3989 24.5516 32.5024 24.7605 32.6886 24.7605H36.2894C36.4963 24.7605 36.5791 24.9694 36.5791 25.408C36.5791 25.8466 36.5584 25.8257 36.4963 26.0555L35.8962 28.6455C35.8134 29.0005 35.6893 29.3138 35.5444 29.5645C35.3789 29.8151 35.234 29.9404 35.1098 29.9404C34.9029 29.9404 34.8201 29.7316 34.8201 29.2929C34.8201 28.8543 34.8408 28.8752 34.9029 28.6455L35.1926 27.3505C35.234 27.1207 35.2754 26.891 35.2754 26.703C35.2754 26.2644 35.1719 26.0555 34.9857 26.0555H32.4196C32.2747 26.0555 32.1299 26.1808 31.9643 26.4314C31.7988 26.6821 31.6746 26.9954 31.6125 27.3505L31.1159 29.5227C30.4743 27.9771 30.1018 26.1599 30.1018 24.1965C30.1018 18.7451 32.9369 14.317 36.455 14.317L36.4343 14.3379ZM24.4316 22.1705C24.5765 22.1705 24.7214 22.0452 24.8869 21.7946C25.0525 21.5439 25.1559 21.2306 25.2594 20.8755L25.7354 18.8077C26.3976 20.3534 26.7701 22.2123 26.7701 24.2174C26.7701 29.6689 23.935 34.0969 20.417 34.0969C16.899 34.0969 19.2581 33.9716 18.72 33.7419L18.9891 32.5513C19.0718 32.1962 19.196 31.8829 19.3616 31.6323C19.5271 31.3816 19.672 31.2563 19.8168 31.2563H22.3829C22.5278 31.2563 22.6726 31.131 22.8382 30.8804C23.0037 30.6297 23.1072 30.3164 23.2107 29.9613L24.3903 24.7814C24.4523 24.5516 24.473 24.3219 24.473 24.1339C24.473 23.6953 24.3696 23.4864 24.1833 23.4864H20.5825C20.3963 23.4864 20.2928 23.2775 20.2928 22.8389C20.2928 22.4003 20.3135 22.4212 20.3756 22.1914L20.955 19.6014C21.0378 19.2464 21.162 18.9331 21.3068 18.6824C21.4724 18.4318 21.6172 18.3064 21.7621 18.3064C21.907 18.3064 22.0518 18.5153 22.0518 18.9539C22.0518 19.3926 22.0311 19.3717 21.969 19.6014L21.6793 20.8964C21.6172 21.1262 21.5965 21.3559 21.5965 21.5439C21.5965 21.9825 21.7 22.1914 21.8863 22.1914H24.4523L24.4316 22.1705ZM20.3963 14.3379C20.955 14.3379 21.5138 14.4633 22.0311 14.6721L21.8035 15.6956C21.7207 16.0507 21.6172 16.364 21.4517 16.6146C21.2861 16.8652 21.1413 16.9906 20.9964 16.9906H18.4303C18.2855 16.9906 18.1406 17.1159 17.9751 17.3665C17.8095 17.6172 17.6853 17.9305 17.6233 18.2856L16.4437 23.4655C16.4023 23.6953 16.3609 23.925 16.3609 24.113C16.3609 24.5516 16.4644 24.7605 16.6506 24.7605H20.2514C20.4584 24.7605 20.5411 24.9694 20.5411 25.408C20.5411 25.8466 20.5204 25.8257 20.4584 26.0555L19.8582 28.6455C19.7754 29.0005 19.6513 29.3138 19.5064 29.5645C19.3409 29.8151 19.196 29.9404 19.0718 29.9404C18.8649 29.9404 18.7821 29.7316 18.7821 29.2929C18.7821 28.8543 18.8028 28.8752 18.8649 28.6455L19.1546 27.3505C19.196 27.1207 19.2374 26.891 19.2374 26.703C19.2374 26.2644 19.1339 26.0555 18.9477 26.0555H16.3816C16.2367 26.0555 16.0919 26.1808 15.9263 26.4314C15.7608 26.6821 15.6366 26.9954 15.5745 27.3505L15.0779 29.5227C14.4364 27.9771 14.0639 26.1599 14.0639 24.1965C14.0639 18.7451 16.899 14.317 20.417 14.317L20.3963 14.3379ZM17.0231 41.658C15.947 40.8852 14.933 39.987 14.1673 38.9009C18.5959 41.1358 23.5004 42.201 28.4049 42.2219C33.3301 42.2219 38.1933 40.9687 42.6632 38.9009C36.5791 46.1696 24.5558 47.0677 17.0231 41.658ZM36.4343 34.076C35.8548 34.076 35.2754 33.9507 34.7373 33.721L35.0064 32.5304C35.0891 32.1753 35.2133 31.862 35.3789 31.6114C35.5444 31.3608 35.6893 31.2354 35.8341 31.2354H38.4002C38.5451 31.2354 38.6899 31.1101 38.8555 30.8595C39.021 30.6088 39.1245 30.2955 39.228 29.9404L40.4075 24.7605C40.4696 24.5307 40.4903 24.301 40.4903 24.113C40.4903 23.6744 40.3868 23.4655 40.2006 23.4655H36.5998C36.4136 23.4655 36.3101 23.2566 36.3101 22.818C36.3101 22.3794 36.3308 22.4003 36.3929 22.1705L36.9723 19.5805C37.0551 19.2255 37.1792 18.9122 37.3241 18.6615C37.4897 18.4109 37.6345 18.2856 37.7794 18.2856C37.9242 18.2856 38.0691 18.4944 38.0691 18.9331C38.0691 19.3717 38.0484 19.3508 37.9863 19.5805L37.6966 20.8755C37.6345 21.1053 37.6138 21.335 37.6138 21.523C37.6138 21.9616 37.7173 22.1705 37.9035 22.1705H40.4696C40.6145 22.1705 40.7593 22.0452 40.9249 21.7946C41.0905 21.5439 41.1939 21.2306 41.2974 20.8755L41.7733 18.8077C42.4356 20.3534 42.8081 22.2123 42.8081 24.2174C42.8081 29.6689 39.973 34.0969 36.455 34.0969L36.4343 34.076Z" fill="white"/>
</g>
</svg>
